<svg width="41" height="34" viewBox="0 0 41 34" fill="none" xmlns="http://www.w3.org/2000/svg">
<path d="M40.8213 6.17829C34.2933 7.81029 30.9127 11.5406 30.563 18.0686C30.9127 17.952 31.379 17.952 31.7287 17.952C37.2076 18.0686 39.6556 21.5657 39.6556 25.7623C39.6556 30.0754 36.7413 33.5726 32.0785 33.5726C27.0659 33.5726 22.6362 29.7257 22.6362 20.8663C22.6362 9.90857 29.1642 1.86514 40.8213 0V6.17829ZM0.604174 20.8663C0.603203 9.90857 7.1312 1.86514 18.7883 0V6.17829C12.2603 7.81029 8.87978 11.5406 8.53006 18.0686C8.87978 17.952 9.34606 17.952 9.69578 17.952C15.1746 18.0686 17.6226 21.5657 17.6226 25.7623C17.6226 30.0754 14.7083 33.5726 10.0455 33.5726C5.03292 33.5726 0.604174 29.7257 0.604174 20.8663Z" fill="#F1F5F9"/>
</svg>
