<svg xmlns="http://www.w3.org/2000/svg" width="167" height="21" fill="none" viewBox="0 0 167 21" aria-labelledby="OmniconGroup" style="color: currentcolor;"><path fill="currentColor" d="M1.13 9.194c0-4.89 3.778-7.92 7.92-7.92 4.143 0 7.957 3.595 7.957 7.756s-3.285 7.755-7.975 7.755-7.901-3.74-7.901-7.573zm3.851-.182c0 2.28 1.57 4.434 4.143 4.434s4.05-2.464 4.05-4.38-1.313-4.434-4.087-4.434-4.106 2.263-4.106 4.361zM18.941 5.289h3.157v1.186s.201-.401.694-.785c.492-.401 1.277-.784 2.463-.784s1.752.2 2.573 1.076c.238.238.475.548.675.931.22-.347.493-.693.822-.967.675-.602 1.587-1.022 2.773-1.022s2.044.182 2.975 1.131c1.058 1.114 1.222 1.862 1.222 4.344v6.13H32.92v-5.966c0-.457 0-1.077-.218-1.57-.201-.529-.64-.912-1.497-.912s-1.405.42-1.624.93c-.255.512-.255 1.077-.255 1.388v6.13h-3.376v-6.094c0-.31 0-.894-.201-1.387-.219-.53-.62-.949-1.478-.949s-1.424.438-1.66.986c-.256.547-.256 1.15-.256 1.496v5.967h-3.376V5.29zM38.632 5.289h3.157v1.186c.383-.547 1.094-1.57 3.102-1.57 3.795 0 4.179 3.066 4.179 4.581v7.007h-3.376v-6.131c0-1.24-.256-2.318-1.77-2.318s-1.935 1.187-1.935 2.336v6.095h-3.376V5.29zM51.479 1.548h3.375v2.555h-3.376zm0 3.741h3.375v11.223h-3.376zM68.705 12.242a6 6 0 0 1-5.913 4.635c-3.047 0-6.04-2.665-6.04-6.004 0-3.34 2.573-5.967 5.949-5.967s5.401 1.952 5.985 4.708h-3.412c-.365-.767-1.04-1.57-2.445-1.57a2.45 2.45 0 0 0-1.953.785c-.474.53-.73 1.26-.73 2.062 0 1.643 1.077 2.847 2.683 2.847s2.08-.803 2.445-1.496zM70.018 10.873c0-2.719 1.97-5.949 6.076-5.949s6.077 3.212 6.077 5.967c0 2.756-1.97 5.967-6.077 5.967-4.106 0-6.076-3.211-6.076-5.967zm3.376.037c0 1.624 1.24 2.81 2.7 2.81s2.7-1.186 2.7-2.829c0-1.642-1.24-2.828-2.7-2.828s-2.7 1.186-2.7 2.828zM84.088 5.289h3.157v1.186s.2-.401.693-.785c.493-.401 1.278-.784 2.464-.784s1.752.2 2.573 1.076c.237.238.474.548.675.931a4.1 4.1 0 0 1 .821-.967c.675-.602 1.588-1.022 2.756-1.022s2.062.182 2.974 1.131c1.058 1.114 1.223 1.862 1.223 4.344v6.13h-3.376v-5.966c0-.457 0-1.077-.22-1.57-.2-.529-.62-.912-1.496-.912-.875 0-1.405.42-1.624.93-.255.512-.255 1.077-.255 1.388v6.13h-3.376v-6.094c0-.31 0-.894-.2-1.387-.22-.53-.621-.949-1.479-.949s-1.423.438-1.66.986c-.256.547-.256 1.15-.256 1.496v5.967h-3.376V5.29zM116.387 5.435a6.2 6.2 0 0 0-1.697-1.624c-.967-.675-2.153-1.059-3.503-1.059-3.285 0-6.168 2.5-6.168 6.241s2.883 6.314 6.186 6.314 2.993-.547 4.033-1.35c1.058-.821 1.788-1.953 2.025-3.139h-7.482V9.45h9.435c-.018.875-.219 1.952-.675 2.883-1.296 2.81-4.307 4.452-7.336 4.452-4.398 0-7.865-3.357-7.865-7.773s3.558-7.72 7.92-7.72c4.361 0 5.875 1.698 7.062 4.143h-1.9349999999999998M121.369 5.636h1.424v1.77c.784-1.624 2.208-2.044 3.503-2.08v1.478h-.146c-2.117 0-3.285 1.313-3.285 3.777v5.93h-1.478V5.637zM126.879 11.055c0-3.029 2.281-5.73 5.803-5.73s5.821 2.683 5.821 5.749-2.281 5.73-5.821 5.73-5.803-2.665-5.803-5.73zm1.496.037c0 2.463 1.88 4.325 4.307 4.325s4.306-1.862 4.306-4.343c0-2.482-1.879-4.343-4.306-4.343s-4.307 1.86-4.307 4.343zM150.802 16.512h-1.423v-1.935c-.602 1.424-2.099 2.263-4.051 2.245-3.413-.055-4.617-2.372-4.617-5.018V5.636h1.478v5.876c0 2.335 1.058 3.923 3.522 3.905 2.281-.018 3.577-1.369 3.577-3.632v-6.15h1.496v10.877zM153.74 5.636h1.424v2.262c.894-1.569 2.481-2.573 4.58-2.573 3.686 0 5.602 2.975 5.602 5.785s-2.208 5.694-5.602 5.694-3.978-1.387-4.489-2.537v6.35h-1.497V5.636zm10.11 5.42c0-2.044-1.442-4.344-4.398-4.344s-2.299.493-3.084 1.278a4.5 4.5 0 0 0-1.223 3.12c0 1.241.475 2.3 1.259 3.102.767.767 1.88 1.241 3.084 1.241 2.464 0 4.362-1.861 4.362-4.343z"></path></svg>