<svg xmlns="http://www.w3.org/2000/svg" width="117" height="28" fill="none" viewBox="0 0 117 28" aria-labelledby="Fidelity" style="color: currentcolor;"><path fill="currentColor" d="M7.409 21.53H.063L5.987.437h15.107l-1.48 4.977H11.91l-.948 3.614h7.702l-1.303 4.62H9.66zM24.47 21.53h-7.286l4.324-15.404h7.287zm4.74-16.885h-7.287L23.108.438h7.287zM43.429 21.53H36.26l.534-1.719c-1.422 1.363-3.318 2.133-5.273 2.074-2.37 0-3.851-1.126-3.851-3.555a22.6 22.6 0 0 1 2.607-9.36c1.125-2.015 3.258-3.259 5.569-3.14 2.073 0 3.614.888 4.206 2.014L42.066.379h7.287zm-5.51-10.843c-.77-.059-1.422.415-1.659 1.126a9.5 9.5 0 0 0-1.007 3.851c0 .592.474 1.066 1.067 1.126h.059c.415 0 .889-.119 1.244-.356l1.481-5.036c-.296-.473-.71-.71-1.185-.71M64.046 14.775H53.974c-.236.652-.355 1.363-.414 2.015-.06.533.296 1.007.83 1.125h.236c1.007 0 1.481-.415 1.896-1.896h7.169c-.89 4.385-6.103 5.866-9.302 5.866-4.325 0-7.702-.593-7.702-4.8.178-2.902 1.067-5.687 2.666-8.056 1.837-2.43 5.036-3.318 7.998-3.318 4.503 0 7.465.948 7.465 4.799-.118 1.422-.355 2.903-.77 4.265m-7.287-5.154c-.889 0-1.54.592-1.896 2.192h3.022q.177-.532.177-1.066c-.059-.889-.533-1.126-1.303-1.126M71.393 21.53h-7.346L69.97.437h7.287zM80.99 21.53h-7.287l4.325-15.404h7.287zm4.74-16.885h-7.347L79.568.438h7.287zM98.822 6.066l.652 3.496h-5.57l-1.658 5.865c-.118.474-.237.889-.237 1.363 0 .71.296.888 1.244.888h1.54l-1.066 3.792H87.21c-2.132 0-2.962-1.066-2.962-2.607 0-.71.118-1.48.296-2.133l3.97-14.04H95.8l-.948 3.436h3.97z"></path><path fill="currentColor" d="m108.716 6.066-3.969 8.532.118-8.532H97.46l1.422 15.404c-.178.889-.475 1.422-1.067 1.659a5.9 5.9 0 0 1-2.488.177h-.119l-1.185 4.207H99c2.962 0 4.384-1.481 6.458-4.74l10.604-16.707z"></path><path fill="#000" d="M110.128 18.35c.89-.238 1.929.13 2.416.93.643.985.351 2.482-.671 3.09-.987.65-2.484.31-3.057-.738-.508-.85-.35-2.022.339-2.724.262-.276.61-.455.973-.557m.147.363c-1.088.218-1.662 1.578-1.193 2.553.268.666.989 1.08 1.693 1.055a1.74 1.74 0 0 0 1.439-.857c.422-.702.341-1.688-.244-2.274a1.8 1.8 0 0 0-1.695-.477"></path><path fill="#000" d="M109.773 19.313c.535.027 1.087-.066 1.608.093.525.178.54 1.086-.023 1.227.391.176.355.662.416 1.018a33 33 0 0 1-.616-.023c-.046-.222-.051-.458-.152-.663-.179-.151-.432-.078-.643-.092q-.001.38.001.761-.297.01-.592.002c.001-.774-.002-1.549.001-2.323m.592.49q-.004.302-.001.608c.218-.01.457.03.661-.07.189-.09.171-.404-.021-.48-.201-.087-.428-.05-.639-.059"></path></svg>