<svg xmlns="http://www.w3.org/2000/svg" width="64" height="51" fill="none" viewBox="0 0 64 51" aria-labelledby="Sundance Institute" style="color: currentcolor;"><path fill="currentColor" d="M.074.946H.08L.074.952z"></path><path fill="currentColor" d="M22.532 2.015c2.128-.106 4.27.035 6.353.488a23.44 23.44 0 0 1 10.376 5.143c4.381 3.717 7.312 9.103 8.036 14.8.725 5.305-.445 10.838-3.249 15.4a23.7 23.7 0 0 1-7.225 7.44c-3.885 2.551-8.547 3.92-13.196 3.819-2.43.01-4.845-.435-7.151-1.187a23.6 23.6 0 0 1-10.228-6.785C2.542 36.948.382 31.402.38 25.807c-.092-4.392 1.14-8.79 3.427-12.536A23.6 23.6 0 0 1 9.028 7.29c3.796-3.126 8.6-4.985 13.504-5.274m6.465 17.818c-.004.866.004 1.733-.004 2.599-.526-.57-1.31-.914-2.089-.867-.875.007-1.693.515-2.19 1.218a4.26 4.26 0 0 0-.754 2.19c-.07 1.194.066 2.465.738 3.488a2.71 2.71 0 0 0 2.38 1.235c.808.028 1.576-.4 2.097-.999q.05.417.09.835c.532-.007 1.064-.003 1.597-.003v-9.694c-.621 0-1.243.003-1.864-.002M2.02 21.939c-1.187.62-1.457 2.422-.52 3.37.623.661 1.536.882 2.354 1.203.316.131.656.262.878.535.156.212.143.506.04.738-.246.422-.786.578-1.247.506-.68-.108-1.21-.596-1.614-1.124-.408.331-.841.627-1.26.943.402.57.933 1.067 1.588 1.328 1.043.395 2.277.365 3.267-.168 1.249-.704 1.375-2.67.321-3.602-.712-.648-1.692-.825-2.549-1.203-.322-.148-.705-.401-.648-.81-.008-.468.51-.693.909-.7.636-.04 1.163.4 1.58.828.401-.342.804-.682 1.194-1.036-1.031-1.176-2.91-1.56-4.293-.808m15.84.586q.006-.403.007-.805c-.58 0-1.158.004-1.738-.002-.008 2.604 0 5.207-.002 7.811q.934-.002 1.87 0c-.003-1.803 0-3.605-.002-5.406-.033-.292.245-.463.448-.61.502-.355 1.167-.552 1.767-.35.435.243.463.791.487 1.233l-.001 5.132 1.883.001c-.003-1.832.002-3.663-.003-5.495-.013-.746-.23-1.558-.842-2.037-.568-.451-1.34-.496-2.03-.39-.68.152-1.273.536-1.844.918m14.957.476c.403.306.814.601 1.206.922.288-.324.577-.679 1.002-.826.533-.223 1.245-.223 1.664.225.325.313.155.804.196 1.201-.78.135-1.576.228-2.324.506-.651.223-1.291.566-1.71 1.128-.513.713-.613 1.712-.2 2.496.333.669 1.082 1.066 1.818 1.042.894.047 1.769-.288 2.484-.809.067.208.106.422.136.638.604.013 1.208-.005 1.812.012-.154-.674-.094-1.367-.105-2.05-.006-1.026.01-2.053-.009-3.078-.073-.78-.167-1.666-.805-2.207-.78-.668-1.89-.683-2.861-.605-.893.176-1.818.599-2.304 1.405m9.538-.454a30 30 0 0 1-.004-.826q-.87.002-1.739-.001-.002 3.904 0 7.81c.634-.005 1.269.004 1.902-.006.007-1.86-.01-3.722.009-5.582.451-.643 1.35-.996 2.125-.8.413.164.541.662.542 1.067.007 1.773.001 3.546.003 5.32q.96 0 1.92-.002c-.034-1.832-.003-3.667-.02-5.5-.017-.626-.168-1.281-.583-1.769-.405-.478-1.048-.712-1.666-.695-.932-.05-1.762.461-2.49.984M7.9 21.727c.008 1.828.001 3.658.004 5.487.012.624.16 1.284.574 1.77.404.496 1.062.724 1.688.71.926.038 1.756-.465 2.48-.988q.003.411.003.826c.58-.007 1.16-.001 1.741-.005.002-2.6-.006-5.2.004-7.8-.636-.013-1.272-.004-1.908-.004.001 1.875-.002 3.75.001 5.626-.508.559-1.277.94-2.044.793-.451-.095-.632-.612-.632-1.024-.007-1.798-.002-3.596-.003-5.394-.636-.003-1.271-.007-1.908.002m-4.31 8.93q-.005.437-.003.876.444 0 .887-.002c-.019-.275.051-.578-.035-.835-.257-.095-.57-.017-.849-.04m10.817-.003q-.007.44-.004.88h.858q0-.44-.003-.879zm-2.205.33q.009.595-.002 1.19l-.48-.005v.73l.485-.004c.007.724-.011 1.447.007 2.17.038.256.069.576.321.718.394.24.884.175 1.312.074a66 66 0 0 1-.005-.745c-.18.082-.376.1-.571.11-.06-.085-.166-.155-.157-.27-.01-.685-.002-1.371 0-2.057l.73.003v-.727l-.73.002c-.004-.4-.002-.8-.003-1.2q-.453-.004-.907.01m4.035.001c.04.381.017.765.032 1.148a4 4 0 0 1-.52.046l-.001.713q.26.007.519.031c-.014.682-.003 1.364-.008 2.046.002.288.025.643.297.812.395.242.891.184 1.32.075q-.007-.375-.011-.748c-.176.091-.372.104-.565.115-.224-.18-.154-.479-.163-.73.003-.532 0-1.065.002-1.598q.364 0 .73.004 0-.363.004-.725a64 64 0 0 0-.733-.001c-.003-.4-.001-.8-.002-1.202-.301 0-.601 0-.901.014m6.029-.014q0 .6-.004 1.202h-.527l-.002.722.532.001c.005.783-.009 1.566.004 2.349a.62.62 0 0 0 .316.557c.39.217.861.154 1.277.06q-.007-.377-.01-.753c-.177.091-.374.106-.57.106q-.081-.104-.162-.205c.008-.704.002-1.409.005-2.115q.363 0 .731.004v-.73q-.367.003-.73.004-.004-.6-.001-1.202-.43.003-.86 0M3.588 32.172c-.002 1.228.003 2.456-.002 3.684q.443.002.883.001c.016-1.226.003-2.453.008-3.68a36 36 0 0 0-.889-.005m1.697.02c.01 1.218.005 2.438.003 3.658q.454.01.909.009-.003-1.335 0-2.67c.287-.26.704-.444 1.087-.289.14.15.197.36.186.565-.002.797.001 1.594-.002 2.392h.894c-.007-.83 0-1.66-.004-2.49-.004-.44-.13-.953-.561-1.161-.572-.236-1.197-.013-1.663.343l.005-.377a9 9 0 0 0-.854.02m4.222.043c-.537.251-.773.982-.436 1.483.354.563 1.116.556 1.6.94.214.158.033.416-.104.557-.475.18-.902-.133-1.194-.478q-.283.226-.585.428c.425.72 1.396.965 2.144.636.712-.248.84-1.322.28-1.788-.378-.337-.913-.374-1.331-.636-.19-.089-.127-.31-.114-.473.389-.29.848-.052 1.134.26q.292-.248.57-.51c-.492-.526-1.302-.688-1.964-.42m4.897-.066v3.69q.43-.003.86 0c-.003-1.23 0-2.46-.003-3.69q-.428.006-.857 0m3.911.002c.002.837-.002 1.675.001 2.513.008.468.181 1.041.683 1.186.548.219 1.121-.08 1.553-.41l-.016.397q.409 0 .817.002v-3.69q-.445.004-.887.004c.007.878-.01 1.755.01 2.633-.237.288-.61.434-.98.408l-.23-.21c-.109-.94-.023-1.89-.05-2.834q-.45.004-.9.001m6.495.142c-.443.261-.662.765-.75 1.25-.077.624-.018 1.306.373 1.822.66.873 2.181.685 2.725-.226-.226-.132-.448-.272-.689-.376-.252.36-.796.594-1.18.298-.318-.197-.33-.598-.352-.928q1.1-.004 2.2 0c-.007-.387.028-.798-.15-1.155-.19-.452-.614-.838-1.117-.874-.36-.027-.752-.02-1.06.19" opacity="0.2"></path><path fill="currentColor" d="M26.075 24.073c.21-.528.705-.949 1.285-.98.621-.082 1.202.238 1.637.654-.004 1.245.002 2.489-.003 3.733-.296.246-.583.534-.966.637-.54.133-1.173.047-1.574-.367-.419-.413-.537-1.014-.628-1.57-.07-.709-.01-1.44.249-2.107M34.62 26.61c.62-.548 1.488-.62 2.26-.805.007.562 0 1.125.005 1.689-.58.4-1.237.93-1.99.775-.703-.216-.794-1.206-.275-1.659M24.928 33.54c-.017-.418.321-.82.756-.774.396.03.618.413.652.775q-.704.007-1.408-.002" opacity="0.2"></path><path fill="currentColor" d="M28.997 19.833c.622.006 1.243.003 1.865.002v9.694c-.533 0-1.066-.004-1.597.003a36 36 0 0 0-.09-.835c-.52.599-1.289 1.027-2.097.999a2.71 2.71 0 0 1-2.38-1.235c-.673-1.022-.808-2.293-.738-3.488a4.26 4.26 0 0 1 .754-2.19c.496-.703 1.315-1.21 2.19-1.218.778-.047 1.562.297 2.089.867.008-.866 0-1.733.004-2.6m-2.922 4.24c-.259.666-.319 1.398-.249 2.107.09.557.21 1.157.628 1.57.401.414 1.034.5 1.574.367.383-.103.67-.39.966-.636.005-1.245 0-2.49.003-3.734-.434-.416-1.016-.736-1.636-.653-.58.03-1.076.451-1.286.98M2.02 21.94c1.382-.754 3.261-.369 4.293.807-.39.354-.793.694-1.194 1.036-.417-.429-.944-.869-1.58-.829-.399.008-.918.233-.91.7-.056.41.327.663.648.812.857.377 1.838.554 2.55 1.202 1.053.931.927 2.898-.321 3.602-.99.533-2.225.563-3.268.168-.654-.261-1.186-.758-1.588-1.328.42-.316.853-.612 1.26-.943.404.527.935 1.016 1.614 1.124.462.072 1.001-.084 1.247-.506.104-.232.117-.526-.04-.738-.222-.273-.562-.404-.878-.535-.818-.321-1.73-.542-2.354-1.204-.936-.947-.666-2.75.52-3.369M17.86 22.525c.571-.382 1.164-.766 1.844-.918.69-.106 1.462-.061 2.03.39.611.479.829 1.291.842 2.037.005 1.832 0 3.663.003 5.495h-1.884l.001-5.133c-.023-.442-.051-.99-.487-1.232-.6-.203-1.264-.006-1.766.35-.204.146-.481.317-.449.609.003 1.801 0 3.603.003 5.405l-1.87.001c.001-2.604-.006-5.207.002-7.811.58.006 1.158.003 1.737.002q0 .402-.006.805M32.817 23.001c.486-.806 1.411-1.229 2.304-1.405.97-.078 2.081-.063 2.86.605.639.541.733 1.426.806 2.207.02 1.025.003 2.052.008 3.078.012.683-.048 1.376.106 2.05-.605-.017-1.208 0-1.812-.012-.03-.216-.07-.43-.136-.638-.715.52-1.59.856-2.485.809-.735.024-1.485-.373-1.816-1.042-.414-.784-.314-1.783.2-2.496.417-.562 1.058-.905 1.709-1.128.748-.278 1.543-.37 2.324-.506-.04-.397.128-.888-.196-1.201-.42-.448-1.13-.448-1.664-.225-.425.147-.715.502-1.002.826-.392-.321-.803-.616-1.206-.922m1.804 3.61c-.519.452-.427 1.441.275 1.658.753.155 1.41-.374 1.99-.775-.005-.564.002-1.127-.005-1.69-.772.187-1.64.258-2.26.806M42.355 22.547c.727-.523 1.558-1.035 2.49-.984.617-.017 1.26.217 1.665.695.415.488.566 1.143.584 1.77.016 1.832-.015 3.667.019 5.5h-1.92c-.002-1.773.004-3.546-.003-5.32 0-.404-.129-.902-.542-1.067-.775-.195-1.674.158-2.125.801-.019 1.86-.002 3.722-.009 5.583-.633.009-1.268 0-1.902.004q-.002-3.904 0-7.81c.58.004 1.16.002 1.739.002q-.004.412.004.826M49.795 22.187c.841-.654 1.998-.754 3.005-.506.978.252 1.81 1.007 2.099 1.983-.52.204-1.053.381-1.56.614-.189-.45-.457-.928-.942-1.104-.383-.122-.817-.136-1.19.02-.492.221-.735.758-.828 1.259a7.3 7.3 0 0 0 .024 2.463c.101.389.276.796.624 1.025.366.261.853.277 1.278.178.57-.173.95-.683 1.208-1.193q.725.39 1.43.816c-.43.825-1.102 1.587-2.034 1.825-.975.244-2.085.182-2.947-.378-.707-.455-1.17-1.221-1.37-2.027-.233-.773-.194-1.594-.143-2.39.137-.974.528-1.986 1.346-2.585M56.52 23.104a3.05 3.05 0 0 1 2.346-1.523c.534-.033 1.094-.048 1.596.168.954.328 1.62 1.211 1.888 2.158.224.656.176 1.358.182 2.039q-2.362.002-4.723 0c.032.658.111 1.399.637 1.863.415.407 1.05.429 1.584.293.477-.132.814-.513 1.153-.85.449.266.878.566 1.337.814-.434.845-1.323 1.38-2.242 1.548-.95.158-2.008.14-2.826-.432-.9-.606-1.349-1.68-1.482-2.726-.112-1.135-.038-2.346.55-3.352m1.59.456c-.238.312-.257.712-.31 1.084 1.003.03 2.006.02 3.008.005-.029-.514-.172-1.077-.6-1.404-.632-.489-1.651-.359-2.099.315M7.902 21.726c.637-.009 1.272-.005 1.908-.002 0 1.798-.004 3.596.003 5.394 0 .412.18.929.632 1.024.768.148 1.536-.234 2.044-.793-.003-1.876 0-3.75 0-5.626.635 0 1.271-.009 1.907.004-.01 2.6-.002 5.2-.004 7.8-.58.004-1.16-.002-1.741.005q0-.414-.004-.826c-.723.523-1.553 1.026-2.48.989-.624.013-1.283-.215-1.687-.71-.413-.487-.562-1.146-.574-1.77-.003-1.83.004-3.66-.004-5.489M3.591 30.656c.279.023.592-.055.849.04.087.256.017.56.035.835q-.443.004-.887.002 0-.439.003-.877M14.409 30.654l.851.001q.005.439.003.879h-.858q-.002-.44.004-.88M12.204 30.983q.452-.014.906-.01 0 .6.003 1.2.366 0 .73-.002v.727l-.73-.003c0 .686-.01 1.372 0 2.057-.008.116.097.185.157.27.195-.01.392-.027.572-.11q0 .373.005.745c-.428.101-.918.167-1.312-.074-.253-.142-.284-.462-.322-.717-.018-.724 0-1.447-.006-2.17l-.486.003v-.73l.48.006q.01-.595.003-1.192M16.239 30.985c.3-.014.6-.014.9-.014.002.401 0 .801.003 1.202l.733.001a63 63 0 0 0-.003.725 64 64 0 0 0-.731-.004c-.002.533.002 1.066-.002 1.599.01.25-.061.548.163.729.193-.01.39-.024.565-.115q.005.375.011.748c-.429.109-.925.167-1.32-.075-.272-.169-.295-.524-.297-.812.005-.682-.005-1.364.008-2.046a7 7 0 0 0-.519-.031v-.713c.175-.005.349-.017.52-.046-.014-.383.009-.767-.031-1.148M22.267 30.971q.43.003.859 0-.002.601 0 1.202.366.001.73-.004.002.364.002.73a64 64 0 0 0-.732-.004c-.003.706.004 1.41-.005 2.115l.163.205c.195 0 .392-.015.57-.106q.003.376.01.753c-.416.094-.888.157-1.277-.06a.62.62 0 0 1-.316-.557c-.013-.783 0-1.566-.005-2.349h-.532l.002-.724.527.001c.005-.4.003-.802.004-1.202M3.588 32.172q.444-.002.889.006c-.005 1.226.008 2.453-.008 3.68q-.442 0-.883-.002c.005-1.228 0-2.456.002-3.684M5.285 32.192c.284-.024.568-.024.853-.02l-.004.377c.466-.356 1.09-.579 1.662-.343.431.208.557.72.562 1.16.005.83-.004 1.66.004 2.491h-.895c.004-.798 0-1.595.003-2.392a.76.76 0 0 0-.187-.565c-.382-.155-.799.03-1.087.289q-.003 1.335 0 2.67c-.302 0-.605 0-.908-.01.002-1.219.007-2.438-.003-3.657M9.508 32.235c.661-.268 1.472-.107 1.964.419q-.278.262-.57.51c-.286-.312-.746-.55-1.134-.26-.014.163-.075.384.114.473.417.262.953.299 1.33.636.561.466.433 1.54-.279 1.788-.749.33-1.719.084-2.144-.635q.302-.203.585-.43c.292.346.719.659 1.194.48.137-.142.318-.4.104-.559-.484-.383-1.246-.376-1.6-.939-.337-.501-.1-1.232.436-1.483M14.405 32.17q.43.005.857 0c.003 1.23 0 2.46.002 3.689a54 54 0 0 0-.86.001zM18.317 32.171q.45.003.9 0c.028.943-.058 1.894.05 2.833l.23.21c.37.026.743-.12.98-.408-.02-.878-.003-1.755-.01-2.633q.442.001.887-.004v3.69q-.409-.003-.817-.002l.016-.396c-.432.329-1.005.628-1.552.41-.502-.146-.676-.72-.684-1.187-.002-.838.001-1.675 0-2.513M24.81 32.313c.309-.21.702-.216 1.061-.189.503.036.928.422 1.117.874.178.357.143.768.15 1.155q-1.1-.004-2.2 0c.021.33.034.731.351.928.385.296.93.062 1.181-.298.24.104.463.244.69.376-.545.911-2.065 1.1-2.726.226-.39-.516-.45-1.198-.374-1.821.089-.486.308-.99.75-1.25m.12 1.226q.705.01 1.408.002c-.034-.361-.256-.745-.652-.775-.435-.045-.773.356-.756.773"></path></svg>