<svg xmlns="http://www.w3.org/2000/svg" width="187" height="21" fill="none" viewBox="0 0 187 21" aria-labelledby="Martha Stewart" style="color: currentcolor;"><path fill="currentColor" d="m7.64 20.162-2.113-.133v-9.922c1.478-1.526 2.15-2.035 3.187-2.035 1.42 0 2.051.853 2.051 2.765v9.193l-1.611.133v.435h6.679v-.436l-2.115-.133v-9.795c1.233-1.535 2.158-2.162 3.188-2.162 1.419 0 2.051.853 2.051 2.765v9.193l-1.61.133v.435h6.677v-.436l-2.114-.133v-9.033c0-2.537-1.307-4.052-3.497-4.052-1.842 0-3.271.791-4.773 2.643h-.098c-.377-1.681-1.584-2.643-3.32-2.643-2.005 0-3.234.91-4.558 2.378h-.136V6.944h-.36l-4.385.263-.084.005v.437h1.877v12.379l-2.14.132v.437H7.64v-.435"></path><path fill="currentColor" fill-rule="evenodd" d="M25.111 17.946c0-1.858 1.94-2.795 3.839-3.466l3.48-1.17v-3.186c0-1.742-.786-2.553-2.473-2.553-.921 0-2.198.462-2.872 1.035v.134c1.15.01 1.666.727 1.666 1.437 0 .742-.493 1.49-1.595 1.49-.836 0-1.516-.68-1.516-1.517 0-1.678 2.549-3.206 5.347-3.206 2.835 0 4.396 1.241 4.396 3.497v9.715h2.113v.437l-4.71.27h-.356V19.41h-.148c-1.435.963-2.453 1.452-4.016 1.452-1.916 0-3.155-1.144-3.155-2.916m7.32.922v-5.103l-2.234.804c-1.535.56-2.134 1.308-2.134 2.664 0 1.295.868 2.13 2.21 2.13.788 0 1.418-.143 2.158-.495" clip-rule="evenodd"></path><path fill="currentColor" d="m45.42 20.162-2.113-.133v-8.141c.803-1.79 1.421-2.817 2.06-3.419h.147c.115 1.198.95 1.745 1.694 1.745.78 0 1.622-.533 1.622-1.702 0-.88-.747-1.568-1.702-1.568-1.335 0-2.478 1.084-3.7 3.515h-.121V6.944h-.359l-4.386.264-.083.004v.437h1.876v12.379l-2.14.132v.437h7.206zm6.374-2.56c0 2.224.918 3.26 2.89 3.26 1.265 0 2.375-.28 3.712-.934l.05-.024v-.452l-.123.05c-.809.33-1.384.469-1.922.469-1.02 0-1.655-.423-1.655-2.528v-9.66h3.7v-.575h-3.7v-3.17h-.396L51.84 7.21l-2 .135v.436h1.957v9.82zm15.105 2.56-2.113-.133v-9.922c1.51-1.558 2.296-2.034 3.347-2.034 1.452 0 2.158.904 2.158 2.764v9.193l-1.612.133v.435h6.677v-.436l-2.113-.133v-9.033c0-2.537-1.307-4.052-3.497-4.052-1.816 0-3.26.711-4.82 2.378h-.14V1.13h-.358l-4.386.264-.084.006v.437h1.877v18.192l-2.14.132v.437h7.204z"></path><path fill="currentColor" fill-rule="evenodd" d="M76.445 17.946c0-1.858 1.94-2.795 3.838-3.466l3.48-1.17v-3.186c0-1.742-.786-2.553-2.473-2.553-.92 0-2.197.462-2.871 1.035v.134c1.15.01 1.665.727 1.665 1.437 0 .742-.493 1.49-1.595 1.49-.836 0-1.515-.68-1.515-1.517 0-1.678 2.548-3.206 5.347-3.206 2.834 0 4.395 1.241 4.395 3.497v9.715h2.114v.437l-4.71.27h-.355V19.41h-.15c-1.434.963-2.452 1.452-4.015 1.452-1.917 0-3.155-1.144-3.155-2.916m7.32.922v-5.103l-2.234.804c-1.535.56-2.135 1.308-2.135 2.664 0 1.295.868 2.13 2.21 2.13.79 0 1.418-.143 2.159-.495" clip-rule="evenodd"></path><path fill="currentColor" d="M101.705 12.157c-1.327-.516-2.744-1.2-2.744-2.772 0-1.22.93-2.105 2.209-2.105.759 0 1.468.286 2.105.847.719.72 1.274 1.65 1.696 2.846l.021.059h.416v-4.22h-.434l-.124 1.272c-1.439-1.048-2.804-1.272-3.706-1.272-2.834 0-4.74 1.523-4.74 3.788 0 2.222 1.387 3.236 3.621 4.152 1.674.731 3.118 1.363 3.118 3.01 0 1.497-1.07 2.501-2.66 2.501-.86 0-1.593-.362-2.18-1.08-.575-.65-1.071-1.507-1.516-2.617l-.021-.055h-.414v4.22h.434l.124-1.35c.88.637 2.25 1.35 3.971 1.35 3.056 0 5.109-1.66 5.109-4.131 0-2.477-2.027-3.515-4.285-4.443m10.624-8.251h-.396l-2.512 3.174-2 .134v.435h1.956v9.821c0 2.224.918 3.26 2.89 3.26 1.265 0 2.375-.28 3.713-.934l.049-.024v-.451l-.122.05c-.809.328-1.385.469-1.922.469-1.022 0-1.655-.424-1.655-2.528V7.65h3.699v-.573h-3.699V3.906z"></path><path fill="currentColor" fill-rule="evenodd" d="M124.658 18.677c1.752 0 3.39-1.158 3.963-2.278l.024-.048h.432l-.027.11c-.494 2.056-2.37 4.268-5.318 4.268-1.987 0-3.665-.725-4.856-2.1-1.084-1.25-1.681-2.957-1.681-4.804 0-4.604 3.381-7.013 6.721-7.013 2.42 0 5.005 1.197 5.005 4.554 0 .36-.041.78-.133 1.362l-.013.074h-8.679c.031 3.464 1.898 5.875 4.562 5.875m-4.504-6.317 5.643-.129c.125-.691.224-1.312.225-1.868 0-2.291-1.155-3.108-2.236-3.108-2.097 0-3.418 1.86-3.632 5.105" clip-rule="evenodd"></path><path fill="currentColor" d="M152.093 7.497v-.42H147v.417l2.093.654-2.994 9.737h-.133L142.82 7.644l2.134-.127.084-.003v-.437h-7.207v.434l1.609.133 1.003 2.957-2.271 7.284h-.135l-3.484-10.243 1.844-.13v-.435h-6.836v.434l1.584.134 4.736 12.894.021.059h1.899l2.556-8.068.341-1.09 3.11 9.098.02.06h1.9l3.942-12.435 2.358-.648z"></path><path fill="currentColor" fill-rule="evenodd" d="M157.736 6.813c2.834 0 4.395 1.242 4.395 3.497v9.715h2.114v.436l-.083.005-4.628.263h-.355v-1.453h-.149c-1.433.964-2.451 1.453-4.015 1.453-1.917 0-3.156-1.144-3.156-2.915 0-1.857 1.941-2.794 3.839-3.466l3.481-1.168V9.993c0-1.742-.786-2.554-2.473-2.554-.921 0-2.198.462-2.872 1.036v.134c1.15.009 1.665.725 1.665 1.436 0 .742-.493 1.49-1.594 1.49-.836 0-1.516-.68-1.516-1.516 0-1.677 2.548-3.206 5.347-3.206m1.442 11.923v-5.102l-2.233.802c-1.536.562-2.134 1.31-2.134 2.666 0 1.293.866 2.13 2.209 2.13.789 0 1.417-.144 2.158-.496" clip-rule="evenodd"></path><path fill="currentColor" d="M174.406 6.812c-1.338 0-2.479 1.085-3.702 3.515h-.121V6.812h-.357l-4.47.27v.436h1.876v12.38l-2.14.131v.436h7.205v-.436l-2.114-.132v-8.142c.803-1.79 1.422-2.817 2.06-3.419h.147c.115 1.198.951 1.745 1.695 1.745.78 0 1.62-.532 1.62-1.701.001-.878-.745-1.568-1.699-1.568m11.37.838v-.573h-3.7V3.906h-.397l-2.511 3.174-1.999.134v.435h1.955v9.821c0 2.224.918 3.26 2.89 3.26 1.266 0 2.376-.28 3.712-.934l.051-.024v-.451l-.124.05c-.808.328-1.382.469-1.921.469-1.022 0-1.655-.424-1.655-2.528V7.65z"></path></svg>