<svg xmlns="http://www.w3.org/2000/svg" width="88" height="21" fill="none" viewBox="0 0 88 21" aria-labelledby="South by Southwest" style="color: currentcolor;"><path fill="currentColor" d="M3.968 1.912c1.29-.708 2.798-.925 4.253-.845a8.4 8.4 0 0 1 2.42.461c1.02.363 1.959.989 2.622 1.85.667.85 1.063 1.89 1.223 2.954.099.642.114 1.294.106 1.942-1.423.002-2.847-.002-4.27.002.002-.663-.014-1.345-.258-1.971a2.3 2.3 0 0 0-.991-1.192c-.446-.246-.962-.343-1.467-.339-.35.01-.71.045-1.033.191-.361.158-.68.441-.825.814-.219.545-.208 1.209.13 1.704.288.409.751.646 1.212.807q1.523.507 3.045 1.017c.995.34 1.979.765 2.818 1.41.77.584 1.376 1.398 1.667 2.324.247.797.318 1.643.252 2.473-.048.576-.148 1.15-.349 1.694a5.24 5.24 0 0 1-1.842 2.463c-1.057.778-2.359 1.155-3.654 1.275H6.97c-.538-.074-1.078-.145-1.602-.295-1.204-.317-2.356-.952-3.145-1.932-.599-.733-.985-1.624-1.174-2.547a10 10 0 0 1-.158-1.128c-.025-.407-.008-.816-.012-1.224h4.295c-.004.567.006 1.146.184 1.69.17.556.529 1.064 1.032 1.365.576.35 1.27.44 1.934.408.491-.028 1.002-.156 1.383-.483.349-.296.518-.76.522-1.21.004-.418-.098-.863-.396-1.172-.391-.418-.95-.605-1.483-.77-.753-.241-1.51-.473-2.265-.71-.415-.135-.835-.257-1.241-.418-.9-.34-1.76-.832-2.427-1.535a4.8 4.8 0 0 1-1.062-1.817c-.186-.57-.263-1.172-.29-1.77-.046-1.136.163-2.3.71-3.306a5.46 5.46 0 0 1 2.193-2.18M35.217 1.135a10 10 0 0 1 3.033.07c.77.14 1.527.39 2.21.779a5.5 5.5 0 0 1 2.304 2.506c.553 1.175.686 2.5.647 3.785h-4.268c.007-.626-.01-1.268-.219-1.865-.175-.521-.517-.999-.998-1.277-.524-.308-1.153-.39-1.75-.347-.51.034-1.045.213-1.38.618-.395.492-.467 1.196-.254 1.781.166.439.556.747.969.942.332.156.689.249 1.033.374l1.633.544c.598.202 1.201.392 1.781.642 1.022.43 2.005 1.025 2.707 1.897.41.513.698 1.12.864 1.754.143.543.186 1.108.187 1.669a6.6 6.6 0 0 1-.405 2.291 5.24 5.24 0 0 1-1.936 2.467c-1.03.714-2.271 1.06-3.507 1.18h-1.95c-1.09-.102-2.184-.336-3.158-.851a5.36 5.36 0 0 1-2.414-2.503c-.557-1.17-.678-2.492-.649-3.771h4.3c-.01.658.017 1.34.281 1.953.211.51.602.945 1.097 1.192.58.291 1.248.359 1.889.31.478-.043.974-.19 1.328-.531.343-.33.483-.825.458-1.29-.02-.34-.103-.69-.324-.955-.31-.383-.775-.594-1.231-.746-.966-.32-1.942-.608-2.911-.916-.847-.267-1.69-.582-2.43-1.083-.933-.61-1.664-1.543-1.984-2.616a7.2 7.2 0 0 1-.07-3.787c.304-1.155.983-2.219 1.937-2.944.915-.71 2.039-1.115 3.18-1.272M67.904 1.34c1.673-.013 3.346-.002 5.02-.003v5.547c.007 1.69-.017 3.381.013 5.072 1.557-1.578 3.135-3.135 4.703-4.702q2.97-2.962 5.938-5.925c1.24 1.236 2.475 2.476 3.713 3.714l-9.392 9.37c-.432.422-.847.86-1.29 1.27 3.557.021 7.115.007 10.672.011q.002 2.507.001 5.015H67.906c-.002-6.456.004-12.912-.002-19.368"></path><path fill="currentColor" d="M14.438 1.42h5.151l2.639 5.076c.051.096.095.197.159.286.062-.078.1-.171.148-.259l2.652-5.103q2.47 0 4.94-.003c-1.76 3.085-3.543 6.159-5.297 9.248q2.839 4.973 5.666 9.953c-1.716.004-3.433-.006-5.15-.001-.209-.354-.394-.722-.594-1.081l-2.588-4.76c-.009 0-.025-.003-.033-.004q-1.563 2.922-3.124 5.846h-4.97l5.666-9.814q-2.234-3.982-4.47-7.962c-.264-.474-.536-.945-.795-1.423M43.912 1.42H48.7q1.004 6.17 2.014 12.34.06-.004.119-.023c.602-4.107 1.217-8.213 1.825-12.32h4.267c.04.01.127-.03.129.038q.912 6.152 1.822 12.303c.04-.01.123.023.121-.046q.969-5.914 1.932-11.83c.034-.151.034-.318.087-.461 1.489-.005 2.978 0 4.467-.003-.594 3.23-1.207 6.455-1.809 9.683-.596 3.173-1.185 6.347-1.786 9.519-1.777-.004-3.554 0-5.33-.003l-1.8-12.312-.114.005q-.903 6.153-1.801 12.309-2.668-.001-5.334-.001zM64.233 18.669c.415-.111.9.06 1.128.432.3.457.163 1.153-.314 1.436-.46.302-1.16.144-1.427-.343a1.07 1.07 0 0 1 .158-1.266 1 1 0 0 1 .455-.26m.068.168c-.508.101-.776.734-.557 1.187.125.31.462.502.79.49a.81.81 0 0 0 .673-.398c.197-.326.159-.785-.114-1.057a.85.85 0 0 0-.792-.222"></path><path fill="currentColor" d="M64.067 19.116c.25.013.508-.03.751.043.245.083.252.505-.01.57.182.082.165.308.193.474l-.287-.01c-.022-.104-.024-.214-.07-.31-.085-.07-.203-.035-.301-.041v.353a5 5 0 0 1-.276.001zm.277.227q-.003.142 0 .283c.1-.004.212.015.308-.032.088-.042.08-.188-.01-.223-.094-.04-.2-.023-.298-.027"></path></svg>