<svg xmlns="http://www.w3.org/2000/svg" width="61" height="51" fill="none" viewBox="0 0 61 51" aria-labelledby="Nissan" style="color: currentcolor;"><path fill="currentColor" d="M9.49 18.512C12.593 9.442 21.169 3.35 30.817 3.35s18.225 6.094 21.329 15.163l.025.075h6.79v-.812l-2.825-.328c-1.74-.203-2.113-.97-2.585-1.944l-.12-.24C49.348 6.567 40.47.947 30.81.947S12.272 6.567 8.192 15.263l-.115.236c-.471.974-.848 1.741-2.585 1.944l-2.824.332v.816h6.79zM52.163 33.306l-.025.075c-3.104 9.07-11.674 15.161-21.327 15.161-9.656 0-18.226-6.095-21.321-15.166l-.027-.075H2.668v.814l2.823.33c1.738.203 2.115.972 2.585 1.944l.114.233c4.08 8.7 12.958 14.323 22.618 14.324 9.657 0 18.536-5.621 22.618-14.316l.115-.238c.47-.97.842-1.739 2.584-1.941l2.826-.33v-.814zM14.511 22.466h-1.538v6.957h1.538zM9.568 29.421v-6.956h-1.54v5.185L2.9 22.466H.918v6.955h1.54v-5.219l5.165 5.22zM44.016 22.466l-4.344 6.955h1.867l.773-1.242h5.066l.772 1.242h1.866l-4.341-6.956zm2.567 4.395h-3.478l1.74-2.796zM35.768 27.974c-.044.007-.24.013-.318.013h-6.192v1.435h6.29c.052 0 .413 0 .502-.01 1.283-.115 1.867-1.184 1.867-2.127s-.613-1.986-1.777-2.1a5 5 0 0 0-.502-.023h-4.112a2.4 2.4 0 0 1-.457-.035.6.6 0 0 1-.442-.607.63.63 0 0 1 .453-.605 1.5 1.5 0 0 1 .43-.032h5.936v-1.419h-6.028a4 4 0 0 0-.603.032 1.996 1.996 0 0 0-1.758 2.027c0 .861.541 1.866 1.73 2.038q.323.035.647.029h4.006c.076 0 .252 0 .29.008a.695.695 0 0 1 .037 1.374M24.223 27.974a4 4 0 0 1-.318.013H17.71v1.435h6.29c.052 0 .415 0 .503-.01 1.283-.115 1.868-1.183 1.868-2.127s-.609-1.986-1.771-2.1a5 5 0 0 0-.503-.022H19.98a2.4 2.4 0 0 1-.457-.035.6.6 0 0 1-.443-.607.63.63 0 0 1 .455-.605 1.5 1.5 0 0 1 .43-.031H25.9v-1.42h-6.028a4 4 0 0 0-.603.032 2 2 0 0 0-1.758 2.027c0 .861.541 1.866 1.73 2.038q.324.036.649.029h4.005c.076 0 .25 0 .29.009a.694.694 0 0 1 .037 1.374M60.687 29.421v-6.956h-1.54v5.185l-5.128-5.184h-1.982v6.955h1.54v-5.219l5.165 5.22zM57.17 46.651a1.31 1.31 0 1 1-1.229.796 1.295 1.295 0 0 1 1.229-.796m0 2.36a1.015 1.015 0 0 0 1.014-1.052 1.02 1.02 0 1 0-1.014 1.052m-.503-.377v-1.317q.242-.045.486-.044c.237 0 .58.044.58.386a.335.335 0 0 1-.272.308v.021c.126.043.193.15.229.322q.025.172.1.329h-.3a1.1 1.1 0 0 1-.1-.33c-.05-.206-.165-.206-.436-.206v.536zm.293-.743c.222 0 .466 0 .466-.201 0-.126-.087-.208-.294-.208a.8.8 0 0 0-.172.015z"></path></svg>