<svg xmlns="http://www.w3.org/2000/svg" width="88" height="41" fill="none" viewBox="0 0 88 41" aria-labelledby="LG" style="color: currentcolor;"><path fill="currentColor" d="M76.634 23.702h4.505v4.204c-.827.317-2.45.633-3.988.633-4.983 0-6.64-2.538-6.64-7.69 0-4.919 1.577-7.813 6.556-7.813 2.774 0 4.349.874 5.653 2.539l3.443-3.173c-2.102-3.006-5.771-3.918-9.216-3.918-7.745-.003-11.817 4.235-11.817 12.323 0 8.049 3.68 12.412 11.776 12.412 3.717 0 7.35-.95 9.33-2.34V19.221h-9.602zm-23.632 4.48h11.465v4.68H47.47V8.837h5.533zM33.755 34.085c7.233-7.256 7.232-19.02 0-26.274-7.234-7.255-18.96-7.256-26.192 0-7.233 7.255-7.232 19.02 0 26.273 7.234 7.256 18.96 7.256 26.192 0"></path><path fill="currentColor" d="M15.041 17.324a2.13 2.13 0 0 0 1.967-1.33 2.15 2.15 0 0 0-.47-2.334 2.14 2.14 0 0 0-2.328-.46 2.14 2.14 0 0 0-1.317 1.98 2.15 2.15 0 0 0 1.328 1.983c.26.107.539.162.82.161m19.59 4.212h-9.419v-1.4h10.8q.021.407.021.817c0 8.427-6.847 15.258-15.29 15.258-8.444 0-15.292-6.826-15.292-15.258 0-8.43 6.846-15.258 15.29-15.258q.334 0 .666.014v1.389q-.33-.015-.664-.015c-7.675 0-13.899 6.21-13.899 13.869s6.224 13.87 13.9 13.87c7.464 0 13.563-5.876 13.886-13.247zm-9.44 5.831h-3.785V13.102h-1.4v15.674h1.403v-.01h3.785z" style="filter: invert(1);"></path></svg>