<svg xmlns="http://www.w3.org/2000/svg" width="153" height="29" fill="none" viewBox="0 0 153 29" aria-labelledby="Bloomberg" style="color: currentcolor;"><path fill="currentColor" d="M.69.946h11.143c2.123 0 3.714.53 4.894 1.412 1.297 1.059 2.004 2.588 2.004 4.47 0 2.177-.884 3.53-2.653 4.353v.118c2.358.765 3.715 2.882 3.715 5.412 0 2.411-.944 4.294-2.477 5.47-1.297.941-2.948 1.353-5.188 1.353H.689zm10.023 8.823c1.179 0 2.063-.647 2.063-2 0-1.294-.884-1.94-2.122-1.94H6.82V9.71h3.892zm.53 8.765c1.357 0 2.359-.823 2.359-2.294 0-1.588-1.062-2.294-2.359-2.294H6.88v4.647h4.363zM20.795.946h5.837v22.647h-5.837zM27.81 15.534c0-5.118 3.302-8.53 8.432-8.53s8.372 3.471 8.372 8.53c0 5.118-3.243 8.53-8.372 8.53-5.13 0-8.431-3.412-8.431-8.53m10.967 0c0-2.823-.884-4.588-2.653-4.588s-2.594 1.765-2.594 4.588.825 4.647 2.594 4.647c1.769-.059 2.653-1.823 2.653-4.647M45.264 15.534c0-5.118 3.301-8.53 8.431-8.53s8.313 3.412 8.313 8.53-3.242 8.53-8.372 8.53c-5.07 0-8.372-3.412-8.372-8.53m10.966 0c0-2.823-.884-4.588-2.653-4.588s-2.594 1.765-2.594 4.588.825 4.647 2.594 4.647c1.769-.059 2.653-1.823 2.653-4.647M63.188 7.417h5.424v2.411h.118c1.061-1.882 2.535-2.882 4.894-2.882 2.063 0 3.596 1 4.363 2.765h.118c1.297-2.118 3.007-2.765 5.011-2.765 3.774 0 5.365 2.765 5.365 6.47v10.118h-5.66v-9.117c0-1.647-.53-2.706-1.945-2.706s-2.123 1.294-2.123 3.059v8.764h-5.66v-9.117c0-1.647-.53-2.706-1.946-2.706s-2.122 1.294-2.122 3.059v8.764h-5.838zM95.616 21.417h-.059v2.117h-5.424V.946h5.66v8.118h.118c1.061-1.412 2.535-2.177 4.599-2.177 4.068 0 6.427 3.647 6.427 8.53 0 5.47-2.536 8.647-6.781 8.647-1.769 0-3.597-.824-4.54-2.648m5.483-6.06c0-2.587-.943-4.293-2.653-4.293-1.769 0-2.83 1.706-2.83 4.294s1.12 4.294 2.83 4.294 2.653-1.647 2.653-4.294M107.584 15.475c0-5.058 3.361-8.53 8.196-8.53 2.417 0 4.245.766 5.66 2.119 1.886 1.823 2.712 4.647 2.653 7.94h-10.849c.236 2 1.179 3.06 2.889 3.06 1.003 0 1.887-.471 2.241-1.53h5.483c-.943 3.706-3.832 5.53-7.901 5.53-5.011-.06-8.372-3.471-8.372-8.589m5.66-1.705h5.189c-.118-1.942-1.18-2.942-2.536-2.942-1.592-.058-2.476 1.06-2.653 2.942M130.52 10.181h.118c1.179-2.235 2.712-3.117 4.658-3.117.472 0 .766.058.943.176v4.941h-.118c-3.36-.588-5.306 1-5.306 4.647v6.765h-5.719V7.417h5.424zM136.83 23.593h5.483c.236.706.944 1.353 2.3 1.353 1.828 0 2.476-1.118 2.476-2.824v-1.176h-.118c-.884 1.059-2.122 1.823-3.891 1.823-3.479 0-6.545-2.588-6.545-7.647 0-4.647 2.476-8.235 6.25-8.235 2.182 0 3.479.882 4.363 2.235h.118V7.358h5.424v14c0 2.588-.884 4.588-2.24 5.764-1.415 1.236-3.42 1.765-5.719 1.765-4.363.059-7.37-1.706-7.901-5.294m10.495-8.706c0-2-.943-3.647-2.594-3.647-1.592 0-2.595 1.412-2.595 3.647 0 2.177 1.003 3.706 2.595 3.706s2.594-1.588 2.594-3.706"></path></svg>