<svg xmlns="http://www.w3.org/2000/svg" width="117" height="39" fill="none" viewBox="0 0 117 39" aria-labelledby="Xfinity" style="color: currentcolor;"><path fill="currentColor" d="M13.844 19.836 21.26 9.23h-5.438l-4.587 6.763L6.653 9.23H1.209l7.41 10.606L.69 31.202h5.442l5.104-7.526 10.605 15.27h5.22zM116.689 9.23h-5.119l-7.609 14-5.205-14h-4.919l7.311 19.157-5.656 10.559h5.009zm-90.776 0h-2.238l-2.594 3.736h4.832v18.236h4.744V12.966h4.84V9.23h-4.84V7.103c0-1.606.666-2.26 2.276-2.26.925 0 1.884.183 2.564.368V1.364c-.972-.352-2.322-.58-3.785-.58-3.633 0-5.799 2.395-5.799 6.39zm57.103 3.736v12.281c0 4.008 2.161 6.383 5.787 6.383 1.203 0 2.398-.146 3.302-.428l.573-3.813c-.272.068-1.265.308-2.143.308-1.974 0-2.787-.798-2.787-2.777V12.966h5.453L91.784 9.23h-4.036V1.296L83.015 3.72v5.51h-3.452v3.735zM58.634 8.792c-2.231 0-4.36.943-5.462 2.422V9.23h-4.744v21.972h4.744V18.38c0-3.562 1.527-5.53 4.308-5.53 3.02 0 4.309 1.78 4.309 5.946v12.407h4.732V18.628c0-6.439-2.719-9.836-7.887-9.836M43.36 29.968V9.23h-4.744v21.972h4.744zm32.777 0V9.23h-4.764v21.972h4.764zM112.681 29.805c.338 0 .535-.166.535-.425v-.014c0-.276-.197-.425-.535-.425h-.675v.864zm-1.191-1.335h1.212c.358 0 .64.11.827.297.141.136.22.331.22.57v.014c0 .44-.257.717-.632.825l.731 1.032h-.617l-.659-.943h-.566v.943h-.516zm3.372 1.445v-.017c0-1.293-.999-2.34-2.32-2.34-1.326 0-2.328 1.062-2.328 2.357v.013c0 1.297.994 2.342 2.313 2.342 1.331 0 2.335-1.062 2.335-2.355m-4.922.013v-.013c0-1.422 1.148-2.617 2.602-2.617a2.59 2.59 0 0 1 2.592 2.6v.017a2.615 2.615 0 0 1-2.607 2.616 2.59 2.59 0 0 1-2.587-2.603"></path></svg>