<svg xmlns="http://www.w3.org/2000/svg" width="59" height="41" fill="none" viewBox="0 0 59 41" aria-labelledby="Whole Foods" style="color: currentcolor;"><path fill="currentColor" d="M26.92 5.011c.262 0 .428-.264.594-.673.215-.505 1.213-1.442 2.59-1.442 1.046 0 2.069.65 2.9 1.323.785.648 1.426.672 1.426.962 0 .095-.166.167-.356.167-.784 0-2.162-1.177-3.636-1.177-1.665 0-3.019 1.44-3.019 2.259 0 .24.095.432.404.432.357 0 .76-.865 1.687-.865.856 0 1.57.817 2.757.649.143-.024.19.192.094.24-2.376 1.346-4.894 2.62-4.894 6.876 0 3.269 1.83 6.418 5.869 6.418 4.208 0 6.228-2.74 6.228-6.418 0-3.174-1.925-6.105-4.516-6.105-.095 0-.19 0-.285.023a.415.415 0 0 0-.31.408c0 .264.072.338.238.456 1.665 1.18 2.236 2.333 2.236 5.53 0 2.26-.928 4.769-3.258 4.769-2.519 0-3.588-2.701-3.588-5.128 0-2.814.713-4.136 2.473-5.457 1.899-1.443 4.158-2.117 4.158-3.439 0-.648-.689-.769-1.141-.792-.405-.025-.975-.17-1.26-.578-1.164-1.226-2.52-2.5-4.134-2.5-2.306 0-3.661 2.452-3.661 3.366 0 .361.07.696.404.696m23.01 3.61h.364c.11 0 .255.11.292.275.054.147.072.239.072.718v8.228c0 .496-.018.59-.072.736-.037.129-.164.239-.292.239h-.363c-.254 0-.455.221-.455.497 0 .405.2.534.818.534h7.135l.347-.02c.289-.017.38-.09.507-.403l.528-1.233c.11-.257.147-.424.147-.515 0-.258-.182-.442-.473-.442-.238 0-.329.073-.546.403-.364.535-.71.811-1.13.884-.31.056-.783.074-1.691.074-.966 0-1.328-.037-1.567-.13-.29-.11-.345-.31-.345-1.287V14.27c0-.404.054-.588.164-.662.092-.054.22-.073.746-.073h1.42c.474 0 .708-.22.708-.645 0-.442-.18-.606-.708-.606h-2.33V9.926c0-.974.11-1.103 1.11-1.103h1.22c1.146 0 1.491.129 1.857.662.127.167.2.275.217.314a.8.8 0 0 0 .256.182.36.36 0 0 0 .199.058c.275 0 .492-.204.492-.425a1.3 1.3 0 0 0-.09-.312l-.528-1.362c-.11-.278-.256-.369-.636-.369h-7.009c-.617 0-.837.13-.837.534 0 .275.22.515.474.515m-.836 17.52c.563.663.725.773 2.455 1.987 1.037.737 1.53 1.14 1.93 1.584.382.441.582.883.582 1.38 0 .975-.8 1.638-1.984 1.638-1.036 0-2.056-.552-2.692-1.453l-.256-.37a.57.57 0 0 0-.455-.239.563.563 0 0 0-.582.571c0 .092.017.258.055.369l.455 1.84c.108.443.254.607.563.607.163 0 .255-.036.418-.164.165-.148.236-.185.383-.185.11 0 .145.02.4.092.528.166 1.238.257 1.912.257 2.402 0 3.966-1.399 3.966-3.534 0-.937-.363-1.859-.984-2.504-.58-.607-1.053-.973-2.49-1.987-.383-.277-.675-.478-.894-.645-.362-.275-.655-.57-.835-.846-.147-.203-.201-.479-.201-.755 0-.754.546-1.233 1.383-1.233a2.8 2.8 0 0 1 1.712.59c.381.294.454.368.873.993.163.24.272.313.473.313.308 0 .527-.203.527-.443 0-.054 0-.164-.036-.256l-.437-1.988c-.075-.332-.237-.516-.51-.516-.145 0-.2.018-.382.147-.163.111-.291.165-.419.165-.072 0-.163-.016-.255-.035a6 6 0 0 1-.455-.111 7.7 7.7 0 0 0-1.565-.166c-2 0-3.347 1.179-3.347 2.964 0 .737.236 1.398.692 1.933m-8.9-17.52h.347c.127 0 .273.092.308.239.053.146.074.22.074.716v8.322c0 .459-.02.551-.075.68a.35.35 0 0 1-.307.239h-.347c-.254 0-.455.221-.455.497 0 .405.2.534.802.534h7.007c.563 0 .71-.091.891-.552l.563-1.398.074-.204a.5.5 0 0 0 .055-.22c0-.22-.22-.405-.492-.405-.218 0-.329.074-.547.386-.436.627-.672.865-.981.994-.31.129-.51.129-1.602.129-1.255 0-1.601-.019-1.784-.146-.218-.13-.253-.315-.253-1.124V9.576c0-.479 0-.589.054-.716.053-.147.217-.24.382-.24h.4c.254 0 .473-.221.473-.516 0-.404-.22-.533-.873-.533H40.54c-.62 0-.837.13-.837.533 0 .295.218.516.49.516m-2.95 23.061c-.017.422-.053.458-.618.552-.31.036-.49.22-.49.496 0 .148.091.314.218.404.638.498 2.802.921 4.694.921 2.021 0 3.422-.405 4.497-1.27 1.346-1.085 2.09-2.925 2.09-5.153 0-1.989-.58-3.664-1.654-4.75-1.11-1.14-2.604-1.638-4.785-1.638-2.058 0-4.188.387-4.825.885a.57.57 0 0 0-.236.44c0 .278.201.461.547.479.491.037.545.11.562.59l.02.404v7.235zm2.568-7.4c0-1.05.036-1.27.272-1.454.273-.221.801-.369 1.365-.369 2.166 0 3.458 1.914 3.458 5.154s-1.292 5.117-3.53 5.117c-.692 0-1.24-.184-1.437-.46-.11-.183-.128-.332-.128-1.067zm-31.06-1.529c1.894 0 2.113.075 2.622.847.182.276.31.387.51.387.273 0 .471-.202.471-.442a.8.8 0 0 0-.07-.294l-.474-1.252c-.091-.221-.182-.368-.29-.423-.093-.055-.147-.074-.438-.074h-6.68c-.6 0-.8.129-.8.533 0 .277.182.517.436.517h.365c.127 0 .255.091.31.238.035.13.054.24.054.72v8.263c0 .497-.019.59-.055.717-.054.15-.182.24-.31.24H4.04c-.254 0-.472.238-.472.516 0 .404.218.534.837.534h3.348c.674 0 .892-.13.892-.534 0-.278-.2-.516-.474-.516h-.418a.44.44 0 0 1-.382-.24c-.055-.127-.055-.22-.055-.717V28.11c0-.387.018-.497.145-.55a.6.6 0 0 1 .257-.057h1.856c.51 0 .781-.22.781-.627 0-.423-.253-.624-.781-.624H7.315V23.51c0-.72.11-.757 1.437-.757m46.62 12.507H4.665c-1.55 0-2.81 1.27-2.81 2.841 0 1.568 1.26 2.842 2.81 2.842h50.709c1.55 0 2.809-1.274 2.809-2.842 0-1.57-1.259-2.84-2.81-2.84m-43.815 3.871.126.086h.115c.098 0 .181.098.181.206 0 .14-.074.195-.296.195h-1.31c-.233 0-.32-.055-.32-.195 0-.108.087-.206.194-.206h.126l.13-.086c.023-.055.023-.089.023-.282v-1.473L9.35 38.534a.33.33 0 0 1-.236.118c-.087 0-.126-.028-.213-.118l-1.105-1.191v1.506c0 .183 0 .227.018.282l.126.086h.14c.111 0 .193.098.193.206 0 .14-.074.195-.333.195h-.938c-.228 0-.32-.055-.32-.195 0-.108.092-.206.194-.206h.126l.126-.086c.023-.047.027-.112.027-.282v-1.647c0-.192-.004-.24-.027-.292l-.126-.098h-.126a.197.197 0 0 1-.194-.197c0-.146.092-.202.32-.202h1.063c.113 0 .177.029.33.197l1.003 1.114 1.169-1.161c.121-.118.195-.15.298-.15h.817c.222 0 .297.056.297.202 0 .112-.083.197-.181.197h-.15l-.106.083c-.023.048-.023.115-.023.307v1.647c0 .183 0 .227.038.282m8.733.487h-1.472c-.139 0-.214-.078-.214-.195 0-.142.08-.18.265-.21.158-.03.171-.114.111-.264l-.018-.048c-.037-.094-.089-.103-.25-.103h-1.069a.5.5 0 0 0-.19.023l-.07.057-.013.034c-.047.107.004.272.194.294.18.024.255.075.255.207 0 .13-.097.205-.24.205h-1.161c-.173 0-.252-.055-.252-.182 0-.12.061-.173.196-.206.097-.024.13-.046.171-.099.033-.041.098-.169.163-.294l1.091-2.185c.126-.25.363-.307.58-.307.2 0 .451.072.567.307l1.054 2.1c.162.324.213.393.32.432l.097.033c.07.022.126.083.126.182 0 .14-.083.22-.241.22m8.589 0h-.868c-.195 0-.29-.059-.423-.205l-.98-1.112c-.097-.11-.134-.174-.134-.222 0-.093.08-.136.273-.154.493-.042.738-.22.738-.597 0-.423-.338-.614-.76-.614-.164 0-.326.032-.41.092-.073.057-.101.151-.116.353l-.013.23v1.448c0 .182 0 .234.019.276.023.06.083.1.135.1h.143c.098 0 .177.087.177.2 0 .15-.079.205-.32.205h-1.305c-.228 0-.321-.055-.321-.205a.2.2 0 0 1 .195-.2h.126c.069 0 .111-.04.134-.1.018-.053.018-.094.018-.276v-1.612c0-.193-.032-.225-.213-.236-.139-.008-.217-.073-.217-.196 0-.062.037-.132.078-.175.227-.181 1.11-.273 1.81-.273 1.198 0 1.858.312 1.858.903 0 .408-.182.746-.826.86l.622.684c.23.26.398.35.594.381.138.04.158.044.2.066a.19.19 0 0 1 .084.16c0 .14-.103.22-.298.22m6.244 0h-1.305c-.227 0-.319-.055-.319-.205 0-.113.092-.2.194-.2h.125c.07 0 .111-.04.134-.1.02-.053.02-.094.02-.276V37.2c0-.184-.004-.248-.02-.281-.023-.052-.064-.099-.134-.099h-.125c-.102 0-.194-.085-.194-.206 0-.146.092-.202.319-.202h1.306c.24 0 .32.056.32.202 0 .121-.08.206-.181.206h-.14c-.056 0-.097.037-.12.099-.025.061-.032.09-.032.282v1.635c0 .12.004.239.04.294l.113.082h.139c.087 0 .18.087.18.2 0 .15-.093.205-.32.205m2.78 0h-.881c-.19 0-.251-.064-.39-.205l-1.278-1.278c-.06-.06-.084-.093-.084-.131l.084-.122.925-.789c.135-.116.056-.26-.019-.26-.083 0-.133-.077-.133-.218 0-.127.064-.202.222-.202h1.48c.154 0 .238.06.238.197 0 .117-.061.18-.238.202-.162.022-.225.022-.338.05a1 1 0 0 0-.331.184l-.843.733 1.044 1.037c.275.273.431.357.57.397.158.04.233.068.233.2 0 .127-.091.205-.261.205m8.275-.717-.242.61c-.038.08-.064.1-.185.1l-.14.007h-2.855c-.241 0-.32-.055-.32-.205 0-.113.079-.196.175-.196h.145l.106-.1c.028-.046.033-.098.033-.28v-1.621c0-.184-.005-.235-.033-.283-.01-.065-.065-.111-.106-.111h-.145c-.096 0-.189-.095-.189-.208 0-.145.093-.2.334-.2h2.827c.149 0 .2.023.228.092l.213.555.028.08c-.013.056-.13.107-.232.107l-.084-.015-.088-.041-.07-.088c-.115-.137-.319-.282-.776-.282h-.472c-.395 0-.438.036-.438.29v.531h.91c.219 0 .28.117.28.24 0 .13-.084.248-.28.248h-.556c-.144 0-.255-.01-.293.019-.036.029-.06.079-.06.187v.503c0 .253.02.305.14.333.077.018.235.04.612.04.353 0 .539-.011.654-.025.159-.02.391-.287.507-.432.07-.09.098-.104.195-.104.122 0 .185.048.2.109.009.031.004.065-.023.14m7.952-1.591c-.075 0-.134-.029-.193-.108l-.057-.065c-.068-.086-.186-.25-.27-.28-.078-.028-.181-.035-.444-.035-.335 0-.377.023-.377.229v1.786c0 .182 0 .223.018.276.024.06.08.1.14.1h.195c.108 0 .189.087.189.2 0 .15-.081.205-.342.205h-1.408c-.25 0-.338-.055-.338-.205 0-.113.088-.2.18-.2h.21c.047 0 .102-.04.124-.1.02-.053.033-.094.033-.276V37.05c0-.201-.032-.23-.449-.23-.358 0-.534.146-.66.323l-.037.053c-.064.094-.12.113-.214.113-.1 0-.242-.053-.25-.113l.024-.104.214-.559c.041-.117.074-.12.24-.12h3.26c.106 0 .11.003.158.023l.064.097.231.587.02.076c-.01.056-.15.113-.261.113M5.501 19.2c.254.7.51.919 1.037.919.237 0 .473-.09.619-.201.145-.148.2-.277.364-.718l1.783-5.044 1.674 5.044c.218.68.492.919 1.037.919.546 0 .783-.256 1.056-1.158l2.893-9.442c.202-.647.33-.821.708-.902h.1c.128 0 .255.092.31.238.055.13.055.222.055.719v8.265c0 .495 0 .587-.055.734-.037.13-.182.222-.31.222h-.364c-.254 0-.473.24-.473.515 0 .405.219.534.836.534h3.313c.582 0 .782-.13.782-.515 0-.295-.18-.534-.436-.534h-.346a.39.39 0 0 1-.345-.222c-.038-.147-.056-.256-.056-.734v-3.37c0-.846.074-.92.747-.92h2.474c.363 0 .546.056.637.167.092.11.092.184.092.864v3.259c0 .478 0 .587-.055.734a.38.38 0 0 1-.328.222h-.346c-.255 0-.474.24-.474.515 0 .405.202.534.82.534h3.311c.639 0 .837-.13.837-.534 0-.276-.198-.515-.472-.515h-.365c-.127 0-.272-.093-.31-.222-.053-.147-.07-.256-.07-.734V9.574c0-.46.017-.589.07-.719a.36.36 0 0 1 .31-.238h.365c.254 0 .472-.22.472-.514 0-.406-.218-.535-.837-.535h-3.31c-.619 0-.838.129-.838.535 0 .293.219.514.491.514h.346c.127 0 .274.092.328.238.055.13.055.24.055.719v2.723h-3.95V9.574c0-.46.018-.589.056-.719a.4.4 0 0 1 .345-.238h.346c.256 0 .454-.22.454-.514 0-.406-.198-.535-.8-.535h-6.012c-.49 0-.692.147-.692.515 0 .294.182.479.582.515.437.054.637.203.637.48 0 .11-.018.255-.072.441l-2.148 7.05-2.165-6.737c-.146-.442-.181-.608-.181-.773 0-.331.127-.442.617-.497.401-.056.584-.203.584-.498 0-.33-.201-.496-.62-.496H7.049c-.42 0-.639.201-.639.551 0 .277.146.406.528.498.419.11.565.202.674.478.036.074.074.22.146.424l.836 2.466-1.691 4.767-2.457-6.92-.147-.423a1.1 1.1 0 0 1-.072-.404c0-.295.164-.425.565-.461.472-.037.655-.167.655-.48 0-.33-.183-.496-.601-.496h-3.75c-.417 0-.617.167-.617.479 0 .294.127.423.51.497.581.129.672.221.945.975zm12.473 14.855c3.078 0 5.215-1.754 5.845-4.616.612 2.84 2.743 4.616 5.764 4.616 3.696 0 6.043-2.521 6.043-6.46 0-3.866-2.347-6.351-6.006-6.351-3.045 0-5.165 1.74-5.79 4.594-.613-2.844-2.753-4.594-5.82-4.594-3.658 0-5.987 2.504-5.987 6.442 0 3.848 2.348 6.37 5.95 6.37m11.628-11.503c2.02 0 3.294 1.968 3.294 5.134 0 3.093-1.255 5.044-3.257 5.044-2.056 0-3.276-1.876-3.276-5.026 0-3.201 1.22-5.152 3.24-5.152m-11.61 0c2.019 0 3.293 1.968 3.293 5.134 0 3.093-1.255 5.044-3.256 5.044-2.057 0-3.277-1.876-3.277-5.026 0-3.201 1.22-5.152 3.24-5.152m.287 14.87a1.2 1.2 0 0 1-.092-.296h-.028c-.02.071-.066.178-.117.297l-.352.789-.07.11.122-.011h.858l.096.011-.06-.11z"></path></svg>