<svg xmlns="http://www.w3.org/2000/svg" width="85" height="26" fill="none" viewBox="0 0 85 26" aria-labelledby="WPP" style="color: currentcolor;"><path fill="currentColor" d="M3.303.748a.767.767 0 0 0-.785.768c0 .433.343.769.785.769a.768.768 0 1 0 0-1.537m4.075 0a.767.767 0 0 0-.785.768c0 .433.343.769.785.769a.767.767 0 0 0 .785-.769.767.767 0 0 0-.785-.768m24.691 0a.768.768 0 1 0 0 1.537.767.767 0 0 0 .786-.769.767.767 0 0 0-.786-.768m4.123 0a.767.767 0 0 0-.785.768c0 .433.343.769.785.769a.768.768 0 1 0 0-1.537m7.314 0a.767.767 0 0 0-.785.768c0 .433.343.769.785.769a.767.767 0 0 0 .785-.769.767.767 0 0 0-.785-.768m4.075 0a.767.767 0 0 0-.785.768c0 .433.343.769.785.769a.767.767 0 0 0 .785-.769.767.767 0 0 0-.785-.768m4.123 0a.768.768 0 1 0 0 1.537.767.767 0 0 0 .786-.769.767.767 0 0 0-.786-.768m17.377 0a.767.767 0 0 0-.785.768c0 .433.343.769.785.769a.768.768 0 1 0 0-1.537m4.074 0a.767.767 0 0 0-.785.768c0 .433.343.769.785.769a.767.767 0 0 0 .785-.769.767.767 0 0 0-.785-.768M19.7 1.036c-.295 0-.491.24-.491.48 0 .289.245.48.49.48.295 0 .492-.24.492-.48.049-.288-.197-.48-.491-.48m36.128 0c-.294 0-.49.24-.49.48 0 .289.245.48.49.48.294 0 .49-.24.49-.48a.487.487 0 0 0-.49-.48m21.452 0c-.295 0-.491.24-.491.48 0 .289.246.48.49.48.295 0 .492-.24.492-.48 0-.288-.197-.48-.491-.48M5.365 1.9a.767.767 0 0 0-.785.769c0 .432.344.768.785.768a.767.767 0 0 0 .786-.768.767.767 0 0 0-.786-.769m28.766 0a.767.767 0 0 0-.786.769c0 .432.344.768.786.768a.767.767 0 0 0 .785-.768.767.767 0 0 0-.785-.769m11.388 0a.767.767 0 0 0-.786.769c0 .432.344.768.786.768a.77.77 0 0 0 .786-.768c.049-.433-.345-.769-.786-.769m4.123 0a.767.767 0 0 0-.785.769c0 .432.343.768.785.768a.767.767 0 0 0 .785-.768c.05-.433-.343-.769-.785-.769m4.124 0a.767.767 0 0 0-.785.769c0 .432.343.768.785.768a.767.767 0 0 0 .785-.768.767.767 0 0 0-.785-.769m13.253 0a.767.767 0 0 0-.785.769c0 .432.344.768.785.768a.767.767 0 0 0 .786-.768.767.767 0 0 0-.786-.769m4.075 0a.768.768 0 1 0 0 1.537.767.767 0 0 0 .785-.768c.05-.433-.343-.769-.785-.769m4.123 0a.767.767 0 0 0-.786.769c0 .432.344.768.786.768a.768.768 0 1 0 0-1.537m4.123 0a.767.767 0 0 0-.785.769c0 .432.343.768.785.768a.767.767 0 0 0 .785-.768.767.767 0 0 0-.785-.769M1.242 2.19c-.295 0-.491.24-.491.48 0 .289.245.481.49.481.295 0 .492-.24.492-.48.049-.24-.197-.48-.491-.48m16.444 0c-.294 0-.49.24-.49.48 0 .289.245.481.49.481.295 0 .491-.24.491-.48s-.245-.48-.49-.48m4.075 0c-.295 0-.49.24-.49.48 0 .289.244.481.49.481.294 0 .49-.24.49-.48s-.196-.48-.49-.48m16.444 0c-.294 0-.49.24-.49.48 0 .289.245.481.49.481.295 0 .491-.24.491-.48s-.196-.48-.49-.48m19.684 0c-.294 0-.49.24-.49.48 0 .289.245.481.49.481.295 0 .491-.24.491-.48s-.245-.48-.49-.48m-54.586.865a.767.767 0 0 0-.785.769c0 .432.343.769.785.769a.77.77 0 0 0 .786-.769c.05-.432-.344-.769-.786-.769m4.075 0a.767.767 0 0 0-.785.769c0 .432.343.769.785.769a.767.767 0 0 0 .785-.769.767.767 0 0 0-.785-.769m12.32 0a.767.767 0 0 0-.785.769c0 .432.344.769.786.769a.767.767 0 0 0 .785-.769c.049-.432-.344-.769-.785-.769m12.371 0a.768.768 0 1 0 0 1.538.767.767 0 0 0 .786-.769.767.767 0 0 0-.786-.769m4.123 0a.767.767 0 0 0-.785.769c0 .432.343.769.785.769a.768.768 0 1 0 0-1.538m7.314 0a.767.767 0 0 0-.785.769c0 .432.343.769.785.769a.767.767 0 0 0 .785-.769.767.767 0 0 0-.785-.769m4.075 0a.767.767 0 0 0-.785.769c0 .432.343.769.785.769a.767.767 0 0 0 .785-.769c.05-.432-.343-.769-.785-.769m4.123 0a.768.768 0 1 0 0 1.538.767.767 0 0 0 .786-.769.767.767 0 0 0-.786-.769m4.123 0a.767.767 0 0 0-.785.769c0 .432.343.769.785.769a.768.768 0 1 0 0-1.538m13.254 0a.767.767 0 0 0-.785.769c0 .432.343.769.785.769a.768.768 0 1 0 0-1.538m4.074 0a.767.767 0 0 0-.785.769c0 .432.343.769.785.769a.767.767 0 0 0 .785-.769c.05-.432-.343-.769-.785-.769m4.124 0a.767.767 0 0 0-.785.769c0 .432.343.769.785.769a.767.767 0 0 0 .785-.769.767.767 0 0 0-.785-.769m4.123 0a.768.768 0 1 0 0 1.538.767.767 0 0 0 .786-.769.767.767 0 0 0-.786-.769M17.686 4.207a.77.77 0 0 0-.785.77c0 .432.343.768.785.768a.767.767 0 0 0 .785-.769.77.77 0 0 0-.785-.77m4.075 0a.769.769 0 1 0 0 1.538.767.767 0 0 0 .785-.769.77.77 0 0 0-.785-.77m12.37 0a.77.77 0 0 0-.786.77c0 .432.344.768.786.768a.767.767 0 0 0 .785-.769.77.77 0 0 0-.785-.77m11.388 0a.77.77 0 0 0-.786.77c0 .432.344.768.786.768a.769.769 0 1 0 0-1.538m4.123 0a.77.77 0 0 0-.785.77c0 .432.343.768.785.768a.767.767 0 0 0 .785-.769.77.77 0 0 0-.785-.77m4.124 0a.77.77 0 0 0-.785.77c0 .432.343.768.785.768a.767.767 0 0 0 .785-.769.77.77 0 0 0-.785-.77m4.123 0a.77.77 0 0 0-.785.77c0 .432.343.768.785.768a.767.767 0 0 0 .785-.769.77.77 0 0 0-.785-.77m9.13 0a.77.77 0 0 0-.785.77c0 .432.344.768.785.768a.767.767 0 0 0 .786-.769.77.77 0 0 0-.786-.77m4.075 0a.768.768 0 1 0 0 1.538.767.767 0 0 0 .785-.769.77.77 0 0 0-.785-.77m4.123 0a.77.77 0 0 0-.786.77c0 .432.344.768.786.768a.769.769 0 1 0 0-1.538m4.123 0a.77.77 0 0 0-.785.77c0 .432.343.768.785.768a.767.767 0 0 0 .785-.769.77.77 0 0 0-.785-.77m-73.975.049a.767.767 0 0 0-.785.768c0 .385.344.769.785.769a.767.767 0 0 0 .786-.769.767.767 0 0 0-.786-.768m4.074.24c-.294 0-.49.24-.49.48 0 .289.245.48.49.48.295 0 .491-.24.491-.48s-.196-.48-.49-.48m20.568 0c-.294 0-.49.24-.49.48 0 .289.245.48.49.48s.491-.24.491-.48-.245-.48-.49-.48m53.457 0c-.295 0-.491.24-.491.48 0 .289.245.48.49.48.295 0 .492-.24.492-.48s-.246-.48-.491-.48m-80.16.864a.767.767 0 0 0-.786.769c0 .432.343.77.785.77a.769.769 0 1 0 0-1.539m4.074 0a.767.767 0 0 0-.785.769c0 .432.343.77.785.77a.77.77 0 0 0 .785-.77.767.767 0 0 0-.785-.769m12.32 0a.767.767 0 0 0-.785.769c0 .432.344.77.786.77a.77.77 0 0 0 .785-.77.767.767 0 0 0-.785-.769m12.371 0a.769.769 0 1 0 0 1.538.77.77 0 0 0 .786-.77.767.767 0 0 0-.786-.768m11.437 0a.767.767 0 0 0-.785.769c0 .432.343.77.785.77a.77.77 0 0 0 .785-.77.767.767 0 0 0-.785-.769m4.075 0a.767.767 0 0 0-.785.769c0 .432.343.77.785.77a.77.77 0 0 0 .785-.77.767.767 0 0 0-.785-.769m4.123 0a.769.769 0 1 0 0 1.538.77.77 0 0 0 .786-.77.767.767 0 0 0-.786-.768m4.123 0a.767.767 0 0 0-.785.769c0 .432.343.77.785.77a.769.769 0 1 0 0-1.539m4.124 0a.767.767 0 0 0-.786.769c0 .432.344.77.786.77a.77.77 0 0 0 .785-.77.767.767 0 0 0-.785-.769m9.13 0a.767.767 0 0 0-.785.769c0 .432.343.77.785.77a.768.768 0 1 0 0-1.539m4.074 0a.767.767 0 0 0-.785.769c0 .432.343.77.785.77a.77.77 0 0 0 .785-.77.767.767 0 0 0-.785-.769m4.124 0a.767.767 0 0 0-.785.769c0 .432.343.77.785.77a.77.77 0 0 0 .785-.77.767.767 0 0 0-.785-.769m4.123 0a.769.769 0 1 0 0 1.538.77.77 0 0 0 .786-.77.767.767 0 0 0-.786-.768m-45.21.048a.77.77 0 0 0-.785.77c0 .432.343.768.785.768a.769.769 0 1 0 0-1.538M5.365 6.561a.767.767 0 0 0-.785.769c0 .432.344.77.785.77a.77.77 0 0 0 .786-.77.767.767 0 0 0-.786-.769m4.074 0a.767.767 0 0 0-.785.769c0 .432.343.77.785.77a.769.769 0 1 0 0-1.539m8.247 0a.767.767 0 0 0-.785.769c0 .432.343.77.785.77a.77.77 0 0 0 .785-.77.767.767 0 0 0-.785-.769m4.075 0a.769.769 0 1 0 0 1.538.77.77 0 0 0 .785-.769c.05-.432-.343-.769-.785-.769m8.246 0a.767.767 0 0 0-.785.769c0 .432.343.77.785.77a.77.77 0 0 0 .785-.77.767.767 0 0 0-.785-.769m4.124 0a.767.767 0 0 0-.786.769c0 .432.344.77.786.77a.77.77 0 0 0 .785-.77.767.767 0 0 0-.785-.769m11.388 0a.767.767 0 0 0-.786.769c0 .432.344.77.786.77a.77.77 0 0 0 .786-.77c.049-.432-.345-.769-.786-.769m12.37 0a.767.767 0 0 0-.785.769c0 .432.343.77.785.77a.77.77 0 0 0 .785-.77.767.767 0 0 0-.785-.769m9.13 0a.767.767 0 0 0-.785.769c0 .432.344.77.785.77a.77.77 0 0 0 .786-.77.767.767 0 0 0-.786-.769m4.075 0a.768.768 0 1 0 0 1.538.77.77 0 0 0 .785-.769c.05-.432-.343-.769-.785-.769m8.246 0a.767.767 0 0 0-.785.769c0 .432.343.77.785.77a.77.77 0 0 0 .785-.77.767.767 0 0 0-.785-.769m4.124 0a.767.767 0 0 0-.785.769c-.05.432.343.77.785.77a.77.77 0 0 0 .785-.77.767.767 0 0 0-.785-.769m-33.822.288c-.294 0-.49.24-.49.481 0 .288.245.48.49.48.295 0 .491-.24.491-.48 0-.288-.196-.48-.49-.48m4.124 0c-.295 0-.491.24-.491.481 0 .288.245.48.49.48.295 0 .492-.24.492-.48 0-.288-.197-.48-.491-.48m21.45 0c-.294 0-.49.24-.49.481 0 .288.245.48.49.48.295 0 .492-.24.492-.48 0-.288-.197-.48-.491-.48m-67.838.866a.767.767 0 0 0-.785.768c0 .433.343.769.785.769a.767.767 0 0 0 .785-.769.767.767 0 0 0-.785-.768m12.32 0a.767.767 0 0 0-.785.768c0 .433.344.769.786.769a.767.767 0 0 0 .785-.769c.049-.432-.344-.768-.785-.768m12.371 0a.768.768 0 1 0 0 1.537.767.767 0 0 0 .786-.769.767.767 0 0 0-.786-.768m11.437 0a.767.767 0 0 0-.785.768c0 .433.343.769.785.769a.767.767 0 0 0 .785-.769.767.767 0 0 0-.785-.768m4.075 0a.767.767 0 0 0-.785.768c0 .433.343.769.785.769a.767.767 0 0 0 .785-.769c.05-.432-.343-.768-.785-.768m8.246 0a.767.767 0 0 0-.785.768c0 .433.343.769.785.769a.768.768 0 1 0 0-1.537m4.124 0a.767.767 0 0 0-.786.768c0 .433.344.769.786.769a.767.767 0 0 0 .785-.769.767.767 0 0 0-.785-.768m9.13 0a.767.767 0 0 0-.785.768c0 .433.343.769.785.769a.768.768 0 1 0 0-1.537m12.321 0a.768.768 0 1 0 0 1.537.767.767 0 0 0 .786-.769.767.767 0 0 0-.786-.768m-69.9.288c-.295 0-.491.24-.491.48 0 .289.245.48.49.48.295 0 .491-.24.491-.48a.487.487 0 0 0-.49-.48m4.123 0c-.294 0-.49.24-.49.48 0 .289.245.48.49.48.294 0 .49-.24.49-.48a.487.487 0 0 0-.49-.48m8.197 0c-.294 0-.49.24-.49.48 0 .289.245.48.49.48.295 0 .491-.24.491-.48 0-.288-.196-.48-.49-.48m4.124 0c-.295 0-.491.24-.491.48 0 .289.245.48.49.48.295 0 .492-.24.492-.48 0-.288-.197-.48-.491-.48m-18.507.865a.767.767 0 0 0-.785.769c0 .432.343.768.785.768a.768.768 0 1 0 0-1.537m8.247 0a.767.767 0 0 0-.785.769c0 .432.343.768.785.768a.767.767 0 0 0 .785-.768.767.767 0 0 0-.785-.769m4.075 0a.768.768 0 1 0 0 1.537.767.767 0 0 0 .785-.768c.05-.433-.343-.769-.785-.769m8.246 0a.767.767 0 0 0-.785.769c0 .432.343.768.785.768a.767.767 0 0 0 .785-.768.767.767 0 0 0-.785-.769m15.512 0a.767.767 0 0 0-.786.769c0 .432.344.768.786.768a.77.77 0 0 0 .786-.768c.049-.433-.345-.769-.786-.769m12.37 0a.767.767 0 0 0-.785.769c0 .432.343.768.785.768a.767.767 0 0 0 .785-.768.767.767 0 0 0-.785-.769m9.13 0a.767.767 0 0 0-.785.769c0 .432.344.768.785.768a.767.767 0 0 0 .786-.768.767.767 0 0 0-.786-.769m4.075 0a.768.768 0 1 0 0 1.537.767.767 0 0 0 .785-.768c.05-.433-.343-.769-.785-.769m8.246 0a.767.767 0 0 0-.785.769c0 .432.343.768.785.768a.767.767 0 0 0 .785-.768.767.767 0 0 0-.785-.769m4.124 0a.767.767 0 0 0-.785.769c0 .432.343.768.785.768a.767.767 0 0 0 .785-.768.767.767 0 0 0-.785-.769m-78.099.048a.767.767 0 0 0-.785.769c0 .384.344.768.785.768a.767.767 0 0 0 .786-.768.767.767 0 0 0-.786-.77m28.766 0a.767.767 0 0 0-.786.769c-.049.384.344.768.786.768a.767.767 0 0 0 .785-.768.767.767 0 0 0-.785-.77M7.378 10.02a.767.767 0 0 0-.785.769c0 .432.343.769.785.769a.767.767 0 0 0 .785-.769.767.767 0 0 0-.785-.769m8.247 0a.768.768 0 1 0 0 1.538.767.767 0 0 0 .785-.769.767.767 0 0 0-.785-.769m4.074 0a.767.767 0 0 0-.786.769c0 .432.344.769.786.769a.767.767 0 0 0 .785-.769c.049-.432-.344-.769-.785-.769m4.123 0a.767.767 0 0 0-.785.769c0 .432.343.769.785.769a.767.767 0 0 0 .785-.769c.05-.432-.343-.769-.785-.769m8.247 0a.768.768 0 1 0 0 1.538.767.767 0 0 0 .786-.769.767.767 0 0 0-.786-.769m11.437 0a.767.767 0 0 0-.785.769c0 .432.343.769.785.769a.767.767 0 0 0 .785-.769.767.767 0 0 0-.785-.769m4.075 0a.767.767 0 0 0-.785.769c0 .432.343.769.785.769a.767.767 0 0 0 .785-.769c.05-.432-.343-.769-.785-.769m8.246 0a.767.767 0 0 0-.785.769c0 .432.343.769.785.769a.768.768 0 1 0 0-1.538m4.124 0a.767.767 0 0 0-.786.769c0 .432.344.769.786.769a.767.767 0 0 0 .785-.769.767.767 0 0 0-.785-.769m9.13 0a.767.767 0 0 0-.785.769c0 .432.343.769.785.769a.768.768 0 1 0 0-1.538m12.321 0a.768.768 0 1 0 0 1.538.767.767 0 0 0 .786-.769.767.767 0 0 0-.786-.769m-69.9.288c-.295 0-.491.24-.491.481 0 .288.245.48.49.48.295 0 .491-.24.491-.48s-.245-.48-.49-.48m16.444 0c-.295 0-.491.24-.491.481 0 .288.245.48.49.48.295 0 .492-.24.492-.48s-.197-.48-.491-.48m-18.507.865a.77.77 0 0 0-.785.77c0 .432.343.768.785.768a.77.77 0 0 0 .786-.769.8.8 0 0 0-.786-.77m8.247 0a.77.77 0 0 0-.785.77c0 .432.343.768.785.768a.767.767 0 0 0 .785-.769.8.8 0 0 0-.785-.77m4.075 0a.769.769 0 1 0 0 1.538.767.767 0 0 0 .785-.769c.05-.384-.343-.77-.785-.77m8.246 0a.77.77 0 0 0-.785.77c0 .432.343.768.785.768a.767.767 0 0 0 .785-.769.8.8 0 0 0-.785-.77m15.512 0a.77.77 0 0 0-.786.77c0 .432.344.768.786.768a.77.77 0 0 0 .786-.769c.049-.384-.345-.77-.786-.77m12.37 0a.77.77 0 0 0-.785.77c0 .432.343.768.785.768a.767.767 0 0 0 .785-.769.8.8 0 0 0-.785-.77m9.13 0a.77.77 0 0 0-.785.77c0 .432.344.768.785.768a.767.767 0 0 0 .786-.769.8.8 0 0 0-.786-.77m4.075 0a.768.768 0 1 0 0 1.538.767.767 0 0 0 .785-.769c.05-.384-.343-.77-.785-.77m8.246 0a.77.77 0 0 0-.785.77c0 .432.343.768.785.768a.767.767 0 0 0 .785-.769.8.8 0 0 0-.785-.77m4.124 0a.77.77 0 0 0-.785.77c0 .432.343.768.785.768a.767.767 0 0 0 .785-.769.8.8 0 0 0-.785-.77m-69.901.289c-.295 0-.491.24-.491.48 0 .289.245.48.49.48.295 0 .492-.24.492-.48s-.246-.48-.491-.48m12.32 0c-.294 0-.49.24-.49.48 0 .289.245.48.49.48.295 0 .491-.24.491-.48s-.196-.48-.49-.48m49.334 0c-.295 0-.491.24-.491.48 0 .289.245.48.49.48.295 0 .492-.24.492-.48s-.197-.48-.491-.48m-25.575.048c-.294 0-.49.24-.49.48s.245.48.49.48c.295 0 .491-.24.491-.48a.487.487 0 0 0-.49-.48m4.124 0c-.295 0-.491.24-.491.48s.196.48.49.48c.295 0 .492-.24.492-.48a.487.487 0 0 0-.491-.48m-46.388.816a.767.767 0 0 0-.785.769c0 .432.343.77.785.77a.77.77 0 0 0 .785-.77.767.767 0 0 0-.785-.769m4.123 0a.767.767 0 0 0-.785.769c0 .432.344.77.785.77a.77.77 0 0 0 .786-.77.767.767 0 0 0-.786-.769m4.124 0a.769.769 0 1 0 0 1.538.77.77 0 0 0 .785-.77.767.767 0 0 0-.785-.768m8.197 0a.767.767 0 0 0-.785.769c0 .432.343.77.785.77a.77.77 0 0 0 .785-.77.767.767 0 0 0-.785-.769m4.124 0a.767.767 0 0 0-.785.769c0 .432.343.77.785.77a.77.77 0 0 0 .785-.77.767.767 0 0 0-.785-.769m4.123 0a.769.769 0 1 0 0 1.538.77.77 0 0 0 .786-.77.767.767 0 0 0-.786-.768m11.437 0a.767.767 0 0 0-.785.769c0 .432.343.77.785.77a.77.77 0 0 0 .785-.77.8.8 0 0 0-.785-.769m4.075 0a.767.767 0 0 0-.785.769c0 .432.343.77.785.77a.77.77 0 0 0 .785-.77c.05-.385-.343-.769-.785-.769m4.123 0a.769.769 0 1 0 0 1.538.77.77 0 0 0 .786-.77.8.8 0 0 0-.786-.768m4.123 0a.767.767 0 0 0-.785.769c0 .432.343.77.785.77a.77.77 0 0 0 .786-.77.8.8 0 0 0-.786-.769m13.254 0a.767.767 0 0 0-.785.769c0 .432.343.77.785.77a.77.77 0 0 0 .786-.77.8.8 0 0 0-.786-.769m4.074 0a.767.767 0 0 0-.785.769c0 .432.343.77.785.77a.77.77 0 0 0 .785-.77c.05-.385-.343-.769-.785-.769m4.124 0a.767.767 0 0 0-.785.769c0 .432.343.77.785.77a.77.77 0 0 0 .785-.77.8.8 0 0 0-.785-.769m4.123 0a.769.769 0 1 0 0 1.538.77.77 0 0 0 .786-.77.8.8 0 0 0-.786-.768m-61.703.048a.77.77 0 0 0-.786.77c0 .432.344.768.786.768a.767.767 0 0 0 .785-.768.77.77 0 0 0-.785-.77m40.252.289c-.246 0-.491.24-.491.48s.196.481.49.481c.295 0 .491-.24.491-.48a.487.487 0 0 0-.49-.481m-50.512.864a.767.767 0 0 0-.785.769c0 .432.343.77.785.77a.769.769 0 1 0 0-1.539m4.124 0a.767.767 0 0 0-.786.769c0 .432.344.77.786.77a.77.77 0 0 0 .785-.77.767.767 0 0 0-.785-.769m4.123 0a.767.767 0 0 0-.785.769c0 .432.343.77.785.77a.77.77 0 0 0 .785-.77.767.767 0 0 0-.785-.769m4.075 0a.769.769 0 1 0 0 1.538.77.77 0 0 0 .785-.77c.05-.431-.343-.768-.785-.768m4.123 0a.767.767 0 0 0-.786.769c0 .432.344.77.786.77a.769.769 0 1 0 0-1.539m4.123 0a.767.767 0 0 0-.785.769c0 .432.343.77.785.77a.77.77 0 0 0 .785-.77.767.767 0 0 0-.785-.769m15.512 0a.767.767 0 0 0-.786.769c0 .432.344.77.786.77a.77.77 0 0 0 .786-.77c.049-.433-.345-.769-.786-.769m4.123 0a.767.767 0 0 0-.785.769c0 .432.343.77.785.77a.77.77 0 0 0 .785-.77c.05-.433-.343-.769-.785-.769m4.124 0a.767.767 0 0 0-.785.769c0 .432.343.77.785.77a.77.77 0 0 0 .785-.77.767.767 0 0 0-.785-.769m4.123 0a.767.767 0 0 0-.785.769c-.049.432.343.77.785.77a.77.77 0 0 0 .785-.77.767.767 0 0 0-.785-.769m9.13 0a.767.767 0 0 0-.785.769c0 .432.344.77.785.77a.77.77 0 0 0 .786-.77.767.767 0 0 0-.786-.769m4.075 0a.769.769 0 1 0 0 1.538.77.77 0 0 0 .785-.77c.05-.431-.343-.768-.785-.768m4.123 0a.767.767 0 0 0-.786.769c0 .432.344.77.786.77a.769.769 0 1 0 0-1.539m4.123 0a.767.767 0 0 0-.785.769c0 .432.343.77.785.77a.77.77 0 0 0 .785-.77.767.767 0 0 0-.785-.769m-67.839 1.154a.767.767 0 0 0-.785.768c0 .433.344.769.785.769a.767.767 0 0 0 .786-.769.767.767 0 0 0-.786-.768m4.124 0a.768.768 0 1 0 0 1.537.767.767 0 0 0 .785-.769.767.767 0 0 0-.785-.768m8.197 0a.767.767 0 0 0-.785.768c0 .433.343.769.785.769a.767.767 0 0 0 .785-.769c.05-.432-.343-.768-.785-.768m4.124 0a.767.767 0 0 0-.785.768c0 .433.343.769.785.769a.767.767 0 0 0 .785-.769.767.767 0 0 0-.785-.768m15.56 0a.767.767 0 0 0-.785.768c0 .433.343.769.785.769a.767.767 0 0 0 .785-.769.767.767 0 0 0-.785-.768m4.075 0a.767.767 0 0 0-.785.768c0 .433.343.769.785.769a.767.767 0 0 0 .785-.769c.05-.432-.343-.768-.785-.768m4.123 0a.768.768 0 1 0 0 1.537.767.767 0 0 0 .786-.769.767.767 0 0 0-.786-.768m4.123 0a.767.767 0 0 0-.785.768c0 .433.343.769.785.769a.768.768 0 1 0 0-1.537m13.254 0a.767.767 0 0 0-.785.768c0 .433.343.769.785.769a.768.768 0 1 0 0-1.537m4.074 0a.767.767 0 0 0-.785.768c0 .433.343.769.785.769a.767.767 0 0 0 .785-.769c.05-.432-.343-.768-.785-.768m4.124 0a.767.767 0 0 0-.785.768c0 .433.343.769.785.769a.767.767 0 0 0 .785-.769.767.767 0 0 0-.785-.768m-69.901.288c-.295 0-.491.24-.491.48 0 .289.245.48.49.48.295 0 .492-.24.492-.48a.487.487 0 0 0-.491-.48m24.691 0c-.294 0-.49.24-.49.48 0 .289.196.48.49.48.295 0 .491-.24.491-.48a.487.487 0 0 0-.49-.48m49.333 0c-.294 0-.49.24-.49.48 0 .289.196.48.49.48.295 0 .491-.24.491-.48a.487.487 0 0 0-.49-.48m-71.963.865a.767.767 0 0 0-.785.769c0 .432.343.768.785.768a.768.768 0 1 0 0-1.537m4.124 0a.767.767 0 0 0-.786.769c0 .432.344.768.786.768a.767.767 0 0 0 .785-.768.767.767 0 0 0-.785-.769m12.32 0a.767.767 0 0 0-.785.769c0 .432.344.768.786.768a.768.768 0 1 0 0-1.537m4.124 0a.767.767 0 0 0-.785.769c0 .432.343.768.785.768a.767.767 0 0 0 .785-.768.767.767 0 0 0-.785-.769m15.512 0a.767.767 0 0 0-.786.769c0 .432.344.768.786.768a.768.768 0 1 0 0-1.537m21.5 0a.767.767 0 0 0-.785.769c0 .432.344.768.785.768a.767.767 0 0 0 .786-.768.767.767 0 0 0-.786-.769m4.075 0a.768.768 0 1 0 0 1.537.767.767 0 0 0 .785-.768.767.767 0 0 0-.785-.769m-21.452.048a.767.767 0 0 0-.785.768c0 .433.343.77.785.77a.767.767 0 0 0 .785-.77.767.767 0 0 0-.785-.768m4.124 0a.767.767 0 0 0-.785.768c0 .433.343.77.785.77a.767.767 0 0 0 .785-.77.767.767 0 0 0-.785-.768m21.45 0a.767.767 0 0 0-.785.768c0 .433.344.77.786.77a.768.768 0 1 0 0-1.538m-57.53.24c-.294 0-.49.24-.49.48-.05.289.196.481.49.481.295 0 .491-.24.491-.48a.487.487 0 0 0-.49-.48m4.075 0c-.295 0-.49.24-.49.48 0 .289.244.481.49.481.294 0 .49-.24.49-.48a.487.487 0 0 0-.49-.48m57.58 0c-.295 0-.492.24-.492.48 0 .289.197.481.491.481.295 0 .491-.24.491-.48a.487.487 0 0 0-.49-.48m-67.84.865a.767.767 0 0 0-.785.769c0 .432.344.769.785.769a.767.767 0 0 0 .786-.769.767.767 0 0 0-.786-.769m4.124 0a.768.768 0 1 0 0 1.538.767.767 0 0 0 .785-.769.767.767 0 0 0-.785-.769m8.197 0a.767.767 0 0 0-.785.769c0 .432.343.769.785.769a.767.767 0 0 0 .785-.769c.05-.433-.343-.769-.785-.769m4.124 0a.767.767 0 0 0-.785.769c0 .432.343.769.785.769a.767.767 0 0 0 .785-.769.767.767 0 0 0-.785-.769m15.56 0a.767.767 0 0 0-.785.769c0 .432.343.769.785.769a.767.767 0 0 0 .785-.769.767.767 0 0 0-.785-.769m4.075 0a.767.767 0 0 0-.785.769c0 .432.343.769.785.769a.767.767 0 0 0 .785-.769c.05-.433-.343-.769-.785-.769m21.5 0a.767.767 0 0 0-.785.769c0 .432.343.769.785.769a.768.768 0 1 0 0-1.538m8.198.288c-.295 0-.491.24-.491.481 0 .288.246.48.49.48.295 0 .492-.24.492-.48s-.197-.48-.491-.48m-25.575.048c-.294 0-.49.24-.49.48 0 .241.245.481.49.481.295 0 .491-.24.491-.48s-.245-.48-.49-.48m21.451 0c-.294 0-.49.24-.49.48 0 .241.245.481.49.481.295 0 .491-.24.491-.48s-.245-.48-.49-.48m-63.716.817a.77.77 0 0 0-.785.77c0 .432.343.768.785.768a.77.77 0 0 0 .786-.769.8.8 0 0 0-.786-.77m4.124 0a.77.77 0 0 0-.786.77c0 .432.344.768.786.768a.767.767 0 0 0 .785-.769.8.8 0 0 0-.785-.77m12.32 0a.77.77 0 0 0-.785.77c0 .432.344.768.786.768a.77.77 0 0 0 .786-.769.8.8 0 0 0-.787-.77m4.124 0a.77.77 0 0 0-.785.77c0 .432.343.768.785.768a.767.767 0 0 0 .785-.769.8.8 0 0 0-.785-.77m15.512 0a.77.77 0 0 0-.786.77c0 .432.344.768.786.768a.77.77 0 0 0 .786-.769c.049-.384-.345-.77-.786-.77m21.5 0a.77.77 0 0 0-.785.77c0 .432.344.768.785.768a.767.767 0 0 0 .786-.769.8.8 0 0 0-.786-.77m4.075 0a.768.768 0 1 0 0 1.538.767.767 0 0 0 .785-.769c.05-.384-.343-.77-.785-.77m-59.593 1.201a.77.77 0 0 0-.785.77c0 .432.344.768.785.768a.767.767 0 0 0 .786-.768.77.77 0 0 0-.786-.77m4.124 0a.77.77 0 0 0-.786.77c-.05.432.344.768.786.768a.767.767 0 0 0 .785-.768.77.77 0 0 0-.785-.77m8.197 0a.77.77 0 0 0-.785.77c0 .432.343.768.785.768a.767.767 0 0 0 .785-.768.77.77 0 0 0-.785-.77m4.124 0a.77.77 0 0 0-.785.77c0 .432.343.768.785.768a.767.767 0 0 0 .785-.768.77.77 0 0 0-.785-.77m15.56 0a.77.77 0 0 0-.785.77c0 .432.343.768.785.768a.767.767 0 0 0 .785-.768.77.77 0 0 0-.785-.77m4.075 0a.77.77 0 0 0-.785.77c0 .432.343.768.785.768a.767.767 0 0 0 .785-.768c.05-.433-.343-.77-.785-.77m21.5 0a.77.77 0 0 0-.785.77c0 .432.343.768.785.768a.768.768 0 1 0 0-1.538m-55.518 1.153a.767.767 0 0 0-.786.769c0 .432.344.77.786.77a.77.77 0 0 0 .785-.77.767.767 0 0 0-.785-.769m12.32 0a.767.767 0 0 0-.785.769c0 .432.344.77.786.77a.769.769 0 1 0 0-1.539m19.636 0a.767.767 0 0 0-.786.769c0 .432.344.77.786.77a.77.77 0 0 0 .786-.77c.049-.433-.345-.769-.786-.769m21.5 0a.767.767 0 0 0-.785.769c0 .432.344.77.785.77a.77.77 0 0 0 .786-.77.767.767 0 0 0-.786-.769m4.075 0a.768.768 0 1 0 0 1.538.77.77 0 0 0 .785-.77c.05-.432-.343-.768-.785-.768m-61.655.288c-.294 0-.49.24-.49.48 0 .29.196.481.49.481.295 0 .491-.24.491-.48a.487.487 0 0 0-.49-.48m20.568 0c-.245 0-.49.24-.49.48 0 .29.196.481.49.481.295 0 .491-.24.491-.48a.487.487 0 0 0-.49-.48m-18.506.866a.767.767 0 0 0-.785.768c0 .433.344.769.785.769a.767.767 0 0 0 .786-.769.767.767 0 0 0-.786-.768m16.445 0a.767.767 0 0 0-.785.768c0 .433.343.769.785.769a.767.767 0 0 0 .785-.769.767.767 0 0 0-.785-.768m15.56 0a.767.767 0 0 0-.785.768c0 .433.343.769.785.769a.767.767 0 0 0 .785-.769.767.767 0 0 0-.785-.768m4.075 0a.767.767 0 0 0-.785.768c0 .433.343.769.785.769a.767.767 0 0 0 .785-.769c.05-.432-.343-.768-.785-.768m21.5 0a.767.767 0 0 0-.785.768c0 .433.343.769.785.769a.768.768 0 1 0 0-1.537m-55.518 1.2a.767.767 0 0 0-.786.77c-.049.384.344.768.786.768a.767.767 0 0 0 .785-.768.767.767 0 0 0-.785-.77m12.32 0a.767.767 0 0 0-.785.77c0 .384.344.768.786.768a.768.768 0 1 0 0-1.537m19.636 0a.767.767 0 0 0-.786.77c0 .384.344.768.786.768a.768.768 0 1 0 0-1.537m21.5 0a.767.767 0 0 0-.785.77c-.049.384.344.768.785.768a.767.767 0 0 0 .786-.768.767.767 0 0 0-.786-.77m4.075 0a.77.77 0 0 0-.786.77.8.8 0 0 0 .786.768.767.767 0 0 0 .785-.768.767.767 0 0 0-.785-.77m-59.593 1.442c-.294 0-.49.24-.49.48 0 .241.196.481.49.481.295 0 .491-.24.491-.48a.487.487 0 0 0-.49-.48m16.445 0c-.295 0-.491.24-.491.48 0 .241.196.481.49.481.295 0 .492-.24.492-.48a.487.487 0 0 0-.491-.48m15.56 0c-.294 0-.49.24-.49.48-.05.241.196.481.49.481.295 0 .491-.24.491-.48a.487.487 0 0 0-.49-.48m4.075 0c-.295 0-.491.24-.491.48 0 .241.245.481.49.481.295 0 .492-.24.492-.48a.487.487 0 0 0-.491-.48m21.5 0c-.295 0-.491.24-.491.48-.05.241.196.481.49.481.295 0 .492-.24.492-.48a.487.487 0 0 0-.491-.48"></path></svg>