<svg xmlns="http://www.w3.org/2000/svg" width="41" height="41" fill="none" viewBox="0 0 41 41" aria-labelledby="Warner Bros." style="color: currentcolor;"><path fill="currentColor" d="M37.217 10.91V8.989l-2.573-1.393V5.584l-1.319-.627c-3.746-1.79-7.892-2.983-12.672-3.62l-.312-.042-.312.043c-4.781.635-8.927 1.829-12.675 3.617l-1.319.628v2.01L3.463 8.988v1.925L.668 12.41l.221 1.597c.741 5.359 2.693 10.209 5.805 14.419 3.144 4.253 7.387 7.733 12.613 10.344l1.035.517 1.035-.517c5.225-2.611 9.469-6.091 12.613-10.344 3.111-4.208 5.063-9.06 5.805-14.42l.221-1.596zm.273 2.78c-.261 1.787-1.101 7.627-5.373 13.359-4.344 5.9-10.056 8.765-11.779 9.645-1.723-.881-7.435-3.744-11.779-9.645-4.272-5.733-5.112-11.573-5.373-13.36l2.595-1.391v-1.931l2.571-1.393V7.047c3.558-1.698 7.477-2.812 11.988-3.411 4.509.599 8.429 1.717 11.987 3.41v1.93l2.573 1.393v1.93l2.595 1.393z"></path><path fill="currentColor" d="m16.493 8.275.12 15.697-.109.064c-1.66-4.201-2.653-9.441-2.966-14.699q-1.333.6-2.569 1.383c.357 4.769 1.175 8.941 2.637 12.901l-.829.48c-2.197-3.075-3.632-6.815-4.616-11.253a23 23 0 0 0-2.009 2.059c1.288 5.327 3.315 9.36 6.277 12.645l2.283-1.365a26.3 26.3 0 0 0 4.417 6.469V7.811c-.889.086-1.77.241-2.635.465zm14.7 8.092c.931-1.031 1.13-1.779 1.13-2.687 0-1.285-1.06-2.427-2.604-3.407-.93-.593-2.357-1.312-4.437-1.891a17.5 17.5 0 0 0-3.729-.573v24.848c5.221-2.688 11.432-10.056 11.464-13.805.01-1.145-.595-1.895-1.825-2.485m-7.07-5.587c1.286 0 5.446 1.315 5.446 2.976 0 .599-.528 1.456-2.173 2.321l-3.272 1.755zm3.242 13.781c-.736.847-1.939 2.141-3.243 3.147v-7.131s4.721-2.657 4.895-2.769c1.413.357 1.341 1.397 1.341 1.505 0 1.309-1.339 3.336-2.995 5.249"></path></svg>