<svg xmlns="http://www.w3.org/2000/svg" width="148" height="21" fill="none" viewBox="0 0 148 21" aria-labelledby="Dropout" style="color: currentcolor;"><path fill="currentColor" d="M28.883 20.807V1.084h9.362q1.493 0 2.757.583t2.182 1.57a7.3 7.3 0 0 1 1.422 2.208q.502 1.221.502 2.473 0 1.138-.345 2.194a6.6 6.6 0 0 1-1.004 1.931 7 7 0 0 1-1.58 1.514l4.308 7.25h-6.146l-3.59-6.056h-2.268v6.056zm5.6-10.779h3.533q.345 0 .66-.25.316-.249.531-.721t.216-1.14c0-.444-.082-.846-.244-1.152a2 2 0 0 0-.603-.708q-.36-.25-.704-.25h-3.388v4.223zM57.207 20.946q-2.326 0-4.22-.847a10.2 10.2 0 0 1-3.26-2.278 10.3 10.3 0 0 1-2.096-3.222 9.7 9.7 0 0 1-.733-3.708 9.4 9.4 0 0 1 .777-3.75 10.4 10.4 0 0 1 2.168-3.181 10.2 10.2 0 0 1 3.302-2.209q1.91-.804 4.179-.805c1.512 0 2.958.283 4.222.847a9.9 9.9 0 0 1 3.245 2.291Q66.14 5.53 66.874 7.32a9.6 9.6 0 0 1 .732 3.68c0 1.26-.254 2.538-.76 3.723a10.2 10.2 0 0 1-2.154 3.18 10.4 10.4 0 0 1-3.29 2.222q-1.894.82-4.192.82zm-4.623-10q0 1 .286 1.93a5.1 5.1 0 0 0 .861 1.667q.574.737 1.45 1.166.877.43 2.083.431 1.207 0 2.097-.445a3.95 3.95 0 0 0 1.45-1.209 5.4 5.4 0 0 0 .833-1.694q.272-.93.272-1.904c0-.649-.096-1.305-.286-1.917a5.2 5.2 0 0 0-.861-1.652 3.95 3.95 0 0 0-1.465-1.153q-.89-.416-2.067-.417c-.784 0-1.498.148-2.083.445a4.25 4.25 0 0 0-1.45 1.18 5 5 0 0 0-.847 1.666 6.7 6.7 0 0 0-.272 1.903zM69.982 20.807V1.084h8.788q1.492 0 2.757.583 1.263.583 2.182 1.57a7.3 7.3 0 0 1 1.421 2.208q.503 1.221.503 2.473a6.8 6.8 0 0 1-.847 3.306 7 7 0 0 1-2.356 2.541q-1.507.987-3.518.987H75.58v6.056h-5.6zm5.6-10.779h2.958q.345 0 .661-.194.316-.195.53-.667.216-.473.216-1.25 0-.834-.244-1.292-.245-.459-.603-.64a1.56 1.56 0 0 0-.703-.18h-2.815zM97.067 20.946q-2.327 0-4.221-.847a10.2 10.2 0 0 1-3.26-2.278A10.3 10.3 0 0 1 87.49 14.6a9.7 9.7 0 0 1-.732-3.708 9.4 9.4 0 0 1 .776-3.75 10.4 10.4 0 0 1 2.168-3.181 10.2 10.2 0 0 1 3.303-2.209q1.909-.804 4.178-.805c1.512 0 2.958.283 4.222.847a9.9 9.9 0 0 1 3.245 2.291q1.349 1.445 2.083 3.236a9.6 9.6 0 0 1 .732 3.68 9.5 9.5 0 0 1-.76 3.723 10.2 10.2 0 0 1-2.154 3.18 10.4 10.4 0 0 1-3.289 2.222q-1.896.82-4.193.82zm-4.624-10q0 1 .286 1.93.288.932.862 1.667.573.737 1.45 1.166.875.43 2.082.431 1.207 0 2.097-.445a3.95 3.95 0 0 0 1.45-1.209q.561-.763.833-1.694.273-.93.273-1.904c0-.649-.097-1.305-.287-1.917a5.2 5.2 0 0 0-.861-1.652 3.95 3.95 0 0 0-1.464-1.153q-.89-.416-2.067-.417c-.785 0-1.499.148-2.083.445a4.25 4.25 0 0 0-1.45 1.18 5 5 0 0 0-.847 1.666 6.7 6.7 0 0 0-.273 1.903zM118.738 20.945q-2.44 0-4.192-.776-1.752-.777-2.858-2.136a8.8 8.8 0 0 1-1.623-3.12 13.1 13.1 0 0 1-.516-3.704V1.084h5.6v10.12q0 .971.201 1.859.201.887.632 1.58.43.694 1.105 1.096.675.401 1.651.402c.652 0 1.235-.133 1.694-.402q.69-.403 1.106-1.11.415-.706.617-1.594a8.3 8.3 0 0 0 .201-1.83V1.085h5.6v10.125q0 2.053-.56 3.828-.56 1.776-1.68 3.107t-2.858 2.067-4.121.734zM147.063 5.806h-5.858v15h-5.6v-15h-5.888V1.084h17.346zM.34 8.976V3.86h5.132v5.116zm0 9.315v-5.116h5.132v5.116zM8.676 20.885V1.14h7.849q3.392 0 5.678 1.322 2.284 1.32 3.45 3.56 1.165 2.239 1.165 4.963 0 3.003-1.28 5.227t-3.594 3.449-5.42 1.224zm12.448-9.9q0-1.53-.546-2.683a4.14 4.14 0 0 0-1.58-1.794q-1.035-.64-2.474-.64h-2.241v10.289h2.242q1.466 0 2.487-.667 1.02-.666 1.566-1.848.545-1.182.546-2.656z"></path></svg>