<svg xmlns="http://www.w3.org/2000/svg" width="45" height="40" fill="none" viewBox="0 0 45 40" aria-labelledby="Even Odd" style="color: currentcolor;"><path fill="currentColor" d="M10.612 6.573v2.876H4.5v2.876h7.209v2.877H.975V1.212h10.62v2.876H4.5v2.485zM15.21 5.184l2.037 6.534h.04l2.036-6.534h3.135L18.99 15.2h-3.445L12.078 5.184zM29.79 12.167h3.114c-.548 2.015-2.115 3.346-4.837 3.346-3.33 0-5.348-2.19-5.348-5.321 0-3.052 1.98-5.322 5.171-5.322 3.428 0 5.172 2.504 5.172 6.143h-7.21c0 1.41 1.04 2.157 2.155 2.157 1.074-.004 1.583-.514 1.783-1.003m-3.937-3.056h4.074c0-1.389-.843-2.093-2.037-2.093s-2.041.712-2.041 2.098zM44.032 8.43v6.77h-3.135V9.43c0-1.507-.528-2.016-1.567-2.016-1.195 0-1.88.606-1.88 1.995V15.2h-3.135V5.184h3.135V6.63h.039c.529-.92 1.508-1.76 3.29-1.76 1.94 0 3.253 1.271 3.253 3.56M8.1 31.55c0-4.057 2.16-7.225 5.405-7.225 3.294 0 5.455 3.203 5.455 7.243 0 4.073-2.143 7.225-5.4 7.225-3.3-.005-5.46-3.191-5.46-7.242m8.856 1.48c0-3.674-1.308-7.957-3.818-7.957-1.97 0-3.033 2.438-3.033 4.997 0 3.709 1.29 7.974 3.818 7.974 1.984-.004 3.03-2.424 3.03-5.018zM28.26 37.813l-2.58.975-.366-.296v-1.427h-.07c-.45 1.028-1.237 1.723-2.37 1.723-1.674 0-2.7-1.862-2.7-4.614 0-3.047 1.26-5.205 3.172-5.205.871 0 1.586.366 1.97.974v-3.255c0-1.131.017-1.34-1.029-.835l-.174-.366 2.667-1.323.226.243v12.03c0 1.17.018 1.393 1.1.976zm-2.946-1.618v-3.221c0-1.708-.523-3.1-1.604-3.1-1.22 0-1.743 1.708-1.743 3.882 0 2.212.488 3.813 1.64 3.813.77.004 1.274-.574 1.71-1.375zM36.909 37.813l-2.58.975-.367-.296v-1.427h-.069c-.45 1.028-1.237 1.723-2.37 1.723-1.674 0-2.7-1.862-2.7-4.614 0-3.047 1.254-5.205 3.172-5.205.871 0 1.587.366 1.97.974v-3.255c0-1.131.017-1.34-1.029-.835l-.176-.366 2.668-1.323.226.243v12.03c0 1.17.017 1.393 1.097.976zm-2.947-1.618v-3.221c0-1.708-.523-3.1-1.603-3.1-1.22 0-1.743 1.708-1.743 3.882 0 2.212.488 3.813 1.638 3.813.768.004 1.273-.574 1.708-1.375zM43.988 19.104H.968v1.438h43.02z"></path></svg>