<svg xmlns="http://www.w3.org/2000/svg" width="49" height="52" fill="none" viewBox="0 0 49 52" aria-labelledby="European Film Academy" style="color: currentcolor;"><path fill="currentColor" d="M47.6.676v21.791H33.395V.676zm.462-.469h-15.13v22.73h15.13zm-2.028 2.054v22.586H27.917V2.261zm.464-.468h-19.04v23.523h19.04zm-2.03 2.055v23.377h-22.03V3.848zm.463-.47H21.983v24.316H44.93zm-2.027 2.055v24.17H16.96V5.433zm.462-.468H16.499v25.108h26.869zm-2.288 2.054v24.964h-29.6V7.019zm.463-.474H11.019v25.907h30.522zm-2.29 2.06v25.756H6.263V8.606zm.464-.47H5.795V34.83h33.92zm-2.29 2.056V36.74H.526V10.191zm.463-.47H.063V37.21h37.825zM2.943 41.197H.663v1.56h1.836v.54H.663v1.646h2.28v.555H.063v-4.863h2.88zm.864 2.331v-2.885h.6v2.9c0 1.011.539 1.468 1.29 1.468.75 0 1.28-.457 1.28-1.468v-2.9h.605v2.885c0 1.34-.756 2.038-1.89 2.038-1.132 0-1.884-.697-1.884-2.038zm7.41 1.97-2.035-2.223c.048.5.048 1.197.048 2.223h-.598v-4.863h1.688c.999 0 1.6.56 1.6 1.408 0 .95-.742 1.409-1.54 1.409h-.378c.236.225.69.712 1.958 2.038zm-.96-4.3H9.233v1.821h1.017c.696 0 1.061-.382 1.061-.916 0-.533-.37-.906-1.06-.906zm2.286 1.873c0-1.423 1.04-2.496 2.422-2.496s2.416 1.073 2.416 2.496-1.038 2.495-2.416 2.495-2.422-1.073-2.422-2.495m4.238 0c0-1.067-.776-1.929-1.816-1.929s-1.82.862-1.82 1.929.775 1.928 1.82 1.928 1.813-.861 1.813-1.928zm3.192-2.432c.978 0 1.7.534 1.7 1.573s-.722 1.593-1.734 1.593H18.91v1.69h-.608V40.63zm0 2.605c.64 0 1.1-.324 1.1-1.017 0-.694-.466-1.033-1.1-1.033H18.91v2.05zm5.466-2.05h-2.285v1.56h1.837v.54h-1.837v1.646h2.281v.555h-2.88V40.63h2.88zm4.041 4.3c-.168-.486-.31-.896-.438-1.272h-2l-.432 1.273h-.627l1.72-4.864h.681l1.735 4.864zm-.614-1.783c-.674-1.961-.783-2.344-.83-2.686-.053.342-.16.725-.817 2.686zm5.92-3.08v4.864h-.567l-2.72-3.891c.034.342.04 1.094.04 3.89h-.597v-4.863h.569l2.72 3.918c-.034-.348-.04-1.094-.04-3.918zM.066 51.71v-4.843H2.89v.56H.671v1.6h1.91v.54H.67v2.154zm3.637 0v-4.843h.601v4.854zm1.788 0v-4.843h.6v4.3h2.11v.554zm7.727-4.854h.566v4.854h-.602c0-2.612 0-3.508.047-3.904l-1.806 2.814-1.818-2.802c.048.403.048 1.326.048 3.903H9.05v-4.853h.568l1.802 2.755zm6.525 4.865c-.16-.478-.31-.896-.439-1.27h-1.992l-.432 1.27h-.62l1.723-4.853h.681l1.734 4.853zm-.615-1.783c-.674-1.962-.782-2.344-.829-2.686-.054.342-.16.724-.817 2.686zm1.6-.649c0-1.395 1.046-2.496 2.389-2.496.51-.023 1.01.135 1.418.446v.608a1.9 1.9 0 0 0-1.344-.5c-.51 0-.998.205-1.358.57s-.562.86-.562 1.376.202 1.01.562 1.375.848.57 1.358.57c.495.018.977-.161 1.344-.5v.608c-.408.31-.91.467-1.418.445-1.338-.002-2.384-1.103-2.384-2.497zm7.86 2.432c-.16-.478-.31-.896-.437-1.27h-1.992l-.432 1.27h-.621l1.72-4.853h.681l1.735 4.853zm-.614-1.783c-.673-1.962-.782-2.344-.828-2.686-.055.342-.16.724-.818 2.686zm2.08 1.783v-4.853h1.529c1.457 0 2.34 1.065 2.34 2.431s-.883 2.432-2.34 2.432zm.602-.554h.927c1.05 0 1.74-.732 1.74-1.873s-.69-1.874-1.74-1.874h-.925zm7.078-3.747h-2.278v1.56h1.835v.54h-1.835v1.647h2.282v.554h-2.88v-4.853h2.88zm5.082-.553h.566v4.854h-.6c0-2.612 0-3.508.047-3.903l-1.806 2.802-1.821-2.802c.048.403.048 1.326.048 3.903h-.602v-4.853h.566l1.804 2.755zm5.216 0-1.657 2.799v2.05h-.607v-2.05l-1.66-2.803h.687c.898 1.51 1.162 2.016 1.28 2.358.122-.335.39-.841 1.28-2.358z"></path></svg>