<svg xmlns="http://www.w3.org/2000/svg" width="86" height="27" fill="none" viewBox="0 0 86 27" aria-labelledby="Coca-Cola" style="color: currentcolor;"><path fill="currentColor" fill-rule="evenodd" d="m68.827 6.526-.005-.003a46 46 0 0 1 1.993-2.042c-.86-.417-1.655-.89-2.424-1.347-1.667-.991-3.212-1.91-5.04-2.033a9.46 9.46 0 0 0-4.152.683s-.71-.96-2.9-.649c-2.188.311-8.929 3.11-14.674 12.24-5.192 8.253-2.752 12.986.977 12.935 4.043-.056 7.887-4.524 9.191-8.207s-.234-4.682-1.416-4.587c-1.307.11-3.615 1.265-4.885 3.82s-1.27 4.127-1.27 4.127a13 13 0 0 1 1.688-1.483 7.6 7.6 0 0 1 1.78-1.03 9.2 9.2 0 0 1 .662-1.913c.46-.952 1.187-1.943 2.086-2.166 1.824-.454.95 2.853-.39 5.01-.721 1.15-3.279 4.479-5.474 4.479s-2.616-2.103-2.155-4.077 1.104-4.47 4.314-9.015 6.68-7.24 8.69-8.37c2.064-1.163 2.904-.653 2.904-.653s-2.635 1.607-4.135 3.55c-1.431 1.855-2.289 3.94-1.624 4.963.635.974 2.865.993 5.324-2.533 2.428-3.482 1.817-5.553 1.817-5.553q.24-.077.489-.121c1.185-.158 2.132.155 3.598.903.714.365 1.416.832 2.165 1.331.86.573 1.783 1.188 2.861 1.738l-.002.003zM58.88 2.942s-1.563.619-3.38 2.61c-1.818 1.991-2.878 4.232-2.094 4.825.3.225.995.264 2.255-.862a9.9 9.9 0 0 0 2.665-3.674c.767-1.86.58-2.77.556-2.887z" clip-rule="evenodd"></path><path fill="currentColor" d="M71.994 7.653v.002c4.269.84 8.008-1.79 9.996-4.029A13.2 13.2 0 0 0 83.85.987a16.7 16.7 0 0 1-3.019 2.467l-.012-.002c-1.852 1.18-4.414 2.25-6.876 2.015a37 37 0 0 0-1.954 2.185z"></path><path fill="currentColor" fill-rule="evenodd" d="M73.499 22.738c-.355.563-.758 1.644.412.971 1.424-.818 3.454-3.885 3.454-3.885h.918a30.6 30.6 0 0 1-2.789 3.642c-1.443 1.59-3.204 3.036-4.445 2.892-1.449-.167-.994-2.059-.994-2.059s-2.081 2.186-3.51 2.038c-1.937-.214-1.346-2.594-1.346-2.594s-2.198 2.671-3.683 2.591c-2.34-.133-1.751-2.972-1.102-4.958a44 44 0 0 1 .672-1.904s-.232.061-.733.134a12 12 0 0 1-.732.063 32 32 0 0 1-1.754 2.736c-.78 1.03-4.089 4.568-6.043 3.859-1.802-.656-1.206-3.4-.156-5.585 1.531-3.178 5.84-7.746 8.324-7.146 2.577.622.058 5.293.058 5.293s0 .017.027.03c.163.029.33.02.489-.027q.484-.098.942-.28s2.59-5.39 5.45-8.915C69.818 6.108 75.53.043 77.77 1.512c.547.361.297 1.605-.44 3.115q-.499.156-1.011.262a8.2 8.2 0 0 0 .918-2.166c.337-1.82-3.942 2.018-7 6.15a57 57 0 0 0-4.885 7.875 13 13 0 0 0 1.578-1.117 45 45 0 0 0 3.883-3.603 42 42 0 0 0 3.295-3.803q.492-.022.977-.1a42 42 0 0 1-3.646 4.284l-.326.324c-1.127 1.122-2.316 2.306-3.362 3.182q-1.535 1.304-3.227 2.4s-2.687 5.36-1.221 5.705c.855.204 2.545-2.382 2.545-2.382s2.198-3.343 3.532-4.856c1.802-2.04 3.363-3.215 4.914-3.246.908-.018 1.443.947 1.443.947l.428-.659h2.63s-4.912 8.285-5.305 8.91zm1.648-7.328a1 1 0 0 0 .078-.177.426.426 0 0 0-.39-.372c-.406-.02-.963.058-2.416 1.659a21.7 21.7 0 0 0-3.092 4.37c-.833 1.513-1.17 2.64-.691 2.931.155.08.335.098.503.051.325-.078.691-.379 1.25-1.022.21-.241.438-.564.699-.932l.002-.003.198-.28c.963-1.3 3.38-5.4 3.86-6.227zm-15.109 1.738c.244-.63.552-1.869-.09-2.355-.691-.517-2.443.695-2.46 1.943s1.239 1.848 1.539 1.928c.17.046.23.038.313-.098q.398-.682.698-1.413zm-1.331 2.32a5.3 5.3 0 0 1-1.209-.768 3.9 3.9 0 0 1-.911-1.095c-.02-.034-.04-.012-.062.012l-.014.015c-.027.027-.137.136-1.074 1.5-.943 1.372-2.38 4.198-1.075 4.682.835.308 2.225-1.146 2.987-2.11q.775-1.01 1.4-2.118c.039-.082 0-.102-.042-.119" clip-rule="evenodd"></path><path fill="currentColor" d="M43.898 7.519h-2.501L39.982 9.79h2.502z"></path><path fill="currentColor" fill-rule="evenodd" d="M38.025 13.737h.909s-4.592 6.597-7.188 6.296c-1.449-.167-1.019-1.942-1.019-1.942s-2.04 2.367-3.908 1.894c-1.695-.433-.6-3.232-.6-3.232-.03.011-.136.113-.305.275-.96.917-3.94 3.763-6.132 2.925-2.686-1.034-1.297-4.475-.784-5.51.435-.871.916-1.72.916-1.72s-.413.116-.671.174c-.26.058-.648.133-.648.133s-1.275 2.062-2.054 3.089-4.093 4.563-6.045 3.858-1.465-3.419-.371-5.584c1.778-3.497 5.999-7.795 8.549-7.149s.442 4.791.442 4.791.51.066 1.734-.765c.505-.342 1.056-.85 1.644-1.39 1.466-1.35 3.162-2.912 4.95-2.643 1.183.177 2.284 1.384.777 3.674-.488.728-1.292 1.394-1.912.743-.386-.4-.05-1.142.356-1.646a1.59 1.59 0 0 1 1.36-.617s.416-.95-.642-.93c-.857.017-3.026 2-4.25 4.006-1.108 1.848-2.806 4.985-1.108 5.67 1.565.629 4.545-2.887 5.925-4.73s4.521-6.02 7.159-6.187c.908-.058 1.448.765 1.448.765l.306-.486h2.633s-4.959 8.253-5.347 8.873c-.305.485-.71 1.585.413.97 1.123-.614 3.463-3.605 3.463-3.605m-5.972 1.644c1.065-1.457 4.001-6.532 4.001-6.532a.43.43 0 0 0-.39-.371c-.406-.02-1.08.116-2.443 1.792s-2.379 3.008-3.136 4.395c-.835 1.512-1.2 2.58-.72 2.87a.7.7 0 0 0 .502.05c.313-.077.72-.388 1.28-1.029.264-.299.562-.702.911-1.175zM18.637 8.509c-.691-.52-2.442.695-2.46 1.943s1.588 1.636 1.796 1.646a.22.22 0 0 0 .244-.102q.282-.55.505-1.124c.245-.631.55-1.87-.092-2.355zm-1.05 4.378a6 6 0 0 1-1.356-.619 2.8 2.8 0 0 1-.977-1.066c-.021-.036-.044-.01-.066.016l-.01.01c-.024.027-.166.212-1.106 1.584s-2.335 4.179-1.028 4.66c.835.308 2.24-1.152 3-2.115a25 25 0 0 0 1.584-2.348c.032-.083 0-.102-.046-.117z" clip-rule="evenodd"></path><path fill="currentColor" d="M36.59 26.946a10.97 10.97 0 0 0-6.63-1.923 4.1 4.1 0 0 0-1.826.487 4.05 4.05 0 0 0-1.407 1.256c-1.006-1.745-2.994-2.816-6.07-2.792-2.603.03-5.196.669-7.637 1.27-2.216.547-4.306 1.062-6.162 1.06-3.747 0-6.475-2.34-6.385-6.494.161-7.285 6.35-13.84 10.991-16.798 2.66-1.7 4.885-2.2 6.35-2.037 1.063.116 2.34 1.338 1.534 3.137-1.184 2.635-2.82 2.414-2.76 1.156a2.07 2.07 0 0 1 .994-1.615c.3-.162.636-.246.977-.243.245-.196.413-1.636-1.492-1.163-1.905.474-4.225 2.336-6.414 4.74S5.06 13.93 4.217 18.7c-.393 2.212-.132 6.245 5.13 6.201 2.028-.016 4.496-.628 7.153-1.287 3.196-.791 6.665-1.652 9.973-1.626 2.11-.01 4.183.555 5.994 1.631 1.568.972 3.446 2.36 4.113 3.317z"></path></svg>