<svg width="25" height="25" viewBox="0 0 25 25" fill="none" xmlns="http://www.w3.org/2000/svg">
<path d="M15.825 13.723L12.164 17.463C12.0737 17.5553 12.0024 17.6644 11.9542 17.7842C11.906 17.904 11.8819 18.0322 11.8833 18.1613C11.8846 18.2904 11.9114 18.418 11.962 18.5368C12.0127 18.6556 12.0863 18.7632 12.1785 18.8535C12.2708 18.9439 12.3799 19.0152 12.4997 19.0633C12.6195 19.1115 12.7476 19.1356 12.8768 19.1343C13.0059 19.1329 13.1335 19.1062 13.2523 19.0555C13.371 19.0048 13.4787 18.9313 13.569 18.839L18.705 13.593C19.085 13.205 19.085 12.575 18.705 12.187L13.569 6.94104C13.3865 6.75472 13.1375 6.64852 12.8768 6.64581C12.616 6.64309 12.3648 6.74407 12.1785 6.92654C11.9922 7.10901 11.886 7.35802 11.8833 7.61878C11.8806 7.87955 11.9815 8.13072 12.164 8.31704L15.824 12.057H7.32401C7.10309 12.057 6.89121 12.1448 6.73499 12.301C6.57877 12.4572 6.49101 12.6691 6.49101 12.89C6.49101 13.111 6.57877 13.3228 6.73499 13.4791C6.89121 13.6353 7.10309 13.723 7.32401 13.723H15.825Z" fill="#FAFCFD"/>
</svg>
