<svg width="24" height="24" viewBox="0 0 24 24" fill="none" xmlns="http://www.w3.org/2000/svg">
<path fill-rule="evenodd" clip-rule="evenodd" d="M12 2.04004C9.28416 2.04004 8.94358 2.05156 7.87701 2.10022C6.81259 2.14877 6.08569 2.31783 5.44958 2.56505C4.79203 2.82057 4.23432 3.1625 3.67839 3.71843C3.12242 4.2744 2.78052 4.83208 2.52497 5.48962C2.27775 6.12574 2.10872 6.85263 2.06014 7.91706C2.01147 8.98366 2 9.32417 2 12.04C2 14.7559 2.01147 15.0964 2.06014 16.163C2.10872 17.2274 2.27775 17.9544 2.52497 18.5904C2.78052 19.248 3.12242 19.8057 3.67839 20.3616C4.23432 20.9176 4.79203 21.2595 5.44958 21.5151C6.08569 21.7623 6.81259 21.9313 7.87701 21.9799C8.94358 22.0285 9.28416 22.04 12 22.04C14.7158 22.04 15.0563 22.0285 16.1229 21.9799C17.1874 21.9313 17.9143 21.7623 18.5504 21.5151C19.208 21.2595 19.7656 20.9176 20.3216 20.3616C20.8775 19.8057 21.2194 19.248 21.475 18.5904C21.7222 17.9544 21.8913 17.2274 21.9398 16.163C21.9885 15.0964 22 14.7559 22 12.04C22 9.32421 21.9885 8.98366 21.9398 7.91706C21.8913 6.85263 21.7222 6.12574 21.475 5.48962C21.2194 4.83208 20.8775 4.2744 20.3216 3.71843C19.7656 3.1625 19.208 2.82057 18.5504 2.56505C17.9143 2.31783 17.1874 2.14877 16.1229 2.10022C15.0563 2.05156 14.7158 2.04004 12 2.04004ZM12.0006 3.84146C14.6707 3.84146 14.987 3.85162 16.0414 3.89973C17.0164 3.94423 17.5459 4.10713 17.8983 4.24408C18.3651 4.42549 18.6982 4.64218 19.0481 4.9921C19.3981 5.34205 19.6147 5.67517 19.7962 6.14194C19.9331 6.49432 20.096 7.02381 20.1405 7.9988C20.1886 9.05326 20.1988 9.36955 20.1988 12.0396C20.1988 14.7098 20.1886 15.0261 20.1405 16.0805C20.096 17.0555 19.9331 17.585 19.7962 17.9374C19.6147 18.4041 19.3981 18.7373 19.0481 19.0872C18.6982 19.4371 18.3651 19.6538 17.8983 19.8352C17.5459 19.9721 17.0164 20.1351 16.0414 20.1795C14.9871 20.2277 14.6709 20.2379 12.0006 20.2379C9.33027 20.2379 9.01406 20.2277 7.95976 20.1795C6.98477 20.1351 6.45524 19.9721 6.10287 19.8352C5.63613 19.6538 5.30297 19.4371 4.95306 19.0872C4.60315 18.7373 4.38641 18.4041 4.20501 17.9374C4.0681 17.585 3.90519 17.0555 3.86069 16.0805C3.81258 15.0261 3.80242 14.7098 3.80242 12.0396C3.80242 9.36955 3.81258 9.05326 3.86069 7.9988C3.90519 7.02381 4.0681 6.49432 4.20501 6.14194C4.38641 5.67517 4.60315 5.34205 4.95306 4.99214C5.30297 4.64218 5.63613 4.42549 6.10287 4.24408C6.45524 4.10713 6.98477 3.94423 7.95972 3.89973C9.01422 3.85162 9.33047 3.84146 12.0006 3.84146Z" fill="#3D4751"/>
<path fill-rule="evenodd" clip-rule="evenodd" d="M11.9975 15.3693C10.1572 15.3693 8.66521 13.8773 8.66521 12.037C8.66521 10.1966 10.1572 8.70473 11.9975 8.70473C13.8379 8.70473 15.3298 10.1966 15.3298 12.037C15.3298 13.8773 13.8379 15.3693 11.9975 15.3693ZM11.9963 6.90332C9.16117 6.90332 6.86279 9.20165 6.86279 12.0368C6.86279 14.872 9.16117 17.1703 11.9963 17.1703C14.8315 17.1703 17.1298 14.872 17.1298 12.0368C17.1298 9.20165 14.8315 6.90332 11.9963 6.90332Z" fill="#3D4751"/>
<path fill-rule="evenodd" clip-rule="evenodd" d="M18.5323 6.70058C18.5323 7.36312 17.9952 7.90018 17.3327 7.90018C16.6702 7.90018 16.1331 7.36312 16.1331 6.70058C16.1331 6.03804 16.6702 5.50098 17.3327 5.50098C17.9952 5.50098 18.5323 6.03804 18.5323 6.70058Z" fill="#3D4751"/>
</svg>
