<svg width="26" height="26" viewBox="0 0 26 26" fill="none" xmlns="http://www.w3.org/2000/svg">
<path fill-rule="evenodd" clip-rule="evenodd" d="M20.6303 20.6294H17.417V15.6015C17.417 14.402 17.3965 12.8595 15.7474 12.8595C14.0749 12.8595 13.8203 14.1667 13.8203 15.5154V20.6294H10.6106V10.2896H13.6909V11.7033H13.7348C14.1634 10.8902 15.2118 10.0332 16.7754 10.0332C20.029 10.0332 20.6303 12.174 20.6303 14.9587V20.6294ZM6.98424 8.8767C5.95207 8.8767 5.1197 8.04193 5.1197 7.01276C5.1197 5.9842 5.95207 5.14943 6.98424 5.14943C8.0122 5.14943 8.84697 5.9842 8.84697 7.01276C8.84697 8.04193 8.0122 8.8767 6.98424 8.8767ZM5.37743 20.6296H8.59433V10.2898H5.37743V20.6296ZM22.2301 2.16699H3.76527C2.88355 2.16699 2.16675 2.86634 2.16675 3.72939V22.2706C2.16675 23.1331 2.88355 23.8337 3.76527 23.8337H22.2301C23.1136 23.8337 23.8328 23.1331 23.8328 22.2706V3.72939C23.8328 2.86634 23.1136 2.16699 22.2301 2.16699Z" fill="#3D4751"/>
</svg>
