<svg width="25" height="24" viewBox="0 0 25 24" fill="none" xmlns="http://www.w3.org/2000/svg">
<path d="M22.817 14.4H21.617V2.4H22.817C23.1352 2.4 23.4405 2.27357 23.6655 2.04853C23.8905 1.82348 24.017 1.51826 24.017 1.2C24.017 0.88174 23.8905 0.576516 23.6655 0.351472C23.4405 0.126428 23.1352 0 22.817 0L1.21697 0C0.89871 0 0.593486 0.126428 0.368442 0.351472C0.143398 0.576516 0.0169701 0.88174 0.0169701 1.2C0.0169701 1.51826 0.143398 1.82348 0.368442 2.04853C0.593486 2.27357 0.89871 2.4 1.21697 2.4H2.41697V14.4H1.21697C1.05797 14.3978 0.900112 14.4271 0.752565 14.4864C0.605017 14.5457 0.470725 14.6337 0.357493 14.7454C0.244261 14.857 0.154346 14.99 0.0929751 15.1367C0.0316039 15.2834 0 15.4409 0 15.5999C0 15.7589 0.0316039 15.9163 0.0929751 16.063C0.154346 16.2097 0.244261 16.3427 0.357493 16.4544C0.470725 16.566 0.605017 16.6541 0.752565 16.7133C0.900112 16.7726 1.05797 16.802 1.21697 16.7998H10.817V18.1798L5.35697 21.7798C5.13297 21.9184 4.96082 22.1269 4.86709 22.3731C4.77336 22.6193 4.76325 22.8895 4.83832 23.1421C4.9134 23.3946 5.06948 23.6154 5.28249 23.7704C5.4955 23.9254 5.7536 24.006 6.01697 23.9998C6.25289 24.0025 6.48372 23.9311 6.67697 23.7958L10.817 21.0598V22.7998C10.817 23.118 10.9434 23.4232 11.1684 23.6483C11.3935 23.8733 11.6987 23.9998 12.017 23.9998C12.3352 23.9998 12.6405 23.8733 12.8655 23.6483C13.0905 23.4232 13.217 23.118 13.217 22.7998V21.0598L17.357 23.7958C17.5502 23.9311 17.781 24.0025 18.017 23.9998C18.2733 23.9978 18.5224 23.9137 18.7275 23.76C18.9326 23.6062 19.0831 23.3907 19.1569 23.1452C19.2307 22.8997 19.2239 22.6369 19.1376 22.3955C19.0512 22.1541 18.8898 21.9468 18.677 21.8038L13.217 18.2038V16.7998H22.817C23.1352 16.7998 23.4405 16.6733 23.6655 16.4483C23.8905 16.2232 24.017 15.918 24.017 15.5998C24.017 15.2815 23.8905 14.9763 23.6655 14.7512C23.4405 14.5262 23.1352 14.4 22.817 14.4ZM19.217 14.3998H4.81697V2.4H19.217V14.3998Z" fill="#0A0E12"/>
</svg>
