<svg width="24" height="24" viewBox="0 0 24 24" fill="none" xmlns="http://www.w3.org/2000/svg">
<path fill-rule="evenodd" clip-rule="evenodd" d="M16.8 12.3077C19.451 12.3077 21.6 10.1035 21.6 7.38456C21.6 4.6656 19.451 2.46144 16.8 2.46144C14.149 2.46144 12 4.6656 12 7.3848C12 10.104 14.149 12.3077 16.8 12.3077ZM16.8 14.7696C20.7766 14.7696 24 11.4634 24 7.3848C24 3.30624 20.7766 0 16.8 0C12.8237 0 9.6 3.30624 9.6 7.3848C9.6 11.4631 12.8237 14.7696 16.8 14.7696ZM4.8 17.2308C6.12552 17.2308 7.2 16.1287 7.2 14.7691C7.2 13.4098 6.12552 12.3077 4.8 12.3077C3.47448 12.3077 2.4 13.4098 2.4 14.7696C2.4 16.129 3.47448 17.2308 4.8 17.2308ZM4.8 19.6925C7.45104 19.6925 9.6 17.4883 9.6 14.7694C9.6 12.0506 7.45104 9.84648 4.8 9.84648C2.14896 9.84648 0 12.0502 0 14.7691C0 17.4881 2.14896 19.6925 4.8 19.6925ZM16.8 21.5386C17.4626 21.5386 18 20.9875 18 20.3076C18 19.6277 17.4626 19.0769 16.8 19.0769C16.1374 19.0769 15.6 19.6279 15.6 20.3076C15.6 20.9873 16.1374 21.5386 16.8 21.5386ZM16.8 24C18.7882 24 20.4 22.3469 20.4 20.3076C20.4 18.2683 18.7882 16.6154 16.8 16.6154C14.8118 16.6154 13.2 18.2686 13.2 20.3076C13.2 22.3466 14.8118 24 16.8 24Z" fill="#0A0E12"/>
</svg>
