<svg width="24" height="24" viewBox="0 0 24 24" fill="none" xmlns="http://www.w3.org/2000/svg">
<path fill-rule="evenodd" clip-rule="evenodd" d="M2.4 5.4001C2.4 4.07458 3.47448 3.0001 4.8 3.0001H12C13.3255 3.0001 14.4 4.07458 14.4 5.4001V21.0001H12V15.0001C12 14.6818 11.8736 14.3766 11.6485 14.1516C11.4235 13.9265 11.1183 13.8001 10.8 13.8001H6C5.68174 13.8001 5.37652 13.9265 5.15147 14.1516C4.92643 14.3766 4.8 14.6818 4.8 15.0001V21.0001H2.4V5.4001ZM7.2 21.0001H9.6V16.2001H7.2V21.0001ZM6 23.4001H1.2C0.88174 23.4001 0.576515 23.2737 0.351472 23.0486C0.126428 22.8236 0 22.5184 0 22.2001L0 5.4001C0 2.74906 2.14896 0.600098 4.8 0.600098H12C14.651 0.600098 16.8 2.74906 16.8 5.4001V7.8001H19.2C21.851 7.8001 24 9.94906 24 12.6001V22.2001C24 22.5184 23.8736 22.8236 23.6485 23.0486C23.4235 23.2737 23.1183 23.4001 22.8 23.4001H6ZM19.2 10.2001C20.5255 10.2001 21.6 11.2746 21.6 12.6001V21.0001H16.8V10.2001H19.2ZM6 4.9501C5.68174 4.9501 5.37652 5.07653 5.15147 5.30157C4.92643 5.52661 4.8 5.83184 4.8 6.1501C4.8 6.46836 4.92643 6.77358 5.15147 6.99863C5.37652 7.22367 5.68174 7.3501 6 7.3501C6.31826 7.3501 6.62348 7.22367 6.84853 6.99863C7.07357 6.77358 7.2 6.46836 7.2 6.1501C7.2 5.83184 7.07357 5.52661 6.84853 5.30157C6.62348 5.07653 6.31826 4.9501 6 4.9501ZM6 9.6001C5.68174 9.6001 5.37652 9.72653 5.15147 9.95157C4.92643 10.1766 4.8 10.4818 4.8 10.8001C4.8 11.1184 4.92643 11.4236 5.15147 11.6486C5.37652 11.8737 5.68174 12.0001 6 12.0001C6.31826 12.0001 6.62348 11.8737 6.84853 11.6486C7.07357 11.4236 7.2 11.1184 7.2 10.8001C7.2 10.4818 7.07357 10.1766 6.84853 9.95157C6.62348 9.72653 6.31826 9.6001 6 9.6001ZM10.8 4.9501C10.4817 4.9501 10.1765 5.07653 9.95147 5.30157C9.72643 5.52661 9.6 5.83184 9.6 6.1501C9.6 6.46836 9.72643 6.77358 9.95147 6.99863C10.1765 7.22367 10.4817 7.3501 10.8 7.3501C11.1183 7.3501 11.4235 7.22367 11.6485 6.99863C11.8736 6.77358 12 6.46836 12 6.1501C12 5.83184 11.8736 5.52661 11.6485 5.30157C11.4235 5.07653 11.1183 4.9501 10.8 4.9501ZM10.8 9.6001C10.4817 9.6001 10.1765 9.72653 9.95147 9.95157C9.72643 10.1766 9.6 10.4818 9.6 10.8001C9.6 11.1184 9.72643 11.4236 9.95147 11.6486C10.1765 11.8737 10.4817 12.0001 10.8 12.0001C11.1183 12.0001 11.4235 11.8737 11.6485 11.6486C11.8736 11.4236 12 11.1184 12 10.8001C12 10.4818 11.8736 10.1766 11.6485 9.95157C11.4235 9.72653 11.1183 9.6001 10.8 9.6001Z" fill="#0A0E12"/>
</svg>
