<svg width="24" height="24" viewBox="0 0 24 24" fill="none" xmlns="http://www.w3.org/2000/svg">
<path d="M22.9896 0.225609C22.1303 0.0789715 21.2604 0.00351533 20.3887 8.49322e-06C17.4181 -0.00308836 14.5081 0.84077 12 2.43265C9.48552 0.861574 6.57591 0.0384026 3.61104 0.0592885C2.73951 0.0628217 1.86976 0.138278 1.01064 0.284889C0.72994 0.332354 0.475254 0.478071 0.292084 0.696009C0.109733 0.91274 0.0117288 1.188 0.0160841 1.47121V15.7106C0.0134441 15.8851 0.0496841 16.0579 0.122164 16.2168C0.194928 16.376 0.301959 16.5171 0.435604 16.6301C0.570107 16.7434 0.727693 16.826 0.897386 16.8722C1.06708 16.9184 1.2448 16.927 1.41816 16.8974C3.13561 16.6033 4.8943 16.6521 6.5928 17.041C8.28867 17.4293 9.89042 18.1509 11.305 19.1638L11.4487 19.2468H11.5807C11.8494 19.3574 12.1509 19.3574 12.4195 19.2468H12.5513L12.6953 19.1638C14.1 18.1284 15.6971 17.3835 17.393 16.9726C19.092 16.5611 20.8557 16.4912 22.5818 16.7669C22.7552 16.7964 22.9329 16.7878 23.1026 16.7416C23.2723 16.6955 23.4299 16.6128 23.5644 16.4995C23.698 16.3865 23.8051 16.2454 23.8778 16.0863C23.9504 15.9275 23.9867 15.7546 23.9842 15.5801V1.34113C23.9715 1.07021 23.866 0.811897 23.6854 0.609608C23.5037 0.406254 23.2585 0.270819 22.9896 0.225609ZM10.8014 15.9955C8.58092 14.8399 6.11426 14.2374 3.61104 14.2392H2.41248V2.37361C2.8116 2.35093 3.21169 2.35093 3.6108 2.37361C6.16453 2.36976 8.66374 3.11218 10.8012 4.50961L10.8014 15.9955ZM21.587 14.2867H20.3887C17.8855 14.285 15.4188 14.8875 13.1983 16.0431V4.50913C15.3358 3.1117 17.835 2.36928 20.3887 2.37313C20.7878 2.35045 21.1879 2.35045 21.587 2.37313V14.2867ZM22.9891 19.2113C22.13 19.0647 21.2603 18.9892 20.3887 18.9857C17.418 18.9827 14.5081 19.8268 12 21.4188C9.49179 19.827 6.58174 18.9832 3.61104 18.9864C2.73952 18.9899 1.86977 19.0652 1.01064 19.2118C0.854644 19.2362 0.705124 19.291 0.570484 19.3731C0.436084 19.4549 0.319204 19.5627 0.226564 19.6894C0.134403 19.8159 0.0683135 19.9594 0.0321384 20.1117C-0.00403682 20.264 -0.0095756 20.422 0.0158441 20.5764C0.0462509 20.7294 0.106548 20.8749 0.193281 21.0045C0.280014 21.1342 0.391477 21.2454 0.521284 21.3319C0.784782 21.5079 1.10691 21.5733 1.41816 21.5138C3.13563 21.2198 4.89432 21.2686 6.5928 21.6576C8.28865 22.0459 9.8904 22.7674 11.305 23.7802C11.5084 23.9234 11.7512 24.0003 12 24.0003C12.2488 24.0003 12.4916 23.9234 12.695 23.7802C14.1096 22.7674 15.7114 22.0459 17.4072 21.6576C19.1057 21.2685 20.8644 21.2196 22.5818 21.5136C22.8931 21.5731 23.2152 21.5078 23.4787 21.3319C23.6085 21.2454 23.72 21.1342 23.8067 21.0045C23.8935 20.8749 23.9538 20.7294 23.9842 20.5764C24.0096 20.422 24.004 20.264 23.9678 20.1117C23.9317 19.9595 23.8656 19.8159 23.7734 19.6894C23.6806 19.5624 23.5638 19.4549 23.4295 19.3731C23.2948 19.2909 23.1453 19.2361 22.9894 19.2118" fill="#0A0E12"/>
</svg>
