<svg width="24" height="24" viewBox="0 0 24 24" fill="none" xmlns="http://www.w3.org/2000/svg">
<path d="M6.6 16.8C7.56 16.8 8.4 16.08 8.4 15.12V14.76L11.76 11.4H12.36L14.28 13.32V13.44C14.28 14.4 15.12 15.24 16.08 15.24C17.04 15.24 17.88 14.4 17.88 13.44V13.32L22.2 9C23.16 9 24 8.16 24 7.2C24 6.24 23.16 5.4 22.2 5.4C21.24 5.4 20.4 6.24 20.4 7.2V7.44L16.08 11.76H15.84L13.8 9.6C13.8 8.64 12.84 7.8 11.88 7.92C10.92 7.92 10.2 8.64 10.2 9.6L6.6 13.2C5.64 13.2 4.8 14.04 4.8 15C4.8 15.96 5.64 16.8 6.6 16.8ZM22.8 21.6H2.4V1.2C2.4 0.48 1.92 0 1.2 0C0.48 0 0 0.48 0 1.2V22.8C0 23.52 0.48 24 1.2 24H22.8C23.52 24 24 23.52 24 22.8C24 22.08 23.52 21.6 22.8 21.6Z" fill="#0A0E12"/>
</svg>
