<svg width="24" height="17" viewBox="0 0 24 17" fill="none" xmlns="http://www.w3.org/2000/svg">
<path fill-rule="evenodd" clip-rule="evenodd" d="M0 4.46064C0 1.9968 2.04672 0 4.57152 0H13.7143C16.2391 0 18.2856 1.99704 18.2856 4.46064V5.53656L22.2233 2.97504C22.3965 2.86291 22.5963 2.79872 22.8024 2.78902C23.0085 2.77932 23.2134 2.82447 23.3964 2.91984C23.7679 3.11376 24 3.49176 24 3.90312V12.8242C24 13.2355 23.7679 13.6133 23.3964 13.8074C23.2134 13.9028 23.0085 13.948 22.8024 13.9383C22.5963 13.9286 22.3965 13.8644 22.2233 13.7522L18.2856 11.1905V12.2664C18.2856 14.73 16.2389 16.727 13.7143 16.727H4.57152C2.04672 16.7273 0 14.7302 0 12.2666V4.46064ZM18.2856 8.51016L21.7142 10.7405V5.9868L18.2858 8.21712L18.2856 8.51016ZM4.57152 2.23032C3.30912 2.23032 2.28576 3.22872 2.28576 4.46064V12.2664C2.28576 13.4981 3.30912 14.4967 4.57152 14.4967H13.7143C14.9767 14.4967 16.0001 13.4983 16.0001 12.2664V4.46064C16.0001 3.22896 14.9767 2.23032 13.7143 2.23032H4.57152Z" fill="#0A0E12"/>
</svg>
