<svg width="32" height="33" viewBox="0 0 32 33" fill="none" xmlns="http://www.w3.org/2000/svg">
<path fill-rule="evenodd" clip-rule="evenodd" d="M24.54 28.8049H7.46C7.02884 28.8058 6.60174 28.7215 6.20324 28.5569C5.80475 28.3923 5.44271 28.1505 5.13792 27.8456C4.83314 27.5406 4.59161 27.1784 4.42722 26.7798C4.26283 26.3812 4.17881 25.9541 4.18 25.5229V8.25789C4.17895 7.82681 4.26306 7.39977 4.42751 7.00129C4.59196 6.60281 4.8335 6.24074 5.13828 5.93588C5.44305 5.63101 5.80505 5.38935 6.20348 5.22478C6.60191 5.06021 7.02892 4.97597 7.46 4.97689H24.54C26.339 4.97689 27.82 6.43689 27.82 8.25689V25.5229C27.8189 26.3927 27.4731 27.2265 26.8583 27.8417C26.2434 28.457 25.4098 28.8033 24.54 28.8049ZM22.534 26.0849H9.469C8.78365 26.0838 8.12665 25.8112 7.64194 25.3267C7.15723 24.8421 6.88432 24.1852 6.883 23.4999V10.2839C6.88406 9.59837 7.15685 8.94122 7.64159 8.45648C8.12633 7.97174 8.78347 7.69895 9.469 7.69789H22.534C22.8725 7.69881 23.2075 7.76646 23.5198 7.89696C23.8321 8.02747 24.1157 8.21827 24.3542 8.45845C24.5927 8.69864 24.7815 8.98349 24.9098 9.29672C25.0381 9.60995 25.1034 9.9454 25.102 10.2839V23.4999C25.1034 23.8384 25.0381 24.1738 24.9098 24.4871C24.7815 24.8003 24.5927 25.0851 24.3542 25.3253C24.1157 25.5655 23.8321 25.7563 23.5198 25.8868C23.2075 26.0173 22.8725 26.085 22.534 26.0859M10.984 4.35989V1.50989C10.984 1.17189 11.266 0.889893 11.604 0.889893C11.943 0.889893 12.224 1.17189 12.224 1.50989V4.35989H10.984ZM8.06 4.35989V1.50989C8.06 1.17189 8.341 0.889893 8.68 0.889893C9.019 0.889893 9.3 1.17189 9.3 1.50989V4.35989H8.06ZM22.7 4.35989V1.50989C22.7 1.17189 22.982 0.889893 23.32 0.889893C23.659 0.889893 23.92 1.17189 23.92 1.50989V4.35989H22.7ZM19.776 4.35989V1.50989C19.776 1.17189 20.057 0.889893 20.396 0.889893C20.735 0.889893 20.995 1.17189 20.995 1.50989V4.35989H19.776ZM16.854 4.35989V1.50989C16.854 1.17189 17.117 0.889893 17.454 0.889893C17.789 0.889893 18.073 1.17189 18.073 1.50989V4.35989H16.854ZM13.93 4.35989V1.50989C13.93 1.17189 14.193 0.889893 14.529 0.889893C14.865 0.889893 15.149 1.17189 15.149 1.50989V4.35989H13.93ZM31.38 10.1879H28.438V8.94989H31.38C31.719 8.94989 32 9.22989 32 9.56989C32 9.90789 31.719 10.1899 31.38 10.1899V10.1879ZM31.38 24.8099H28.438V23.5899H31.38C31.719 23.5899 32 23.8709 32 24.2099C31.999 24.29 31.9821 24.3692 31.9503 24.4428C31.9185 24.5163 31.8724 24.5829 31.8148 24.6386C31.7572 24.6943 31.6891 24.738 31.6144 24.7672C31.5398 24.7965 31.4601 24.8116 31.38 24.8099ZM31.38 21.8839H28.438V20.6659H31.38C31.719 20.6659 32 20.9459 32 21.2859C31.9988 21.3659 31.9818 21.445 31.95 21.5184C31.9181 21.5919 31.8721 21.6583 31.8145 21.7139C31.7568 21.7695 31.6888 21.8131 31.6142 21.8423C31.5396 21.8715 31.46 21.8856 31.38 21.8839ZM31.38 18.9599H28.438V17.7409H31.38C31.719 17.7409 32 18.0039 32 18.3409C32 18.6759 31.719 18.9599 31.38 18.9599ZM31.38 16.0359H28.438V14.8159H31.38C31.719 14.8159 32 15.0799 32 15.4159C32 15.7519 31.719 16.0359 31.38 16.0359ZM31.38 13.1109H28.438V11.8739H31.38C31.719 11.8739 32 12.1549 32 12.4939C32 12.8329 31.719 13.1139 31.38 13.1139V13.1109ZM23.32 32.8899C23.156 32.8886 22.999 32.8228 22.883 32.7069C22.767 32.5909 22.7013 32.4339 22.7 32.2699V29.4219H23.92V32.2709C23.92 32.6089 23.656 32.8899 23.32 32.8899ZM8.68 32.8909C8.51597 32.8896 8.35903 32.8238 8.24304 32.7079C8.12705 32.5919 8.06131 32.4349 8.06 32.2709V29.4229H9.297V32.2719C9.297 32.6099 9.016 32.8919 8.677 32.8919L8.68 32.8909ZM11.604 32.8909C11.44 32.8896 11.283 32.8238 11.167 32.7079C11.051 32.5919 10.9853 32.4349 10.984 32.2709V29.4229H12.221V32.2719C12.221 32.6099 11.941 32.8919 11.601 32.8919L11.604 32.8909ZM14.529 32.8909C14.4488 32.89 14.3695 32.8732 14.2958 32.8415C14.2221 32.8097 14.1555 32.7637 14.0997 32.7061C14.0439 32.6484 14.0001 32.5803 13.9708 32.5056C13.9415 32.4309 13.9273 32.3511 13.929 32.2709V29.4229H15.149V32.2719C15.149 32.6099 14.867 32.8909 14.529 32.8909ZM17.453 32.8919C17.3729 32.8909 17.2937 32.874 17.2201 32.8422C17.1466 32.8104 17.08 32.7643 17.0243 32.7067C16.9686 32.6491 16.9249 32.581 16.8957 32.5063C16.8664 32.4317 16.8523 32.352 16.854 32.2719V29.4239H18.073V32.2729C18.073 32.6109 17.792 32.8929 17.453 32.8929M20.396 32.8929C20.232 32.8916 20.075 32.8258 19.959 32.7099C19.843 32.5939 19.7773 32.4369 19.776 32.2729V29.4249H20.995V32.2739C20.995 32.6119 20.732 32.8939 20.395 32.8939M3.563 24.8099H0.62C0.539891 24.8112 0.460305 24.7967 0.38579 24.7673C0.311274 24.7379 0.243287 24.694 0.185712 24.6383C0.128138 24.5826 0.0821035 24.5161 0.0502386 24.4426C0.0183737 24.3691 0.0013025 24.29 0 24.2099C0 23.8749 0.281 23.5909 0.62 23.5909H3.563V24.8099ZM3.563 10.1879H0.62C0.45597 10.1866 0.299029 10.1208 0.183038 10.0049C0.067048 9.88886 0.00130707 9.73192 0 9.56789C0 9.22889 0.281 8.94789 0.62 8.94789H3.563V10.1879ZM3.563 13.1119H0.62C0.45597 13.1106 0.299029 13.0448 0.183038 12.9289C0.067048 12.8129 0.00130707 12.6559 0 12.4919C0 12.1539 0.281 11.8719 0.62 11.8719H3.563V13.1119ZM3.563 16.0369H0.62C0.45597 16.0356 0.299029 15.9698 0.183038 15.8539C0.067048 15.7379 0.00130707 15.5809 0 15.4169C0 15.0779 0.281 14.8169 0.62 14.8169H3.563V16.0369ZM3.563 18.9609H0.62C0.45597 18.9596 0.299029 18.8938 0.183038 18.7779C0.067048 18.6619 0.00130707 18.5049 0 18.3409C0 18.0029 0.281 17.7419 0.62 17.7419H3.563V18.9609ZM3.563 21.8849H0.62C0.458382 21.8876 0.302309 21.826 0.186061 21.7137C0.0698121 21.6014 0.00289268 21.4475 0 21.2859C0 20.9509 0.281 20.6659 0.62 20.6659H3.563V21.8849Z" fill="#141A20"/>
<path d="M8.297 15.5081L10.623 9.71406H11.897L14.255 15.5081H13.096L12.562 14.0701H9.932L9.398 15.5081H8.297ZM10.228 13.2401H12.258L11.231 10.5771L10.228 13.2401ZM14.608 15.5081V9.71406H18.602V10.5611H15.627V12.1391H18.34V12.9771H15.627V14.6531H18.602V15.5081H14.608ZM21.33 15.6311C19.792 15.6311 18.962 14.7931 18.888 13.7161H19.916C19.973 14.2341 20.335 14.8181 21.321 14.8181C22.241 14.8181 22.611 14.3741 22.611 13.9551C22.611 13.5111 22.398 13.2321 21.551 13.0751L20.894 12.9601C19.628 12.7471 19.127 12.1961 19.127 11.2761C19.127 10.3721 19.924 9.59106 21.231 9.59106C22.776 9.59106 23.466 10.5031 23.556 11.4071H22.521C22.422 10.8731 22.077 10.3971 21.239 10.3971C20.433 10.3971 20.121 10.8321 20.121 11.1931C20.121 11.6531 20.359 11.8671 21.165 12.0071L21.798 12.1141C23.014 12.3191 23.704 12.8861 23.704 13.8731C23.704 14.9081 22.809 15.6311 21.33 15.6311ZM11.672 20.6531C12.206 20.0131 12.42 19.6511 12.42 19.1731C12.42 18.6811 12.124 18.2701 11.475 18.2701C10.727 18.2701 10.48 18.8701 10.563 19.6341H9.609C9.494 18.2701 10.234 17.4561 11.516 17.4561C12.806 17.4561 13.439 18.2291 13.439 19.1001C13.439 19.9051 12.987 20.5221 12.338 21.2451L11.22 22.5271H13.554V23.3731H9.346L11.672 20.6531ZM16.027 23.4971C14.679 23.4971 13.939 22.6501 13.939 21.6151H14.901C14.926 22.2801 15.37 22.6911 15.994 22.6911C16.717 22.6911 17.169 22.2231 17.169 21.4751C17.169 20.7521 16.676 20.3001 16.011 20.3001C15.551 20.3001 15.148 20.5381 14.991 20.9401H13.99L14.294 17.5801H17.951V18.4011H15.124L14.968 20.0371C15.165 19.7981 15.551 19.5441 16.217 19.5441C17.269 19.5441 18.181 20.2751 18.181 21.4841C18.181 22.7161 17.284 23.4971 16.027 23.4971ZM20.597 23.4971C19.274 23.4971 18.485 22.5841 18.485 21.4911C18.485 20.4891 19.192 19.6341 19.857 18.8371L20.934 17.5791H22.109L20.178 19.7571C20.367 19.6751 20.588 19.6421 20.844 19.6421C21.863 19.6421 22.75 20.3661 22.75 21.4831C22.75 22.6091 21.937 23.4971 20.597 23.4971ZM19.463 21.5161C19.463 22.1981 19.931 22.6751 20.597 22.6751C21.271 22.6751 21.747 22.1981 21.747 21.5161C21.747 20.8421 21.271 20.3741 20.597 20.3741C19.931 20.3741 19.463 20.8421 19.463 21.5161Z" fill="#141A20"/>
</svg>
