<svg width="34" height="40" viewBox="0 0 34 40" fill="none" xmlns="http://www.w3.org/2000/svg">
<g filter="url(#filter0_d_7_413)">
<path d="M17 17.6C16.569 17.6 16.156 17.769 15.85 18.069C15.546 18.369 15.375 18.776 15.375 19.2V24C15.375 24.424 15.546 24.831 15.851 25.131C16.156 25.431 16.569 25.601 17 25.601C17.43 25.601 17.844 25.431 18.149 25.131C18.454 24.831 18.625 24.424 18.625 24.001V19.201C18.625 18.776 18.454 18.369 18.149 18.069C17.842 17.768 17.429 17.5995 16.999 17.6M25.124 11.2V8C25.1225 6.94632 24.9113 5.90348 24.5027 4.93225C24.0941 3.96103 23.4962 3.08084 22.744 2.343C21.21 0.839948 19.1476 -0.00131988 17 2.233e-06C14.852 -0.00158186 12.7892 0.839706 11.255 2.343C10.5028 3.08084 9.90494 3.96103 9.49633 4.93225C9.08772 5.90348 8.8765 6.94632 8.875 8V11.2C7.58599 11.198 6.3479 11.703 5.428 12.606C4.97651 13.0485 4.61771 13.5766 4.37253 14.1593C4.12735 14.7421 4.00071 15.3678 4 16V27.2C4 28.473 4.513 29.694 5.428 30.594C6.3479 31.497 7.58599 32.002 8.875 32H25.125C26.414 32.002 27.6521 31.497 28.572 30.594C29.0235 30.1515 29.3823 29.6234 29.6275 29.0407C29.8727 28.4579 29.9993 27.8322 30 27.2V16C29.9993 15.3678 29.8727 14.7421 29.6275 14.1593C29.3823 13.5766 29.0235 13.0485 28.572 12.606C27.6521 11.703 26.413 11.198 25.124 11.2ZM12.125 8C12.125 6.727 12.638 5.506 13.553 4.606C14.4729 3.70304 15.711 3.19803 17 3.2C18.293 3.2 19.533 3.706 20.447 4.606C20.8985 5.04855 21.2573 5.5766 21.5025 6.15933C21.7477 6.74206 21.8743 7.36779 21.875 8V11.2H12.125V8ZM26.75 27.2C26.75 27.624 26.579 28.031 26.274 28.331C25.969 28.631 25.556 28.801 25.124 28.801H8.875C8.445 28.801 8.032 28.631 7.727 28.331C7.57681 28.1835 7.4574 28.0077 7.37569 27.8137C7.29398 27.6198 7.2516 27.4115 7.251 27.201V16.001C7.251 15.576 7.422 15.169 7.727 14.869C8.032 14.569 8.445 14.4 8.876 14.4H25.126C25.556 14.4 25.97 14.569 26.275 14.869C26.58 15.169 26.751 15.576 26.751 16L26.75 27.2Z" fill="#141A20"/>
</g>
<defs>
<filter id="filter0_d_7_413" x="0" y="0" width="34" height="40" filterUnits="userSpaceOnUse" color-interpolation-filters="sRGB">
<feFlood flood-opacity="0" result="BackgroundImageFix"/>
<feColorMatrix in="SourceAlpha" type="matrix" values="0 0 0 0 0 0 0 0 0 0 0 0 0 0 0 0 0 0 127 0" result="hardAlpha"/>
<feOffset dy="4"/>
<feGaussianBlur stdDeviation="2"/>
<feComposite in2="hardAlpha" operator="out"/>
<feColorMatrix type="matrix" values="0 0 0 0 0 0 0 0 0 0 0 0 0 0 0 0 0 0 0.25 0"/>
<feBlend mode="normal" in2="BackgroundImageFix" result="effect1_dropShadow_7_413"/>
<feBlend mode="normal" in="SourceGraphic" in2="effect1_dropShadow_7_413" result="shape"/>
</filter>
</defs>
</svg>
