<svg width="31" height="30" viewBox="0 0 31 30" fill="none" xmlns="http://www.w3.org/2000/svg">
<path d="M9.59188 13.8686H7.48388V16.5416H9.59188V15.6026H8.48888V14.8836H10.2479V16.3376C10.2479 16.7243 10.1982 16.9876 10.0989 17.1276C10.0009 17.2676 9.81088 17.3373 9.52888 17.3366H7.52888C7.24621 17.3366 7.05588 17.2666 6.95788 17.1266C6.85788 16.9866 6.80821 16.7236 6.80888 16.3376V14.1126C6.80888 13.7293 6.85855 13.4673 6.95788 13.3266C7.05655 13.1853 7.24655 13.1146 7.52788 13.1146H9.52788C9.80655 13.1146 9.99621 13.184 10.0969 13.3226C10.1975 13.4613 10.2475 13.7113 10.2469 14.0726V14.1686L9.59188 14.3406V13.8686ZM11.6739 17.3366V13.1146H13.5399C14.0725 13.1146 14.4822 13.2956 14.7689 13.6576C15.0549 14.0196 15.1979 14.5336 15.1979 15.1996C15.1979 15.5936 15.1419 15.9483 15.0299 16.2636C14.9383 16.548 14.7759 16.8044 14.5579 17.0086C14.4231 17.1279 14.2621 17.2136 14.0879 17.2586C13.8523 17.3157 13.6102 17.3419 13.3679 17.3366H11.6739ZM12.3499 16.5416H13.2219C13.6865 16.5416 14.0159 16.4366 14.2099 16.2266C14.4032 16.0166 14.4999 15.669 14.4999 15.1836C14.4999 14.7523 14.4199 14.4256 14.2599 14.2036C14.0979 13.981 13.8599 13.8696 13.5459 13.8696H12.3499V16.5416ZM16.4349 17.3366V13.1146H18.9159C19.1459 13.1146 19.3125 13.1793 19.4159 13.3086C19.5199 13.4373 19.5719 13.6456 19.5719 13.9336V14.8756C19.5719 15.1603 19.5202 15.3673 19.4169 15.4966C19.3135 15.626 19.1465 15.6906 18.9159 15.6906H17.0989V17.3366H16.4349ZM18.6169 13.8456H17.0999V14.9636H18.6169C18.7342 14.9636 18.8142 14.939 18.8569 14.8896C18.8995 14.8403 18.9209 14.7533 18.9209 14.6286V14.1766C18.9209 14.0546 18.8995 13.969 18.8569 13.9196C18.8135 13.8703 18.7335 13.8456 18.6169 13.8456ZM20.6119 17.3366V13.1146H23.0919C23.3225 13.1146 23.4895 13.1793 23.5929 13.3086C23.6969 13.4373 23.7485 13.6456 23.7479 13.9336V14.9236C23.7479 15.2083 23.6962 15.4163 23.5929 15.5476C23.4895 15.6776 23.3229 15.7426 23.0929 15.7426H22.7129L24.0529 17.3366H23.0839L21.9149 15.7426H21.2759V17.3366H20.6119ZM22.7929 13.8456H21.2759V15.0196H22.7929C22.9095 15.0196 22.9895 14.995 23.0329 14.9456C23.0762 14.897 23.0979 14.81 23.0979 14.6846V14.1766C23.0979 14.0546 23.0762 13.969 23.0329 13.9196C22.9902 13.8703 22.9102 13.8456 22.7929 13.8456ZM18.2099 2.04565C18.2369 1.91265 18.1299 1.75165 17.9959 1.75165L16.4699 1.53765L15.7729 0.144647C15.7526 0.0963429 15.7142 0.0579233 15.6659 0.0376466C15.5319 -0.0423534 15.3709 0.0106466 15.2909 0.144647L14.6209 1.53765L13.0949 1.75165C13.0149 1.75165 12.9615 1.77831 12.9349 1.83165C12.9096 1.85591 12.8895 1.88502 12.8758 1.91724C12.8621 1.94946 12.855 1.98412 12.855 2.01915C12.855 2.05417 12.8621 2.08883 12.8758 2.12105C12.8895 2.15327 12.9096 2.18238 12.9349 2.20665L14.0329 3.27765L13.7649 4.80465C13.7649 4.85765 13.7649 4.91165 13.7919 4.96465C13.8719 5.09865 14.0319 5.15265 14.1659 5.07265L15.5319 4.34965L16.8979 5.07265C16.9249 5.09865 16.9779 5.09865 17.0319 5.09865H17.0849C17.1549 5.083 17.2162 5.04108 17.2562 4.98154C17.2962 4.922 17.3119 4.84937 17.2999 4.77865L17.0319 3.25165L18.1299 2.17965C18.1542 2.1668 18.1746 2.14751 18.1887 2.12387C18.2028 2.10023 18.2101 2.07317 18.2099 2.04565ZM11.7829 3.00865C11.8099 2.87365 11.7029 2.71365 11.5689 2.71365L10.0419 2.49865L9.34588 1.10665C9.3256 1.05834 9.28718 1.01992 9.23888 0.999646C9.10488 0.919647 8.94388 0.972647 8.86388 1.10665L8.19388 2.49865L6.66788 2.71365C6.58788 2.71365 6.53455 2.74031 6.50788 2.79365C6.48262 2.81791 6.46253 2.84702 6.4488 2.87924C6.43508 2.91146 6.428 2.94612 6.428 2.98115C6.428 3.01617 6.43508 3.05083 6.4488 3.08305C6.46253 3.11527 6.48262 3.14438 6.50788 3.16865L7.60388 4.23865L7.33588 5.76565C7.33588 5.81865 7.33588 5.87265 7.36288 5.92565C7.44288 6.05965 7.60388 6.11365 7.73788 6.03265L9.10388 5.30965L10.4699 6.03265C10.4969 6.05965 10.5499 6.05965 10.6039 6.05965H10.6569C10.7269 6.04378 10.7882 6.00162 10.828 5.94188C10.8678 5.88214 10.8832 5.80939 10.8709 5.73865L10.6039 4.21165L11.7019 3.14165C11.7264 3.12872 11.7468 3.10927 11.7609 3.08544C11.7751 3.06161 11.7823 3.03434 11.7819 3.00665M7.19188 7.59865C7.21888 7.46465 7.11188 7.30365 6.97788 7.30365L5.45088 7.08965L4.75488 5.69765C4.7346 5.64934 4.69618 5.61092 4.64788 5.59065C4.51388 5.51065 4.35288 5.56365 4.27288 5.69765L3.60288 7.08965L2.07688 7.30365C1.99688 7.30365 1.94355 7.33031 1.91688 7.38365C1.89147 7.40792 1.87124 7.4371 1.85742 7.46941C1.8436 7.50172 1.83648 7.5365 1.83648 7.57165C1.83648 7.60679 1.8436 7.64157 1.85742 7.67388C1.87124 7.70619 1.89147 7.73537 1.91688 7.75965L3.01388 8.83065L2.74688 10.3566C2.74688 10.4106 2.74688 10.4646 2.77288 10.5176C2.85288 10.6516 3.01388 10.7056 3.14788 10.6246L4.51388 9.90165L5.87988 10.6246C5.90688 10.6516 5.95988 10.6516 6.01388 10.6516H6.06688C6.13709 10.636 6.19858 10.5939 6.23861 10.5342C6.27864 10.4744 6.29413 10.4015 6.28188 10.3306L6.01388 8.80365L7.11188 7.73265C7.13622 7.7198 7.15657 7.70051 7.17068 7.67687C7.18479 7.65323 7.19212 7.62617 7.19188 7.59865ZM5.35588 14.0256C5.38188 13.8916 5.27588 13.7316 5.14088 13.7316L3.61488 13.5166L2.91888 12.1246C2.8986 12.0763 2.86018 12.0379 2.81188 12.0176C2.67788 11.9376 2.51688 11.9906 2.43688 12.1246L1.76688 13.5176L0.240879 13.7316C0.160879 13.7316 0.107212 13.7583 0.0798785 13.8116C0.0546223 13.8359 0.0345281 13.865 0.0208018 13.8972C0.00707547 13.9295 0 13.9641 0 13.9991C0 14.0342 0.00707547 14.0688 0.0208018 14.101C0.0345281 14.1333 0.0546223 14.1624 0.0798785 14.1866L1.17788 15.2576L0.909878 16.7846C0.909878 16.8376 0.909879 16.8916 0.936879 16.9446C1.01688 17.0786 1.17788 17.1326 1.31188 17.0526L2.67788 16.3286L4.04288 17.0526C4.06988 17.0786 4.12288 17.0786 4.17688 17.0786H4.23088C4.30052 17.0626 4.36137 17.0205 4.40097 16.961C4.44057 16.9015 4.45592 16.8291 4.44388 16.7586L4.17588 15.2316L5.27388 14.1616C5.29838 14.1487 5.31882 14.1293 5.33294 14.1054C5.34706 14.0816 5.35431 14.0543 5.35388 14.0266M7.19188 20.4536C7.21888 20.3196 7.11188 20.1586 6.97788 20.1586L5.45088 19.9446L4.75488 18.5516C4.7346 18.5033 4.69618 18.4649 4.64788 18.4446C4.51388 18.3646 4.35288 18.4176 4.27288 18.5516L3.60288 19.9446L2.07688 20.1586C1.99688 20.1586 1.94355 20.1853 1.91688 20.2386C1.89162 20.2629 1.87153 20.292 1.8578 20.3242C1.84408 20.3565 1.837 20.3911 1.837 20.4261C1.837 20.4612 1.84408 20.4958 1.8578 20.528C1.87153 20.5603 1.89162 20.5894 1.91688 20.6136L3.01388 21.6856L2.74688 23.2116C2.74688 23.2646 2.74688 23.3186 2.77288 23.3716C2.85288 23.5066 3.01388 23.5596 3.14788 23.4796L4.51388 22.7566L5.87988 23.4796C5.90688 23.5066 5.95988 23.5066 6.01388 23.5066H6.06688C6.13729 23.491 6.19895 23.4488 6.239 23.3888C6.27906 23.3288 6.29442 23.2557 6.28188 23.1846L6.01388 21.6586L7.11188 20.5866C7.13607 20.5739 7.15632 20.5547 7.17042 20.5313C7.18452 20.5079 7.19194 20.481 7.19188 20.4536ZM11.7829 24.1256C11.8099 23.9916 11.7029 23.8316 11.5689 23.8316L10.0419 23.6166L9.34588 22.2246C9.3256 22.1763 9.28718 22.1379 9.23888 22.1176C9.10488 22.0376 8.94388 22.0906 8.86388 22.2246L8.19388 23.6166L6.66788 23.8316C6.58788 23.8316 6.53455 23.8583 6.50788 23.9116C6.48262 23.9359 6.46253 23.965 6.4488 23.9972C6.43508 24.0295 6.428 24.0641 6.428 24.0991C6.428 24.1342 6.43508 24.1688 6.4488 24.201C6.46253 24.2333 6.48262 24.2624 6.50788 24.2866L7.60488 25.3576L7.33688 26.8846C7.33688 26.9376 7.33688 26.9916 7.36388 27.0446C7.44388 27.1786 7.60488 27.2326 7.73888 27.1516L9.10488 26.4286L10.4709 27.1516C10.4979 27.1786 10.5509 27.1786 10.6049 27.1786H10.6579C10.7279 27.1628 10.7892 27.1206 10.829 27.0609C10.8688 27.0011 10.8842 26.9284 10.8719 26.8576L10.6049 25.3306L11.7029 24.2606C11.7274 24.2477 11.7478 24.2283 11.7619 24.2044C11.7761 24.1806 11.7833 24.1533 11.7829 24.1256ZM18.2099 25.9626C18.2369 25.8286 18.1299 25.6676 17.9959 25.6676L16.4699 25.4536L15.7729 24.0606C15.7526 24.0123 15.7142 23.9739 15.6659 23.9536C15.5319 23.8736 15.3709 23.9266 15.2909 24.0606L14.6209 25.4536L13.0949 25.6676C13.0149 25.6676 12.9615 25.6943 12.9349 25.7476C12.9096 25.7719 12.8895 25.801 12.8758 25.8332C12.8621 25.8655 12.855 25.9001 12.855 25.9351C12.855 25.9702 12.8621 26.0048 12.8758 26.037C12.8895 26.0693 12.9096 26.0984 12.9349 26.1226L14.0329 27.1946L13.7649 28.7206C13.7649 28.7746 13.7649 28.8276 13.7919 28.8806C13.8719 29.0156 14.0319 29.0686 14.1659 28.9886L15.5319 28.2656L16.8979 28.9886C16.9249 29.0156 16.9779 29.0156 17.0319 29.0156H17.0849C17.1553 29 17.2169 28.9578 17.257 28.8978C17.2971 28.8378 17.3124 28.7647 17.2999 28.6936L17.0319 27.1676L18.1299 26.0966C18.1542 26.0838 18.1746 26.0645 18.1887 26.0409C18.2028 26.0172 18.2101 25.9902 18.2099 25.9626ZM24.6379 24.1256C24.6639 23.9916 24.5579 23.8316 24.4229 23.8316L22.8969 23.6166L22.1999 22.2246C22.1796 22.1763 22.1412 22.1379 22.0929 22.1176C21.9589 22.0376 21.7989 22.0906 21.7179 22.2246L21.0489 23.6166L19.5219 23.8316C19.4419 23.8316 19.3885 23.8583 19.3619 23.9116C19.3366 23.9359 19.3165 23.965 19.3028 23.9972C19.2891 24.0295 19.282 24.0641 19.282 24.0991C19.282 24.1342 19.2891 24.1688 19.3028 24.201C19.3165 24.2333 19.3366 24.2624 19.3619 24.2866L20.4599 25.3576L20.1919 26.8846C20.1919 26.9376 20.1919 26.9916 20.2189 27.0446C20.2989 27.1786 20.4589 27.2326 20.5939 27.1516L21.9599 26.4286L23.3249 27.1516C23.3519 27.1786 23.4049 27.1786 23.4589 27.1786H23.5129C23.5829 27.1628 23.6442 27.1206 23.684 27.0609C23.7238 27.0011 23.7392 26.9284 23.7269 26.8576L23.4589 25.3306L24.5569 24.2606C24.5814 24.2477 24.6018 24.2283 24.6159 24.2044C24.6301 24.1806 24.6383 24.1533 24.6379 24.1256ZM29.2279 20.4536C29.2549 20.3196 29.1479 20.1586 29.0139 20.1586L27.4879 19.9446L26.7909 18.5516C26.7706 18.5033 26.7322 18.4649 26.6839 18.4446C26.5499 18.3646 26.3899 18.4176 26.3089 18.5516L25.6389 19.9446L24.1129 20.1586C24.0329 20.1586 23.9795 20.1853 23.9529 20.2386C23.9276 20.2629 23.9075 20.292 23.8938 20.3242C23.8801 20.3565 23.873 20.3911 23.873 20.4261C23.873 20.4612 23.8801 20.4958 23.8938 20.528C23.9075 20.5603 23.9276 20.5894 23.9529 20.6136L25.0509 21.6856L24.7829 23.2116C24.7829 23.2646 24.7829 23.3186 24.8099 23.3716C24.8899 23.5066 25.0499 23.5596 25.1849 23.4796L26.5499 22.7566L27.9159 23.4796C27.9429 23.5066 27.9959 23.5066 28.0499 23.5066H28.1039C28.1741 23.4908 28.2355 23.4485 28.2754 23.3885C28.3152 23.3285 28.3304 23.2555 28.3179 23.1846L28.0499 21.6586L29.1479 20.5866C29.1721 20.5739 29.1923 20.5547 29.2064 20.5313C29.2205 20.5079 29.2279 20.481 29.2279 20.4536ZM30.1469 14.0256C30.1729 13.8916 30.0669 13.7316 29.9319 13.7316L28.4059 13.5166L27.7099 12.1246C27.6896 12.0763 27.6512 12.0379 27.6029 12.0176C27.4689 11.9376 27.3079 11.9906 27.2279 12.1246L26.5579 13.5176L25.0319 13.7316C24.9519 13.7316 24.8982 13.7583 24.8709 13.8116C24.8456 13.8359 24.8255 13.865 24.8118 13.8972C24.7981 13.9295 24.791 13.9641 24.791 13.9991C24.791 14.0342 24.7981 14.0688 24.8118 14.101C24.8255 14.1333 24.8456 14.1624 24.8709 14.1866L25.9689 15.2576L25.7009 16.7846C25.7009 16.8376 25.7009 16.8916 25.7279 16.9446C25.8079 17.0786 25.9679 17.1326 26.1029 17.0526L27.4689 16.3286L28.8339 17.0526C28.8609 17.0786 28.9139 17.0786 28.9679 17.0786H29.0219C29.0919 17.0628 29.1532 17.0206 29.193 16.9609C29.2328 16.9011 29.2482 16.8284 29.2359 16.7576L28.9679 15.2306L30.0659 14.1606C30.0904 14.1477 30.1108 14.1283 30.1249 14.1044C30.1391 14.0806 30.1463 14.0533 30.1459 14.0256M29.2279 7.59865C29.2549 7.46465 29.1479 7.30365 29.0139 7.30365L27.4879 7.08965L26.7909 5.69765C26.7706 5.64934 26.7322 5.61092 26.6839 5.59065C26.5499 5.51065 26.3899 5.56365 26.3089 5.69765L25.6389 7.08965L24.1129 7.30365C24.0329 7.30365 23.9795 7.33031 23.9529 7.38365C23.9275 7.40792 23.9072 7.4371 23.8934 7.46941C23.8796 7.50172 23.8725 7.5365 23.8725 7.57165C23.8725 7.60679 23.8796 7.64157 23.8934 7.67388C23.9072 7.70619 23.9275 7.73537 23.9529 7.75965L25.0509 8.83065L24.7829 10.3566C24.7829 10.4106 24.7829 10.4646 24.8099 10.5176C24.8899 10.6516 25.0499 10.7056 25.1849 10.6246L26.5499 9.90165L27.9159 10.6246C27.9429 10.6516 27.9959 10.6516 28.0499 10.6516H28.1039C28.1739 10.6358 28.2352 10.5936 28.275 10.5339C28.3148 10.4741 28.3302 10.4014 28.3179 10.3306L28.0499 8.80365L29.1479 7.73265C29.1722 7.7198 29.1926 7.70051 29.2067 7.67687C29.2208 7.65323 29.2281 7.62617 29.2279 7.59865ZM24.6379 3.00865C24.6639 2.87365 24.5579 2.71365 24.4229 2.71365L22.8969 2.49865L22.1999 1.10665C22.1796 1.05834 22.1412 1.01992 22.0929 0.999646C21.9589 0.919647 21.7989 0.972647 21.7179 1.10665L21.0489 2.49865L19.5219 2.71365C19.4419 2.71365 19.3885 2.74031 19.3619 2.79365C19.3366 2.81791 19.3165 2.84702 19.3028 2.87924C19.2891 2.91146 19.282 2.94612 19.282 2.98115C19.282 3.01617 19.2891 3.05083 19.3028 3.08305C19.3165 3.11527 19.3366 3.14438 19.3619 3.16865L20.4599 4.23965L20.1919 5.76665C20.1919 5.81965 20.1919 5.87365 20.2189 5.92665C20.2989 6.06065 20.4589 6.11465 20.5939 6.03365L21.9599 5.31065L23.3249 6.03365C23.3519 6.06065 23.4049 6.06065 23.4589 6.06065H23.5129C23.5829 6.04478 23.6442 6.00262 23.684 5.94288C23.7238 5.88314 23.7392 5.81039 23.7269 5.73965L23.4589 4.21265L24.5569 3.14265C24.5814 3.12972 24.6018 3.11027 24.6159 3.08644C24.6301 3.06261 24.6373 3.03534 24.6369 3.00765" fill="#141A20"/>
</svg>
