<svg width="26" height="33" viewBox="0 0 26 33" fill="none" xmlns="http://www.w3.org/2000/svg">
<path d="M16.216 3.86101C14.969 3.57301 14.154 5.64301 14.154 5.64301V9.30301C18.806 9.64001 18.759 8.38801 18.759 8.38801C23.219 8.33901 26 4.73801 26 4.73801C21.876 5.90301 17.462 4.15001 16.216 3.86101ZM11.846 9.30201V5.64201C11.846 5.64201 11.03 3.57201 9.784 3.86001C8.538 4.14801 4.124 5.90201 0 4.73701C0 4.73701 2.781 8.33701 7.241 8.38701C7.241 8.38701 7.194 9.63701 11.846 9.30201Z" fill="#141A20"/>
<path d="M12.369 3.98708V13.5341C12.563 13.5591 12.771 13.5841 13.001 13.6111C13.225 13.5861 13.428 13.5611 13.619 13.5371V3.98708C13.9251 3.86146 14.187 3.64773 14.3715 3.37301C14.5559 3.09829 14.6546 2.77497 14.655 2.44408C14.655 1.52408 13.913 0.778076 12.995 0.778076C12.077 0.778076 11.335 1.52308 11.335 2.44408C11.335 3.14208 11.762 3.74008 12.369 3.98708ZM13 18.3931C13.06 18.3711 13.1193 18.3471 13.178 18.3211C13.322 18.2617 13.4687 18.1941 13.618 18.1181V16.2501C13.4143 16.2083 13.2083 16.1792 13.001 16.1631C12.7886 16.1796 12.5775 16.2096 12.369 16.2531V18.1151C12.5217 18.1937 12.67 18.2624 12.814 18.3211C12.8767 18.3477 12.939 18.3727 13.001 18.3961L13 18.3931ZM13.593 25.2081C13.6024 25.2028 13.6108 25.196 13.618 25.1881V24.8581C13.4974 24.8017 13.3714 24.7574 13.242 24.7261C13.164 24.7054 13.0827 24.6861 12.998 24.6681C12.9188 24.6844 12.8401 24.703 12.762 24.7241C12.6259 24.756 12.4941 24.8036 12.369 24.8661V25.1801L12.407 25.2081C12.563 25.3131 12.774 25.4151 13.001 25.5211C13.228 25.4161 13.436 25.3131 13.593 25.2081ZM13 31.1961C12.8118 31.2602 12.621 31.3162 12.428 31.3641L12.37 31.3771L12.46 32.1511C12.57 32.4151 12.65 32.7781 12.995 32.7781C13.34 32.7781 13.394 32.5481 13.521 32.1511L13.619 31.3741L13.575 31.3641C13.3816 31.3149 13.1902 31.2585 13.001 31.1951L13 31.1961ZM13.599 28.2981C13.5873 28.2182 13.5564 28.1424 13.509 28.0771C13.457 28.0011 13.326 27.8651 13.001 27.6941C12.674 27.8671 12.544 28.0011 12.496 28.0721C12.448 28.1369 12.4165 28.2124 12.404 28.2921C12.4001 28.3061 12.3978 28.3205 12.397 28.3351V28.3581L12.392 28.4201L12.397 28.5171C12.4017 28.5371 12.405 28.5557 12.407 28.5731C12.438 28.7111 12.543 28.8621 12.696 28.9881C12.7913 29.0661 12.894 29.1371 13.004 29.2011C13.1113 29.1371 13.213 29.0664 13.309 28.9891C13.462 28.8621 13.566 28.7111 13.597 28.5751C13.601 28.5557 13.6043 28.5371 13.607 28.5191L13.612 28.4191L13.608 28.3601V28.3371C13.608 28.3241 13.603 28.3121 13.602 28.3001L13.599 28.2981ZM13 22.5091C13.0093 22.5064 13.018 22.5044 13.026 22.5031L13.315 22.4381C13.4217 22.4134 13.523 22.3874 13.619 22.3601V21.1131C13.4216 21.0069 13.2163 20.916 13.005 20.8411C12.767 20.9351 12.5553 21.0364 12.37 21.1451V22.3551C12.5567 22.4071 12.7587 22.4557 12.976 22.5011C12.984 22.5037 12.9927 22.5057 13.002 22.5071L13 22.5091ZM14.237 28.4211V28.4301L14.229 28.5841C14.2283 28.6141 14.223 28.6431 14.213 28.6711C14.213 28.6811 14.213 28.6791 14.211 28.6891C14.156 28.9711 13.976 29.2511 13.706 29.4731L13.671 29.5011C13.803 29.5471 13.9257 29.5857 14.039 29.6171C14.1477 29.6477 14.252 29.6744 14.352 29.6971C14.552 29.4841 14.745 29.1961 14.832 28.8201C14.843 28.7581 14.857 28.6841 14.867 28.6121L14.88 28.4111L14.874 28.2641C14.8593 27.934 14.7556 27.6141 14.574 27.3381C14.5094 27.2437 14.4368 27.155 14.357 27.0731C14.1377 27.1856 13.9138 27.289 13.686 27.3831C13.8313 27.4911 13.943 27.6024 14.021 27.7171C14.121 27.8551 14.182 28.0041 14.214 28.1801C14.2224 28.2197 14.2284 28.2597 14.232 28.3001C14.2373 28.3221 14.2403 28.3454 14.241 28.3701V28.4211H14.237Z" fill="#141A20"/>
<path d="M19.335 12.1779L19.314 11.9769C19.2807 11.7235 19.2071 11.4771 19.096 11.2469C18.9752 11.0065 18.8048 10.7945 18.596 10.6249C18.171 10.2869 17.738 10.1979 17.408 10.1579C17.1191 10.1316 16.8283 10.1346 16.54 10.1669C16.4893 10.1736 16.441 10.1802 16.395 10.1869C15.839 10.0099 14.98 9.92689 14.388 10.7639C13.447 12.0919 14.748 12.5659 15.106 12.5199C15.414 12.4809 16.326 12.3299 16.823 11.6859C16.962 11.6689 17.109 11.6619 17.247 11.6719C17.3789 11.6785 17.508 11.7126 17.626 11.7719C17.6747 11.7972 17.7173 11.8349 17.754 11.8849L17.774 11.9149C17.8071 11.9757 17.831 12.0411 17.845 12.1089C17.8629 12.1511 17.8734 12.1961 17.876 12.2419V12.3969C17.879 12.4349 17.876 12.4719 17.876 12.4869C17.8704 12.5214 17.8603 12.555 17.846 12.5869C17.8227 12.6416 17.7946 12.6942 17.762 12.7439C17.675 12.8839 17.489 13.0459 17.249 13.1939C17.1757 13.2386 17.098 13.2819 17.016 13.3239C16.483 13.5919 15.741 13.8149 14.808 13.9879C14.5721 14.0319 14.3354 14.0713 14.098 14.1059C13.948 14.1279 13.7883 14.1496 13.619 14.1709C13.4297 14.1956 13.224 14.2202 13.002 14.2449L12.924 14.2549C12.734 14.2729 12.55 14.3019 12.37 14.3329C11.9584 14.4027 11.5547 14.5132 11.165 14.6629C10.8558 14.7818 10.5625 14.9387 10.292 15.1299L10.234 15.1729C10.124 15.2549 10.024 15.3396 9.93399 15.4269C9.84809 15.5097 9.76978 15.6001 9.69999 15.6969C9.53039 15.9178 9.41096 16.1731 9.34999 16.4449C9.34133 16.4809 9.33366 16.5176 9.32699 16.5549C9.32033 16.6062 9.31433 16.6606 9.30899 16.7179L9.30499 16.8419V16.8469L9.31499 17.0119C9.31566 17.0246 9.31666 17.0389 9.31799 17.0549C9.33229 17.1857 9.35704 17.3151 9.39199 17.4419L9.42199 17.5319C9.44199 17.6009 9.46199 17.6639 9.48599 17.7119L9.49299 17.7279C9.56433 17.8932 9.65533 18.0552 9.76599 18.2139C10.13 18.7259 10.585 19.0689 11.02 19.3329C11.3801 19.0904 11.7633 18.8841 12.164 18.7169C12.0537 18.6617 11.9446 18.6041 11.837 18.5439C11.316 18.2439 10.911 17.8949 10.697 17.5589C10.451 17.1809 10.476 16.8699 10.541 16.6759C10.5707 16.5936 10.611 16.5156 10.661 16.4439H10.623C10.743 16.2819 10.955 16.1279 11.183 16.0039L11.23 15.9799L11.246 15.9709C11.2867 15.9509 11.327 15.9319 11.367 15.9139L11.41 15.8939C11.4727 15.8672 11.5333 15.8432 11.592 15.8219C11.5967 15.8212 11.6007 15.8196 11.604 15.8169H11.606C11.686 15.7869 11.769 15.7639 11.853 15.7389C12.0177 15.6922 12.188 15.6522 12.364 15.6189C12.47 15.5996 12.5787 15.5822 12.69 15.5669C12.79 15.5536 12.892 15.5436 12.996 15.5369C13.012 15.5369 13.027 15.5319 13.045 15.5319C13.2463 15.5152 13.436 15.4986 13.614 15.4819C13.996 15.4449 14.332 15.4079 14.639 15.3649C15.007 15.3119 15.383 15.2519 15.763 15.1749C16.0135 15.1225 16.2623 15.0622 16.509 14.9939C16.8889 14.8885 17.26 14.7538 17.619 14.5909C18.056 14.3789 18.52 14.1119 18.897 13.6179C18.921 13.5852 18.9437 13.5519 18.965 13.5179C19.117 13.2939 19.227 13.0499 19.277 12.8179C19.2797 12.8099 19.2817 12.8012 19.283 12.7919C19.295 12.7529 19.307 12.6539 19.314 12.5889L19.33 12.2419L19.327 12.1879V12.1809L19.335 12.1779ZM15.729 21.1229C15.605 20.7889 15.397 20.4929 15.094 20.2089C15.0416 20.1624 14.9883 20.1171 14.934 20.0729C14.592 20.2533 14.2374 20.4087 13.873 20.5379C14.211 20.7179 14.523 20.9609 14.718 21.3249C14.7453 21.3769 14.7687 21.4302 14.788 21.4849H14.786L14.792 21.5029L14.805 21.5389C14.8222 21.5997 14.8336 21.662 14.839 21.7249C14.8489 21.8612 14.8333 21.9982 14.793 22.1289C14.785 22.1599 14.77 22.1909 14.758 22.2209C14.7487 22.2476 14.7387 22.2746 14.728 22.3019C14.7216 22.3172 14.7139 22.3319 14.705 22.3459L14.687 22.3759L14.681 22.3859L14.643 22.4359C14.5201 22.604 14.3572 22.7387 14.169 22.8279C14.1597 22.8326 14.1497 22.8366 14.139 22.8399C14.0957 22.8606 14.05 22.8792 14.002 22.8959C13.8941 22.9332 13.7847 22.9659 13.674 22.9939L13.622 23.0069L13.616 23.0089C13.4733 23.0442 13.3243 23.0786 13.169 23.1119H13.163L13.003 23.1479C12.799 23.1939 12.591 23.2429 12.375 23.3049H12.372C12.0776 23.3838 11.7975 23.5087 11.542 23.6749C11.5253 23.6869 11.5083 23.6986 11.491 23.7099C11.411 23.767 11.3373 23.8323 11.271 23.9049C11.2125 23.9665 11.159 24.0327 11.111 24.1029L11.075 24.1609C10.9963 24.2902 10.9363 24.4396 10.895 24.6089C10.884 24.6649 10.865 24.7689 10.858 24.8589L10.85 25.0469L10.855 25.1189L10.86 25.2119C10.868 25.2672 10.878 25.3219 10.89 25.3759C10.914 25.4829 10.941 25.5509 10.986 25.6509C11.133 25.9579 11.364 26.1559 11.569 26.2959C11.797 26.1229 12.04 25.9829 12.283 25.8569C12.2071 25.8158 12.133 25.7714 12.061 25.7239C11.945 25.6449 11.74 25.4859 11.671 25.2949L11.663 25.2749L11.651 25.2349C11.641 25.1999 11.638 25.1619 11.634 25.1189C11.634 25.1062 11.633 25.0939 11.631 25.0819V25.0009C11.631 24.9756 11.6343 24.9492 11.641 24.9219C11.6449 24.8944 11.6499 24.867 11.656 24.8399L11.66 24.8189C11.6924 24.6684 11.7749 24.5334 11.894 24.4359C11.9167 24.4159 11.9413 24.3959 11.968 24.3759C12.0627 24.3139 12.177 24.2586 12.311 24.2099L12.373 24.1869C12.4477 24.1602 12.5263 24.1362 12.609 24.1149C12.7396 24.0804 12.8713 24.0504 13.004 24.0249L13.266 23.9729C13.3827 23.9516 13.5013 23.9282 13.622 23.9029C13.8445 23.8589 14.0648 23.8042 14.282 23.7389C14.342 23.7209 14.4023 23.7002 14.463 23.6769C14.5697 23.6396 14.6793 23.5912 14.792 23.5319C14.9417 23.4551 15.0812 23.3596 15.207 23.2479L15.315 23.1429C15.353 23.1019 15.391 23.0519 15.427 23.0039C15.461 22.9609 15.472 22.9409 15.484 22.9239L15.57 22.7809C15.66 22.6109 15.726 22.4469 15.774 22.2749C15.8796 21.8947 15.8642 21.491 15.73 21.1199L15.729 21.1229ZM11.463 30.3779C11.1733 30.4331 10.8814 30.4755 10.588 30.5049H10.573C10.5397 30.5068 10.507 30.5153 10.477 30.5299C10.447 30.5444 10.4201 30.5648 10.398 30.5898C10.3759 30.6148 10.3589 30.644 10.3481 30.6756C10.3373 30.7071 10.3328 30.7406 10.335 30.7739C10.342 30.9089 10.454 31.0139 10.588 31.0139H10.603C10.603 31.0139 10.65 31.0089 10.728 31.0039L11.055 30.9739C11.313 30.9439 11.66 30.8949 12.085 30.7989C11.8648 30.6777 11.6566 30.5361 11.463 30.3759V30.3779ZM15.425 30.5059H15.412C14.983 30.466 14.5576 30.3948 14.139 30.2929C14.0523 30.2716 13.9617 30.2482 13.867 30.2229L13.737 30.1839L13.619 30.1469C13.408 30.0813 13.2015 30.0018 13.001 29.9089C12.7759 29.8084 12.5637 29.6811 12.369 29.5299C12.3563 29.5219 12.344 29.5126 12.332 29.5019C12.32 29.4932 12.3073 29.4839 12.294 29.4739C12.026 29.2519 11.846 28.9739 11.788 28.6919L11.786 28.6719C11.777 28.6447 11.772 28.6165 11.771 28.5879L11.763 28.4339C11.7602 28.3938 11.7622 28.3535 11.769 28.3139C11.772 28.2589 11.781 28.2129 11.787 28.1789C11.8163 28.0096 11.881 27.8556 11.981 27.7169C12.059 27.6056 12.1707 27.4956 12.316 27.3869L12.369 27.3519C12.4546 27.2909 12.5434 27.2345 12.635 27.1829C12.735 27.1276 12.8437 27.0729 12.961 27.0189L12.999 27.0019C13.119 26.9459 13.2457 26.8906 13.379 26.8359C13.4583 26.8026 13.538 26.7686 13.618 26.7339C13.684 26.7046 13.7513 26.6746 13.82 26.6439C13.9233 26.5946 14.03 26.5409 14.14 26.4829C14.2093 26.4449 14.2797 26.4042 14.351 26.3609C14.3777 26.3449 14.4047 26.3272 14.432 26.3079C14.634 26.1689 14.868 25.9679 15.019 25.6529C15.0834 25.5179 15.124 25.3727 15.139 25.2239L15.145 25.1309L15.151 25.0599L15.144 24.8619C15.1255 24.6182 15.0509 24.382 14.926 24.1719C14.6646 24.2923 14.3911 24.3842 14.11 24.4459C14.2287 24.5435 14.3109 24.6786 14.343 24.8289L14.347 24.8509C14.3609 24.9107 14.3693 24.9716 14.372 25.0329V25.0579C14.372 25.0672 14.371 25.0769 14.369 25.0869L14.366 25.1319L14.363 25.1819C14.361 25.2259 14.3494 25.2689 14.329 25.3079C14.262 25.5009 14.054 25.6599 13.938 25.7379C13.868 25.7846 13.7937 25.8292 13.715 25.8719C13.6823 25.8892 13.6493 25.9066 13.616 25.9239C13.5343 25.9671 13.4516 26.0085 13.368 26.0479L13.102 26.1719L12.998 26.2209C12.8827 26.2729 12.7667 26.3276 12.65 26.3849C12.489 26.4661 12.3312 26.5535 12.177 26.6469C12.076 26.71 11.9788 26.7792 11.886 26.8539C11.7088 26.995 11.5535 27.1614 11.425 27.3479C11.2761 27.5696 11.1797 27.8223 11.143 28.0869C11.1314 28.1455 11.125 28.2051 11.124 28.2649L11.118 28.4169L11.132 28.6189C11.142 28.6929 11.1547 28.7656 11.17 28.8369C11.257 29.2049 11.45 29.4919 11.649 29.7049C11.737 29.7999 11.827 29.8809 11.909 29.9449L11.927 29.9589C12.0403 30.0469 12.1517 30.1236 12.261 30.1889C12.297 30.2102 12.332 30.2302 12.366 30.2489C12.543 30.3489 12.712 30.4249 12.866 30.4889L12.996 30.5389C13.1986 30.6157 13.4053 30.6814 13.615 30.7359L13.722 30.7659L13.911 30.8099C14.325 30.9039 14.665 30.9499 14.947 30.9839C15.088 30.9969 15.201 31.0089 15.277 31.0149L15.407 31.0229C15.4746 31.0249 15.5403 30.9999 15.5895 30.9535C15.6387 30.9071 15.6675 30.843 15.6695 30.7754C15.6715 30.7078 15.6465 30.6421 15.6001 30.5929C15.5537 30.5436 15.4896 30.5149 15.422 30.5129L15.425 30.5059Z" fill="#141A20"/>
<path d="M16.69 16.7019C16.6858 16.6484 16.6801 16.5951 16.673 16.5419L16.653 16.4379C16.6145 16.2683 16.553 16.1048 16.47 15.9519C16.4209 15.8604 16.3647 15.7728 16.302 15.6899C15.7995 15.8081 15.2916 15.9019 14.78 15.9709C15.048 16.1029 15.2447 16.2586 15.37 16.4379C15.4167 16.5013 15.4537 16.5686 15.481 16.6399C15.547 16.8139 15.586 17.0929 15.393 17.4369C15.167 17.8359 14.753 18.2069 14.161 18.5399C13.984 18.6387 13.8029 18.7298 13.618 18.8129C13.5593 18.8403 13.5003 18.8659 13.441 18.8899L13.419 18.8999C13.282 18.9599 13.144 19.0089 12.999 19.0619L12.979 19.0689C12.864 19.1109 12.74 19.1549 12.596 19.2109C12.52 19.2416 12.4443 19.2733 12.369 19.3059C12.1226 19.4098 11.8834 19.5301 11.653 19.6659C11.4459 19.7839 11.2498 19.9201 11.067 20.0729C11.0117 20.1169 10.9577 20.1636 10.905 20.2129C10.627 20.4611 10.4106 20.7706 10.273 21.1169C10.1375 21.4894 10.1214 21.8949 10.227 22.2769C10.276 22.4499 10.343 22.6149 10.432 22.7819L10.47 22.8519L10.476 22.8589L10.519 22.9269C10.572 23.0027 10.6287 23.0758 10.689 23.1459L10.807 23.2619C10.849 23.2986 10.8913 23.3326 10.934 23.3639C10.9967 23.3073 11.061 23.2539 11.127 23.2039C11.369 23.0319 11.607 22.9159 11.833 22.8299C11.478 22.6629 11.229 22.3669 11.159 22.0169C11.124 21.8369 11.139 21.6569 11.198 21.4869C11.265 21.2889 11.392 21.1029 11.573 20.9429C11.746 20.7919 11.947 20.6619 12.153 20.5489C12.2263 20.5089 12.2983 20.4722 12.369 20.4389C12.429 20.4089 12.489 20.3806 12.549 20.3539C12.697 20.2889 12.839 20.2329 12.965 20.1869C12.9763 20.1836 12.9877 20.1796 12.999 20.1749C13.079 20.1469 13.1713 20.1159 13.276 20.0819C13.3867 20.0466 13.5007 20.0076 13.618 19.9649C13.6847 19.9423 13.749 19.9189 13.811 19.8949C13.9857 19.8283 14.164 19.7522 14.346 19.6669C14.4575 19.6142 14.5678 19.5592 14.677 19.5019L14.689 19.4969C14.783 19.4449 14.8797 19.3886 14.979 19.3279C15.411 19.0659 15.869 18.7229 16.234 18.2079C16.3433 18.0513 16.4337 17.8899 16.505 17.7239L16.512 17.7089C16.536 17.6609 16.556 17.5959 16.579 17.5289C16.5877 17.4982 16.5977 17.4682 16.609 17.4389C16.633 17.3659 16.655 17.2289 16.673 17.1219L16.682 17.0539C16.682 17.0369 16.683 17.0229 16.686 16.9999L16.695 16.8449V16.8269L16.691 16.7049L16.69 16.7019ZM9.928 14.6139C10.2407 14.3949 10.5784 14.2139 10.934 14.0749C11.0187 14.0443 11.1053 14.0139 11.194 13.9839C10.261 13.8089 9.519 13.5859 8.985 13.3179C8.90628 13.2778 8.8289 13.2351 8.753 13.1899C8.513 13.0429 8.327 12.8799 8.236 12.7339C8.1863 12.6606 8.14912 12.5795 8.126 12.4939C8.12119 12.4601 8.11985 12.426 8.122 12.3919V12.3049C8.122 12.2876 8.123 12.2709 8.125 12.2549V12.2299C8.12906 12.1921 8.13849 12.1551 8.153 12.1199C8.16889 12.0473 8.1948 11.9773 8.23 11.9119L8.247 11.8839C8.28075 11.8376 8.32406 11.799 8.374 11.7709C8.49404 11.7123 8.62461 11.6783 8.758 11.6709C8.80067 11.6676 8.84634 11.6659 8.895 11.6659C8.991 11.6666 9.08534 11.6726 9.178 11.6839C9.675 12.3289 10.589 12.4799 10.896 12.5179C11.256 12.5639 12.556 12.0909 11.615 10.7629C11.021 9.92692 10.164 10.0089 9.607 10.1849L9.46 10.1649C9.17098 10.1332 8.87949 10.1308 8.59 10.1579C8.264 10.1979 7.83 10.2869 7.405 10.6249C7.202 10.7859 7.025 11.0079 6.905 11.2459C6.796 11.4639 6.725 11.7059 6.687 11.9859L6.664 12.2489L6.68 12.5889C6.68838 12.6646 6.70106 12.7397 6.718 12.8139C6.74533 12.9386 6.78867 13.0642 6.848 13.1909C6.914 13.3359 6.998 13.4809 7.1 13.6139C7.475 14.1039 7.94 14.3719 8.384 14.5869C8.744 14.7509 9.114 14.8809 9.488 14.9869C9.618 14.8549 9.76567 14.7306 9.931 14.6139H9.928Z" fill="#141A20"/>
</svg>
