<svg width="33" height="33" viewBox="0 0 33 33" fill="none" xmlns="http://www.w3.org/2000/svg">
<path d="M16.45 0.728027C25.288 0.736027 32.444 7.90703 32.435 16.743C32.427 25.58 25.257 32.736 16.42 32.728C7.595 32.72 0.441998 25.566 0.435998 16.74C0.426998 7.90503 7.582 0.736027 16.416 0.728027H16.45ZM11.072 24.944C14.5415 23.7104 18.33 23.7097 21.8 24.942L22.299 23.066C22.529 23.066 22.739 23.06 22.952 23.067C23.172 23.0497 23.39 23.0627 23.606 23.106C23.4565 23.8843 23.267 24.6543 23.038 25.413C23.628 25.739 24.216 26.035 24.774 26.378C25.332 26.721 25.861 27.106 26.401 27.472C32.888 21.528 32.483 11.417 26.375 5.97003C25.3444 6.7815 24.2212 7.46796 23.029 8.01503C23.256 8.81703 23.472 9.58603 23.615 10.379H22.287C22.205 10.059 22.132 9.75403 22.051 9.45103C21.9813 9.13462 21.8884 8.82378 21.773 8.52103C18.3113 9.74703 14.5333 9.74491 11.073 8.51503L10.572 10.397H9.917C9.701 10.395 9.485 10.392 9.227 10.387L9.831 8.00803C8.64137 7.46335 7.52164 6.77741 6.496 5.96503C0.0499978 11.844 0.320998 21.953 6.496 27.485C7.52909 26.6737 8.65377 25.9863 9.847 25.437C9.60772 24.6604 9.40978 23.8716 9.254 23.074H10.578L11.072 24.944ZM21.341 7.27203C21.3341 7.21957 21.3231 7.16774 21.308 7.11703C20.9012 6.02227 20.3442 4.98938 19.653 4.04803C19.2076 3.43068 18.647 2.90536 18.002 2.50103C17.5599 2.21477 17.0475 2.0557 16.521 2.04124C15.9945 2.02678 15.4742 2.15748 15.017 2.41903C14.418 2.75503 13.89 3.20403 13.462 3.74203C12.774 4.5925 12.2132 5.53837 11.797 6.55003C11.699 6.77603 11.61 7.00603 11.505 7.26203C14.6835 8.40268 18.1602 8.40622 21.341 7.27203ZM11.52 26.184C11.543 26.26 11.552 26.305 11.568 26.346C11.948 27.362 12.454 28.325 13.077 29.213C13.4844 29.7998 13.983 30.3177 14.554 30.747C15.754 31.622 17.054 31.633 18.266 30.78C18.681 30.484 19.056 30.134 19.381 29.742C20.209 28.7177 20.8612 27.563 21.311 26.325C21.3236 26.2774 21.3326 26.229 21.338 26.18C18.1626 25.0504 14.6945 25.0518 11.52 26.184ZM20.177 30.891C22.0572 30.4181 23.8191 29.5611 25.352 28.374C24.5108 27.7188 23.5976 27.1619 22.63 26.714C22.263 27.463 21.926 28.193 21.551 28.903C21.1641 29.6121 20.7035 30.2785 20.177 30.891ZM12.707 30.897C12.1759 30.2903 11.7131 29.6269 11.327 28.919C10.944 28.203 10.607 27.464 10.241 26.713C9.27272 27.1608 8.35879 27.7177 7.517 28.373C9.05456 29.5628 10.8216 30.4228 12.707 30.897ZM22.582 6.73503C23.289 6.49603 25.064 5.39703 25.311 5.04603C23.7855 3.87104 22.034 3.02337 20.166 2.55603C21.244 3.79203 21.983 5.21303 22.582 6.73503ZM12.681 2.56703C10.8108 3.03687 9.05785 3.88799 7.532 5.06703C8.08 5.57703 9.776 6.59503 10.295 6.72403C10.8508 5.21399 11.6575 3.80859 12.681 2.56703Z" fill="#141A20"/>
<path d="M28.846 16.7429C28.8539 17.4873 28.6886 18.2234 28.363 18.8929C27.9456 19.7105 27.2435 20.3472 26.389 20.6829C25.7681 20.928 25.1101 21.0659 24.443 21.0909C23.6658 21.1509 22.8843 21.0661 22.138 20.8409C20.525 20.3239 19.558 19.2369 19.312 17.5419C19.1896 16.7706 19.2391 15.9818 19.457 15.2319C19.6186 14.6677 19.9103 14.1493 20.3087 13.7184C20.7072 13.2874 21.2012 12.9561 21.751 12.7509C22.7073 12.3861 23.738 12.2598 24.754 12.3829C25.337 12.4219 25.909 12.5609 26.446 12.7919C27.071 13.0496 27.6157 13.4697 28.0237 14.0088C28.4316 14.548 28.6879 15.1864 28.766 15.8579C28.808 16.1509 28.82 16.4479 28.846 16.7429ZM25.677 16.7429C25.651 16.3469 25.638 15.9479 25.594 15.5529C25.5606 15.1088 25.4404 14.6756 25.24 14.2779C25.1309 14.0611 24.9619 13.8802 24.7531 13.7565C24.5444 13.6328 24.3045 13.5715 24.062 13.5799C23.8149 13.5675 23.5695 13.6264 23.3549 13.7497C23.1404 13.8729 22.9658 14.0552 22.852 14.2749C22.687 14.5869 22.581 14.9249 22.536 15.2749C22.4052 16.1357 22.3898 17.01 22.49 17.8749C22.52 18.2719 22.616 18.6629 22.771 19.0289C22.8757 19.2733 23.0485 19.4824 23.2689 19.6311C23.4892 19.7799 23.7478 19.862 24.0136 19.8677C24.2794 19.8734 24.5413 19.8024 24.7678 19.6633C24.9943 19.5241 25.176 19.3226 25.291 19.0829C25.3763 18.8984 25.4426 18.7058 25.489 18.5079C25.6146 17.928 25.6776 17.3362 25.677 16.7429ZM16.744 15.3979C16.689 15.2459 16.647 15.1239 16.602 15.0019C16.298 14.1859 15.687 13.7699 14.842 13.6799C14.5205 13.6317 14.1925 13.6494 13.878 13.7319C13.6724 13.7919 13.4867 13.9058 13.34 14.0619C13.039 14.3959 13.071 14.7699 13.454 15.0029C13.676 15.1349 13.917 15.2349 14.166 15.2999C14.692 15.4439 15.23 15.5489 15.758 15.6899C16.3708 15.8389 16.9564 16.0835 17.493 16.4149C18.07 16.7729 18.44 17.3879 18.487 18.0649C18.5351 18.4052 18.5125 18.7518 18.4206 19.083C18.3288 19.4143 18.1696 19.723 17.953 19.9899C17.621 20.3799 17.188 20.6729 16.702 20.8359C16.052 21.0559 15.362 21.1429 14.677 21.0929C13.8709 21.0485 13.0817 20.8446 12.355 20.4929C12.323 20.4779 12.287 20.4689 12.233 20.4499L11.924 20.8859H10.832V17.8649C11.0213 17.8349 11.2113 17.8272 11.402 17.8419C11.587 17.8369 11.772 17.8399 11.979 17.8399C12.017 17.9399 12.051 18.0339 12.089 18.1249C12.469 19.0309 13.108 19.6369 14.093 19.8269C14.42 19.9019 14.76 19.8949 15.083 19.8049C15.2617 19.7522 15.4247 19.6692 15.572 19.5559C15.6535 19.4976 15.72 19.4207 15.7658 19.3315C15.8117 19.2424 15.8356 19.1436 15.8356 19.0434C15.8356 18.9431 15.8117 18.8444 15.7658 18.7552C15.72 18.6661 15.6535 18.5892 15.572 18.5309C15.3337 18.3558 15.0699 18.2182 14.79 18.1229C14.249 17.9349 13.69 17.7969 13.144 17.6229C12.7627 17.5082 12.3887 17.3732 12.022 17.2179C11.326 16.9079 10.816 16.4049 10.662 15.6399C10.414 14.4179 10.928 13.3549 12.048 12.7649C12.5278 12.5192 13.0554 12.3813 13.594 12.3609C14.615 12.2856 15.6384 12.4711 16.568 12.8999C16.602 12.9159 16.638 12.9269 16.698 12.9499L16.924 12.5719H18.074V15.3919C17.86 15.3939 17.644 15.3959 17.426 15.3979H16.744ZM9.855 19.7009V20.8369H4.996V19.7009C5.146 19.7009 5.292 19.7039 5.436 19.6999C5.53867 19.6999 5.64034 19.6915 5.741 19.6749C5.81569 19.6672 5.88552 19.6343 5.93897 19.5816C5.99242 19.5288 6.0263 19.4595 6.035 19.3849C6.05834 19.2662 6.07267 19.1472 6.078 19.0279C6.08134 17.4899 6.08134 15.9515 6.078 14.4129C6.078 13.8689 5.948 13.7449 5.403 13.7359C5.275 13.7339 5.145 13.7359 4.996 13.7359V12.6059H9.821C9.885 12.9729 9.891 13.3479 9.837 13.7169C9.76967 13.7249 9.69967 13.7315 9.627 13.7369C9.556 13.7409 9.479 13.7369 9.405 13.7389C8.909 13.7559 8.791 13.8629 8.791 14.3519C8.787 15.9265 8.787 17.5015 8.791 19.0769C8.793 19.5829 8.911 19.6919 9.42 19.7009C9.558 19.7029 9.695 19.7009 9.855 19.7009Z" fill="#141A20"/>
</svg>
