<svg width="32" height="33" viewBox="0 0 32 33" fill="none" xmlns="http://www.w3.org/2000/svg">
<path fill-rule="evenodd" clip-rule="evenodd" d="M20.8 4.09209C18.6783 4.09209 16.6434 4.93494 15.1431 6.43524C13.6429 7.93553 12.8 9.97036 12.8 12.0921C12.799 12.8794 12.9143 13.6625 13.142 14.4161C13.2261 14.6934 13.2333 14.9884 13.1629 15.2694C13.0924 15.5505 12.947 15.8072 12.742 16.0121L3.2 25.5541V29.6921H6.4V28.0921C6.4 27.6677 6.56857 27.2608 6.86863 26.9607C7.16869 26.6607 7.57565 26.4921 8 26.4921H9.6V24.8921C9.6 24.4677 9.76857 24.0608 10.0686 23.7607C10.3687 23.4607 10.7757 23.2921 11.2 23.2921H13.737L16.88 20.1491C17.0848 19.9443 17.3413 19.799 17.6222 19.7285C17.9031 19.6581 18.1978 19.6652 18.475 19.7491C19.2289 19.9773 20.0123 20.0928 20.8 20.0921C22.9217 20.0921 24.9566 19.2492 26.4569 17.7489C27.9571 16.2487 28.8 14.2138 28.8 12.0921C28.8 9.97036 27.9571 7.93553 26.4569 6.43524C24.9566 4.93494 22.9217 4.09209 20.8 4.09209ZM9.6 29.6921V31.2921C9.6 31.7164 9.43143 32.1234 9.13137 32.4235C8.83131 32.7235 8.42435 32.8921 8 32.8921H3.2C2.35131 32.8921 1.53737 32.5549 0.937258 31.9548C0.337142 31.3547 0 30.5408 0 29.6921L0 25.5541C0.000128163 24.7057 0.33716 23.8921 0.937 23.2921L9.837 14.3921C9.67886 13.6357 9.59944 12.8649 9.6 12.0921C9.6 5.90609 14.614 0.89209 20.8 0.89209C26.986 0.89209 32 5.90609 32 12.0921C32 18.2781 26.986 23.2921 20.8 23.2921C20.013 23.2921 19.243 23.2101 18.5 23.0551L15.531 26.0231C15.2311 26.3232 14.8243 26.4919 14.4 26.4921H12.8V28.0921C12.8 28.5164 12.6314 28.9234 12.3314 29.2235C12.0313 29.5235 11.6243 29.6921 11.2 29.6921H9.6ZM19.2 8.89209C19.2 8.68197 19.2414 8.47392 19.3218 8.2798C19.4022 8.08568 19.5201 7.90929 19.6686 7.76072C19.8172 7.61214 19.9936 7.49429 20.1877 7.41388C20.3818 7.33347 20.5899 7.29209 20.8 7.29209C22.073 7.29209 23.2939 7.7978 24.1941 8.69798C25.0943 9.59815 25.6 10.8191 25.6 12.0921C25.6 12.3022 25.5586 12.5103 25.4782 12.7044C25.3978 12.8985 25.2799 13.0749 25.1314 13.2235C24.9828 13.372 24.8064 13.4899 24.6123 13.5703C24.4182 13.6507 24.2101 13.6921 24 13.6921C23.7899 13.6921 23.5818 13.6507 23.3877 13.5703C23.1936 13.4899 23.0172 13.372 22.8686 13.2235C22.7201 13.0749 22.6022 12.8985 22.5218 12.7044C22.4414 12.5103 22.4 12.3022 22.4 12.0921C22.4 11.882 22.3586 11.6739 22.2782 11.4798C22.1978 11.2857 22.0799 11.1093 21.9314 10.9607C21.7828 10.8121 21.6064 10.6943 21.4123 10.6139C21.2182 10.5335 21.0101 10.4921 20.8 10.4921C20.5899 10.4921 20.3818 10.4507 20.1877 10.3703C19.9936 10.2899 19.8172 10.172 19.6686 10.0235C19.5201 9.87489 19.4022 9.6985 19.3218 9.50438C19.2414 9.31026 19.2 9.10221 19.2 8.89209Z" fill="#141A20"/>
</svg>
