<svg width="14" height="13" viewBox="0 0 14 13" fill="none" xmlns="http://www.w3.org/2000/svg">
<path d="M10.315 7.46699L6.65402 11.207C6.56367 11.2992 6.49237 11.4084 6.44421 11.5282C6.39604 11.648 6.37194 11.7761 6.37329 11.9052C6.37463 12.0344 6.4014 12.162 6.45205 12.2807C6.50271 12.3995 6.57626 12.5071 6.66852 12.5975C6.76077 12.6878 6.86992 12.7591 6.98972 12.8073C7.10953 12.8555 7.23765 12.8796 7.36677 12.8782C7.49589 12.8769 7.62348 12.8501 7.74226 12.7995C7.86103 12.7488 7.96867 12.6752 8.05902 12.583L13.195 7.33699C13.575 6.94899 13.575 6.31899 13.195 5.93099L8.05902 0.684995C7.87655 0.498681 7.62754 0.392482 7.36677 0.389763C7.106 0.387044 6.85483 0.488026 6.66852 0.670495C6.4822 0.852964 6.37601 1.10197 6.37329 1.36274C6.37057 1.62351 6.47155 1.87468 6.65402 2.061L10.314 5.801H1.81402C1.59309 5.801 1.38122 5.88876 1.225 6.04497C1.06878 6.20119 0.981018 6.41307 0.981018 6.63399C0.981018 6.85492 1.06878 7.0668 1.225 7.22302C1.38122 7.37923 1.59309 7.46699 1.81402 7.46699H10.315Z" fill="#0A0E12"/>
</svg>
