<svg width="90" height="27" viewBox="0 0 90 27" fill="none" xmlns="http://www.w3.org/2000/svg">
<path d="M16.0078 8.3677C16.0798 8.0077 15.7918 7.5757 15.4318 7.5757L11.3278 6.9997L9.45576 3.2557C9.38376 3.1117 9.31176 3.0397 9.16776 2.9677C8.80776 2.7517 8.37576 2.8957 8.15976 3.2557L6.35976 6.9997L2.25576 7.5757C2.03976 7.5757 1.89576 7.6477 1.82376 7.7917C1.53576 8.0797 1.53576 8.5117 1.82376 8.7997L4.77576 11.6797L4.05576 15.7837C4.05576 15.9277 4.05576 16.0717 4.12776 16.2157C4.34376 16.5757 4.77576 16.7197 5.13576 16.5037L8.80776 14.5597L12.4798 16.5037C12.5518 16.5757 12.6958 16.5757 12.8398 16.5757H12.9838C13.3438 16.5037 13.6318 16.1437 13.5598 15.7117L12.8398 11.6077L15.7918 8.7277C15.9358 8.6557 16.0078 8.5117 16.0078 8.3677Z" fill="#E5E85A"/>
<path d="M34.0078 8.3677C34.0798 8.0077 33.7918 7.5757 33.4318 7.5757L29.3278 6.9997L27.4558 3.2557C27.3838 3.1117 27.3118 3.0397 27.1678 2.9677C26.8078 2.7517 26.3758 2.8957 26.1598 3.2557L24.3598 6.9997L20.2558 7.5757C20.0398 7.5757 19.8958 7.6477 19.8238 7.7917C19.5358 8.0797 19.5358 8.5117 19.8238 8.7997L22.7758 11.6797L22.0558 15.7837C22.0558 15.9277 22.0558 16.0717 22.1278 16.2157C22.3438 16.5757 22.7758 16.7197 23.1358 16.5037L26.8078 14.5597L30.4798 16.5037C30.5518 16.5757 30.6958 16.5757 30.8398 16.5757H30.9838C31.3438 16.5037 31.6318 16.1437 31.5598 15.7117L30.8398 11.6077L33.7918 8.7277C33.9358 8.6557 34.0078 8.5117 34.0078 8.3677Z" fill="#E5E85A"/>
<path d="M52.0078 8.3677C52.0798 8.0077 51.7918 7.5757 51.4318 7.5757L47.3278 6.9997L45.4558 3.2557C45.3838 3.1117 45.3118 3.0397 45.1678 2.9677C44.8078 2.7517 44.3758 2.8957 44.1598 3.2557L42.3598 6.9997L38.2558 7.5757C38.0398 7.5757 37.8958 7.6477 37.8238 7.7917C37.5358 8.0797 37.5358 8.5117 37.8238 8.7997L40.7758 11.6797L40.0558 15.7837C40.0558 15.9277 40.0558 16.0717 40.1278 16.2157C40.3438 16.5757 40.7758 16.7197 41.1358 16.5037L44.8078 14.5597L48.4798 16.5037C48.5518 16.5757 48.6958 16.5757 48.8398 16.5757H48.9838C49.3438 16.5037 49.6318 16.1437 49.5598 15.7117L48.8398 11.6077L51.7918 8.7277C51.9358 8.6557 52.0078 8.5117 52.0078 8.3677Z" fill="#E5E85A"/>
<path d="M70.0078 8.3677C70.0798 8.0077 69.7918 7.5757 69.4318 7.5757L65.3278 6.9997L63.4558 3.2557C63.3838 3.1117 63.3118 3.0397 63.1678 2.9677C62.8078 2.7517 62.3758 2.8957 62.1598 3.2557L60.3598 6.9997L56.2558 7.5757C56.0398 7.5757 55.8958 7.6477 55.8238 7.7917C55.5358 8.0797 55.5358 8.5117 55.8238 8.7997L58.7758 11.6797L58.0558 15.7837C58.0558 15.9277 58.0558 16.0717 58.1278 16.2157C58.3438 16.5757 58.7758 16.7197 59.1358 16.5037L62.8078 14.5597L66.4798 16.5037C66.5518 16.5757 66.6958 16.5757 66.8398 16.5757H66.9838C67.3438 16.5037 67.6318 16.1437 67.5598 15.7117L66.8398 11.6077L69.7918 8.7277C69.9358 8.6557 70.0078 8.5117 70.0078 8.3677Z" fill="#E5E85A"/>
<path d="M88.0078 8.3677C88.0798 8.0077 87.7918 7.5757 87.4318 7.5757L83.3278 6.9997L81.4558 3.2557C81.3838 3.1117 81.3118 3.0397 81.1678 2.9677C80.8078 2.7517 80.3758 2.8957 80.1598 3.2557L78.3598 6.9997L74.2558 7.5757C74.0398 7.5757 73.8958 7.6477 73.8238 7.7917C73.5358 8.0797 73.5358 8.5117 73.8238 8.7997L76.7758 11.6797L76.0558 15.7837C76.0558 15.9277 76.0558 16.0717 76.1278 16.2157C76.3438 16.5757 76.7758 16.7197 77.1358 16.5037L80.8078 14.5597L84.4798 16.5037C84.5518 16.5757 84.6958 16.5757 84.8398 16.5757H84.9838C85.3438 16.5037 85.6318 16.1437 85.5598 15.7117L84.8398 11.6077L87.7918 8.7277C87.9358 8.6557 88.0078 8.5117 88.0078 8.3677Z" fill="#E5E85A"/>
</svg>
