<svg width="47" height="43" viewBox="0 0 47 43" fill="none" xmlns="http://www.w3.org/2000/svg">
<path d="M42.4024 5.64521L45.0531 6.46283L45.0444 6.46721C45.5723 6.63353 45.8498 7.14301 45.6677 7.60785C45.5766 7.86346 45.3403 8.07356 45.0348 8.16285L42.3981 8.98047C41.232 9.34026 40.3304 10.1421 39.9251 11.1777L39.005 13.5334C38.8545 13.9063 38.4623 14.1374 38.0482 14.1374C37.9338 14.1374 37.8215 14.1199 37.7112 14.0849C37.571 14.045 37.4421 13.973 37.3346 13.8745C37.2272 13.776 37.1442 13.6538 37.0923 13.5177L36.1766 11.1742C35.7713 10.1377 34.8697 9.33588 33.7036 8.97697L31.0529 8.15847C30.8253 8.09719 30.6065 7.93175 30.4839 7.71727C30.4231 7.61195 30.387 7.49423 30.3782 7.37294C30.3694 7.25165 30.3882 7.12995 30.4331 7.01695C30.5294 6.75784 30.7745 6.53986 31.0897 6.45495L33.7124 5.64521C34.874 5.28455 35.7757 4.48356 36.181 3.44796L37.1054 1.0914C37.1521 0.977367 37.2208 0.873671 37.3076 0.786245C37.3945 0.69882 37.4977 0.629384 37.6114 0.581914C37.8521 0.476867 38.1393 0.460234 38.3949 0.541646C38.6724 0.617806 38.914 0.832278 39.0138 1.10803L39.9294 3.44709C40.3348 4.48356 41.2364 5.28542 42.4024 5.64521ZM29.3494 21.0137L36.0173 23.0735L36.0217 23.07C36.9916 23.3772 37.5011 24.3165 37.1693 25.1709C36.9916 25.648 36.5548 26.0323 35.9989 26.1951L29.3494 28.2506C26.2155 29.2179 23.7976 31.367 22.7086 34.1481L20.3906 40.0772C20.1131 40.7617 19.3926 41.1863 18.6328 41.1863C18.4367 41.1863 18.2409 41.158 18.0454 41.1014C17.4764 40.9351 17.0431 40.5473 16.8697 40.0492L14.5657 34.1516C13.4767 31.3757 11.0589 29.2223 7.9302 28.255L1.27105 26.1978C0.807093 26.0612 0.419292 25.7618 0.200443 25.3731C0.0925831 25.1826 0.0281066 24.9706 0.011613 24.7522C-0.00488062 24.5339 0.0270151 24.3146 0.105025 24.11C0.287107 23.6162 0.720429 23.2319 1.27105 23.07L7.9302 21.0128C11.0589 20.0464 13.4767 17.8964 14.5657 15.1161L16.8838 9.18706C17.0203 8.79839 17.367 8.44648 17.8125 8.24776C18.2605 8.0544 18.762 8.02434 19.2298 8.16285C19.7761 8.3248 20.2085 8.7056 20.395 9.19494L22.7086 15.1161C23.7976 17.8973 26.2155 20.0464 29.3494 21.0137Z" fill="#FAFCFD"/>
</svg>
