<svg width="25" height="25" viewBox="0 0 25 25" fill="none" xmlns="http://www.w3.org/2000/svg">
<path fill-rule="evenodd" clip-rule="evenodd" d="M6.18421 0.505731C6.18421 0.331325 6.32559 0.189941 6.5 0.189941H8.39473C8.56911 0.189941 8.71052 0.331325 8.71052 0.505731V4.92678C8.71052 5.10119 8.56911 5.24257 8.39473 5.24257H6.5C6.32559 5.24257 6.18421 5.10119 6.18421 4.92678V0.505731ZM14.3947 1.4531H10.6053V3.97941H14.3947V1.4531ZM20.7105 3.97941C21.0593 3.97941 21.3421 4.26218 21.3421 4.61099V10.2952H3.65789V4.61099C3.65789 4.26219 3.94066 3.97941 4.28947 3.97941V1.4531H2.39473C1.69711 1.4531 1.13158 2.01863 1.13158 2.71626V22.9268C1.13158 23.6244 1.69711 24.1899 2.39473 24.1899H22.6053C23.3029 24.1899 23.8684 23.6244 23.8684 22.9268V2.71626C23.8684 2.01863 23.3029 1.4531 22.6053 1.4531H20.7105V3.97941ZM6.18421 13.1373C6.18421 12.9629 6.32559 12.8215 6.5 12.8215H8.39473C8.56911 12.8215 8.71052 12.9629 8.71052 13.1373V15.032C8.71052 15.2064 8.56911 15.3478 8.39473 15.3478H6.5C6.32559 15.3478 6.18421 15.2064 6.18421 15.032V13.1373ZM11.5526 12.8215C11.3783 12.8215 11.2368 12.9629 11.2368 13.1373V15.032C11.2368 15.2064 11.3783 15.3478 11.5526 15.3478H13.4474C13.6217 15.3478 13.7632 15.2064 13.7632 15.032V13.1373C13.7632 12.9629 13.6217 12.8215 13.4474 12.8215H11.5526ZM16.2895 13.1373C16.2895 12.9629 16.4309 12.8215 16.6053 12.8215H18.5C18.6744 12.8215 18.8158 12.9629 18.8158 13.1373V15.032C18.8158 15.2064 18.6744 15.3478 18.5 15.3478H16.6053C16.4309 15.3478 16.2895 15.2064 16.2895 15.032V13.1373ZM6.5 17.8742C6.32559 17.8742 6.18421 18.0156 6.18421 18.1899V20.0847C6.18421 20.2591 6.32559 20.4005 6.5 20.4005H8.39473C8.56911 20.4005 8.71052 20.2591 8.71052 20.0847V18.1899C8.71052 18.0156 8.56911 17.8742 8.39473 17.8742H6.5ZM11.2368 18.1899C11.2368 18.0156 11.3783 17.8742 11.5526 17.8742H13.4474C13.6217 17.8742 13.7632 18.0156 13.7632 18.1899V20.0847C13.7632 20.2591 13.6217 20.4005 13.4474 20.4005H11.5526C11.3783 20.4005 11.2368 20.2591 11.2368 20.0847V18.1899ZM16.6053 0.189941C16.4309 0.189941 16.2895 0.331325 16.2895 0.505731V4.92678C16.2895 5.10119 16.4309 5.24257 16.6053 5.24257H18.5C18.6744 5.24257 18.8158 5.10119 18.8158 4.92678V0.505731C18.8158 0.331325 18.6744 0.189941 18.5 0.189941H16.6053Z" fill="black"/>
</svg>
