<svg width="25" height="25" viewBox="0 0 25 25" fill="none" xmlns="http://www.w3.org/2000/svg">
<g clip-path="url(#clip0_33_405)">
<path d="M14.52 10.4049L14.576 15.6379C14.5773 15.7671 14.6041 15.8947 14.6547 16.0135C14.7053 16.1323 14.7789 16.24 14.8711 16.3304C14.9634 16.4208 15.0725 16.4922 15.1924 16.5404C15.3122 16.5886 15.4403 16.6127 15.5695 16.6114C15.6987 16.6101 15.8263 16.5834 15.9451 16.5327C16.0639 16.4821 16.1716 16.4085 16.262 16.3163C16.3524 16.224 16.4237 16.1149 16.472 15.995C16.5202 15.8752 16.5443 15.7471 16.543 15.6179L16.465 8.27591C16.4609 8.01357 16.3548 7.76314 16.1693 7.57761C15.9838 7.39209 15.7333 7.28604 15.471 7.28191L8.13 7.20391C8.00084 7.20253 7.87268 7.22661 7.75283 7.27476C7.63298 7.32291 7.52379 7.3942 7.43148 7.48455C7.33918 7.5749 7.26558 7.68255 7.21488 7.80134C7.16418 7.92014 7.13738 8.04776 7.136 8.17691C7.13462 8.30607 7.15869 8.43423 7.20685 8.55408C7.255 8.67393 7.32628 8.78313 7.41663 8.87543C7.59911 9.06184 7.84816 9.16813 8.109 9.17091L13.342 9.22691L7.33 15.2359C7.25252 15.3133 7.19103 15.4051 7.14905 15.5062C7.10707 15.6073 7.08541 15.7157 7.08532 15.8252C7.08523 15.9347 7.1067 16.0431 7.14851 16.1443C7.19032 16.2455 7.25165 16.3374 7.329 16.4149C7.40635 16.4924 7.4982 16.5539 7.59931 16.5959C7.70042 16.6378 7.80881 16.6595 7.91829 16.6596C8.02777 16.6597 8.1362 16.6382 8.23738 16.5964C8.33856 16.5546 8.43052 16.4933 8.508 16.4159L14.52 10.4049Z" fill="#FAFCFD"/>
</g>
<defs>
<clipPath id="clip0_33_405">
<rect x="0.5" y="0.0358887" width="24" height="24" rx="6" fill="white"/>
</clipPath>
</defs>
</svg>
