<svg width="10" height="10" viewBox="0 0 10 10" fill="none" xmlns="http://www.w3.org/2000/svg">
<path d="M7.43468 3.20106L7.49068 8.43406C7.49199 8.56321 7.51873 8.69084 7.56937 8.80966C7.62001 8.92848 7.69356 9.03617 7.78581 9.12657C7.87807 9.21696 7.98722 9.28831 8.10705 9.33652C8.22688 9.38473 8.35502 9.40887 8.48418 9.40756C8.61333 9.40624 8.74097 9.3795 8.85979 9.32887C8.97861 9.27823 9.08629 9.20468 9.17669 9.11242C9.26709 9.02017 9.33843 8.91101 9.38664 8.79119C9.43485 8.67136 9.45899 8.54321 9.45768 8.41406L9.37968 1.07206C9.37556 0.809716 9.26951 0.559278 9.08398 0.373753C8.89846 0.188229 8.64802 0.0821796 8.38568 0.0780556L1.04468 5.60531e-05C0.915524 -0.00132283 0.787362 0.0227505 0.667511 0.0709021C0.547659 0.119054 0.438466 0.19034 0.346165 0.280692C0.253863 0.371043 0.180262 0.47869 0.129562 0.597486C0.0788628 0.716282 0.0520584 0.843901 0.0506795 0.973056C0.0493006 1.10221 0.073374 1.23037 0.121526 1.35022C0.169677 1.47008 0.240964 1.57927 0.331315 1.67157C0.513788 1.85798 0.762839 1.96427 1.02368 1.96706L6.25668 2.02306L0.244679 8.03206C0.167199 8.1094 0.105713 8.20126 0.063731 8.30237C0.0217489 8.40348 9.31599e-05 8.51187 2.99911e-07 8.62135C-9.25601e-05 8.73083 0.0213793 8.83926 0.0631898 8.94044C0.105 9.04162 0.166331 9.13358 0.243679 9.21106C0.321028 9.28854 0.41288 9.35002 0.513991 9.392C0.615102 9.43399 0.723492 9.45564 0.832972 9.45573C0.942453 9.45583 1.05088 9.43436 1.15206 9.39255C1.25324 9.35074 1.3452 9.2894 1.42268 9.21206L7.43468 3.20106Z" fill="#FAFCFD"/>
</svg>
