<svg width="24" height="24" viewBox="0 0 24 24" fill="none" xmlns="http://www.w3.org/2000/svg">
<path d="M17.8184 11.2979H6.18204C5.64649 11.2979 5.21234 11.732 5.21234 12.2675V12.2676C5.21234 12.8031 5.64649 13.2372 6.18204 13.2372H17.8184C18.354 13.2372 18.7881 12.8031 18.7881 12.2675C18.7881 11.732 18.354 11.2979 17.8184 11.2979Z" fill="#FAFCFD"/>
<path d="M12.702 17.818V6.18161C12.702 5.64606 12.2679 5.21191 11.7323 5.21191H11.7323C11.1968 5.21191 10.7626 5.64606 10.7626 6.18161V17.818C10.7626 18.3535 11.1968 18.7877 11.7323 18.7877C12.2679 18.7877 12.702 18.3535 12.702 17.818Z" fill="#FAFCFD"/>
</svg>
