<svg width="190" height="53" viewBox="0 0 190 53" fill="none" xmlns="http://www.w3.org/2000/svg">
<path d="M28.5298 31.5941C28.8777 29.6296 28.9563 28.686 28.9563 27.7817C28.9549 22.6723 25.8966 19.9998 18.5412 19.9998H6.03583L0.5 52.0302H8.24258L10.2936 40.1219H15.1715L17.9591 52.0302H25.5473L22.2954 39.3759C25.5866 38.3145 27.754 35.9561 28.5284 31.5941H28.5298ZM20.8644 31.2014C20.4 33.7561 19.2005 34.1487 16.2965 34.1487H11.3402L12.5789 26.9179H17.496C20.0507 26.9179 21.0959 27.626 21.0959 29.3155C21.0959 29.6689 21.058 30.1021 20.8644 31.2014Z" fill="#141A20"/>
<path d="M48.9709 38.8641H49.817L50.9935 32.1044H50.1717H37.8221L38.6736 27.3105H51.7584L53.0365 19.9998H32.2077L26.6719 52.0301H34.386H47.4614L48.7394 44.7208H35.6532L36.6605 38.8641H48.9709Z" fill="#141A20"/>
<path d="M60.9312 33.5191L61.8992 27.8601H74.9461L76.3392 19.9998H55.5118L49.9746 52.0301H57.7172L59.6532 40.8298H71.9257L73.2037 33.5191H60.9312Z" fill="#141A20"/>
<path d="M155.006 19.9998L144.824 39.5721L141.611 19.9998H130.307L124.797 51.8785L122.215 19.9998H110.833L97.3748 51.6334L94.2245 39.3758C97.5156 38.3144 99.6831 35.956 100.458 31.594C100.805 29.6296 100.883 28.686 100.883 27.7816C100.883 22.6722 97.8243 19.9998 90.4689 19.9998H77.9636L72.4277 52.0301H80.1703L82.2227 40.1218H87.1006L89.8881 52.0301H104.87L107.386 45.9379H117.181L117.569 52.0301H132.281L136.192 29.3927L140.063 52.0301H145.638L157.29 29.6282L153.457 52.0301H160.969L166.504 19.9998H155.006ZM92.7921 31.2014C92.3277 33.7561 91.1269 34.1487 88.2229 34.1487H83.2679L84.5066 26.9165H89.4238C91.9785 26.9165 93.0236 27.6245 93.0236 29.3141C93.0236 29.6675 92.9844 30.1007 92.7921 31.2V31.2014ZM109.903 39.8077L115.788 25.4232L116.756 39.8077H109.903Z" fill="#141A20"/>
<path d="M187.993 27.3105L189.271 19.9998H168.442L162.906 52.0301H183.696L184.974 44.7208H171.888L172.895 38.8641H185.205L186.406 32.1044H174.056L174.908 27.3105H187.993Z" fill="#141A20"/>
<mask id="mask0_33_417" style="mask-type:luminance" maskUnits="userSpaceOnUse" x="3" y="1" width="45" height="13">
<path d="M47.1534 1.08191H3.6543V13.7362H47.1534V1.08191Z" fill="white"/>
</mask>
<g mask="url(#mask0_33_417)">
<path d="M15.896 4.11979C16.7338 4.11979 17.413 3.43974 17.413 2.60085C17.413 1.76196 16.7338 1.08191 15.896 1.08191C15.0581 1.08191 14.3789 1.76196 14.3789 2.60085C14.3789 3.43974 15.0581 4.11979 15.896 4.11979Z" fill="#141A20"/>
<path d="M17.997 11.6946C17.1461 12.66 15.8645 13.7363 14.3787 13.7363C13.5356 13.7363 13.0308 12.9809 13.0308 12.2174C13.0308 10.8255 13.8739 8.67409 13.8739 8.04164C13.8739 7.78893 13.7048 7.53488 13.3678 7.53488C12.8616 7.53488 12.6366 7.73411 12.6366 7.73411L12.4336 7.29956C12.4336 7.29956 14.1211 5.25781 15.4209 5.25781C16.0948 5.25781 16.4032 5.63755 16.4032 6.5227C16.4032 7.46001 15.7292 10.3187 15.7292 11.2039C15.7292 11.5903 15.9895 11.7106 16.3538 11.7106C16.7922 11.7106 17.2931 11.4472 17.7355 11.1303L17.9983 11.6933L17.997 11.6946Z" fill="#141A20"/>
<path d="M35.3334 12.0597C37.0508 12.0597 38.2322 11.458 39.1313 10.6852L39.463 11.2975C38.8138 12.0677 36.7086 13.7364 34.0479 13.7364C31.6878 13.7364 30.3438 12.6039 30.3438 10.6999C30.3438 8.04306 32.5309 5.1322 35.9345 5.1322C37.3618 5.1322 38.2621 5.9866 38.2621 7.15656C38.2621 10.0674 35.4037 11.4593 32.7065 11.2053V10.6985C33.8866 10.6985 35.7406 9.17959 35.7406 7.66199C35.7406 7.28225 35.5663 6.90251 35.0602 6.90251C34.0492 6.90251 33.0448 8.4843 33.0448 10.1918C33.0448 11.4045 33.5444 12.0584 35.3347 12.0584L35.3334 12.0597Z" fill="#141A20"/>
<path d="M47.1535 8.65629C47.1535 6.43671 45.8173 5.13037 43.6146 5.13037C40.5506 5.13037 38.5586 7.34326 38.5586 10.571C38.5586 12.5953 40.1602 13.7345 42.0975 13.7345C45.4686 13.7345 47.1535 11.5658 47.1535 8.65629ZM42.4345 11.9642C41.7606 11.9642 41.2544 11.4575 41.2544 10.1926C41.2544 8.61752 42.1496 6.90336 43.2776 6.90336C44.0648 6.90336 44.4577 7.53581 44.4577 8.67501C44.4577 10.2501 43.638 11.9642 42.4345 11.9642Z" fill="#141A20"/>
<path d="M11.5376 5.16272C9.82273 5.16272 9.01085 7.44113 9.01085 7.44113L9.14356 7.63902C9.29579 7.54542 9.47794 7.44113 9.68872 7.44113C9.91771 7.44113 10.1077 7.61495 10.1077 8.07357C10.1077 8.83304 9.26326 10.6997 8.50473 10.6997C8.16775 10.6997 8.01683 10.1381 7.79824 9.12319C7.72408 8.82636 7.59397 8.06555 7.40532 6.84345C7.22967 5.71093 7.10477 5.25765 6.48285 5.25765C5.05556 5.25765 3.6543 7.30073 3.6543 7.30073L3.85727 7.73529C4.00949 7.64169 4.19034 7.53606 4.45576 7.53606C4.96188 7.53606 5.01263 8.11369 5.30277 9.18336C5.56429 10.1648 5.8219 11.1289 6.08732 12.1277C6.35404 13.1265 6.9018 13.7362 7.57576 13.7362C8.5867 13.7362 9.55991 12.8551 10.8818 11.0968C11.4972 10.2865 12.1452 9.19807 12.4847 8.43192C12.8282 7.65907 12.8855 7.00122 12.8855 6.69904C12.8855 5.8219 12.5485 5.16272 11.5376 5.16272Z" fill="#141A20"/>
<path d="M30.6527 11.2703C30.2636 11.523 29.8642 11.7116 29.5467 11.7116C29.2696 11.7116 29.0406 11.5845 29.0406 10.9521C29.0406 10.067 29.7991 8.78336 29.7991 7.02909C29.7991 5.63717 29.1252 5.25744 28.1142 5.25744C27.1033 5.25744 25.7541 6.1426 24.9734 7.53451C24.9877 7.36337 24.9956 7.19623 24.9956 7.02775C24.9956 5.88855 24.6586 5.2561 23.4785 5.2561C22.2984 5.2561 21.2601 6.3084 20.5419 7.53318C20.5862 7.19088 20.6122 6.85794 20.6122 6.521C20.6122 5.63584 20.1907 5.2561 19.5167 5.2561C18.4316 5.2561 16.6777 7.29785 16.6777 7.29785L16.8807 7.7324C16.8807 7.7324 17.1656 7.53318 17.5781 7.53318C17.9151 7.53318 18.0842 7.78589 18.0842 8.03994C18.0842 8.79941 17.4102 10.1913 17.4102 11.2035C17.4102 12.9751 18.2533 13.7346 20.1074 13.7346C19.9734 13.407 19.7704 12.8601 19.7704 11.9629C19.7704 9.55888 20.9505 7.91425 21.709 7.91425C22.1319 7.91425 22.2984 8.23114 22.2984 8.79941C22.2984 9.68456 21.7923 10.571 21.7923 11.5832C21.7923 13.2278 22.4662 13.7346 24.4894 13.7346C24.3203 13.4819 24.1525 12.8347 24.1525 12.2156C24.1525 10.0763 25.166 7.91291 26.2589 7.91291C26.6102 7.91291 26.8639 8.23916 26.8483 8.80475C26.8483 9.68456 26.1743 11.2021 26.1743 12.3413C26.1743 12.9738 26.5113 13.7333 27.5223 13.7333C28.5332 13.7333 29.5337 13.2599 30.5108 12.3975C30.7008 12.2277 30.879 12.0525 31.0469 11.872L30.6514 11.2676L30.6527 11.2703Z" fill="#141A20"/>
</g>
</svg>
