<svg width="25" height="25" viewBox="0 0 25 25" fill="none" xmlns="http://www.w3.org/2000/svg">
<path fill-rule="evenodd" clip-rule="evenodd" d="M13.4215 23.4695C15.5632 20.3715 20.6951 12.5555 20.6951 8.79482C20.6951 4.04247 17.026 0.189941 12.5 0.189941C7.97395 0.189941 4.30487 4.04247 4.30487 8.79482C4.30487 12.5555 9.43677 20.3715 11.5785 23.4695C12.0295 24.122 12.9705 24.122 13.4215 23.4695ZM12.5 10.7265C13.7931 10.7265 14.8415 9.67819 14.8415 8.38506C14.8415 7.09193 13.7931 6.0436 12.5 6.0436C11.2069 6.0436 10.1585 7.09193 10.1585 8.38506C10.1585 9.67819 11.2069 10.7265 12.5 10.7265Z" fill="black"/>
</svg>
